SplineFontDB: 3.0
FontName: Istok-Bold
FullName: Istok Bold
FamilyName: Istok
Weight: Bold
Copyright: (C) 2009-2014 Andrey V. Panov(panov@canopus.iacp.dvo.ru), with Reserved Font Name Istok.
UComments: "2008-10-29: Created."
Version: 1.0.3
ItalicAngle: 0
UnderlinePosition: -204
UnderlineWidth: 102
Ascent: 1548
Descent: 500
InvalidEm: 0
LayerCount: 2
Layer: 0 1 "+BBcEMAQ0BD0EOAQ5 +BD8EOwQwBD0A" 1
Layer: 1 1 "+BB8ENQRABDUENAQ9BDgEOQAA +BD8EOwQwBD0A" 0
XUID: [1021 513 629268104 9940963]
FSType: 0
OS2Version: 0
OS2_WeightWidthSlopeOnly: 0
OS2_UseTypoMetrics: 1
CreationTime: 1225286394
ModificationTime: 1418893058
PfmFamily: 33
TTFWeight: 700
TTFWidth: 5
LineGap: 0
VLineGap: 0
Panose: 2 15 7 3 3 4 3 2 2 4
OS2TypoAscent: 1548
OS2TypoAOffset: 0
OS2TypoDescent: -500
OS2TypoDOffset: 0
OS2TypoLinegap: 410
OS2WinAscent: 1950
OS2WinAOffset: 0
OS2WinDescent: 508
OS2WinDOffset: 0
HheadAscent: 1950
HheadAOffset: 0
HheadDescent: -508
HheadDOffset: 0
OS2FamilyClass: 2048
OS2Vendor: 'PfEd'
Lookup: 258 0 0 "LGC kerning" { "LGC kerning subtable" [307,30,0] } ['kern' ('latn' <'dflt' > 'grek' <'dflt' > 'cyrl' <'dflt' > ) ]
MarkAttachClasses: 1
DEI: 91125
LangName: 1033 "" "" "" "" "" "" "" "" "Andrey V. Panov" "Andrey V. Panov" "" "http://code.google.com/p/istok" "http://code.google.com/u/andrej.panov/" "GNU General Public License with font exception" "http://www.gnu.org/licenses/gpl.html http://www.gnu.org/licenses/gpl-faq.html#FontException"
LangName: 1049 "" "+BBgEQQRCBD4EOgAA" "" "" "" "" "" "" "" "+BBAA. +BBIA. +BB8EMAQ9BD4EMgAA"
Encoding: UnicodeBmp
UnicodeInterp: none
NameList: Adobe Glyph List
DisplaySize: -48
AntiAlias: 1
FitToEm: 1
WinInfo: 8320 16 13
BeginPrivate: 8
BlueValues 47 [-34 0 1050 1070 1422 1423 1434 1468 1476 1496]
OtherBlues 41 [-420 -400 -370 -370 -310 -310 1136 1150]
BlueScale 9 0.0282857
StdHW 5 [200]
StdVW 5 [280]
StemSnapH 45 [164 180 186 196 200 224 236 244 248 256 284]
StemSnapV 29 [230 250 280 292 296 300 312]
ForceBold 4 true
EndPrivate
Grid
196 0 m 2

StartChar: dotlessi
Encoding: 305 305 0
Width: 552
Flags: W
HStem: 0 21G<166 386> 1030 20G<166 386>
VStem: 136 280<1.18652 1048.81>
LayerCount: 2
Back
SplineSet
267 -1 m 2,0,-1
 244 0 l 1,1,-1
 178 0 l 1,2,3
 141 6 141 6 141 49 c 2,4,-1
 141 988 l 2,5,6
 141 1018 141 1018 153.5 1029.5 c 128,-1,7
 166 1041 166 1041 193 1041 c 2,8,-1
 215 1040 l 1,9,-1
 254 1040 l 1,10,-1
 272 1041 l 2,11,12
 317 1041 317 1041 317 991 c 2,13,-1
 317 70 l 1,14,-1
 318 50 l 2,15,16
 318 17 318 17 301 6 c 1,17,18
 300 6 300 6 291.5 2.5 c 128,-1,19
 283 -0.999984 283 -0.999984 267 -1 c 2,0,-1
EndSplineSet
Fore
SplineSet
196 0 m 2,0,1
 136 0 136 0 136 60 c 2,2,-1
 136 990 l 6,3,4
 136 1050 136 1050 196 1050 c 6,5,-1
 356 1050 l 6,6,7
 416 1050 416 1050 416 990 c 6,8,-1
 416 60 l 2,9,10
 416 0 416 0 356 0 c 2,11,-1
 196 0 l 2,0,1
EndSplineSet
EndChar

StartChar: afii10079
Encoding: 1085 1085 1
Width: 1192
Flags: W
HStem: 0 21G<166 386 806 1026> 448 200<416 776> 1030 20G<166 386 806 1026>
VStem: 136 280<1.18652 448 648 1048.81> 776 280<1.18652 448 648 1048.81>
LayerCount: 2
Back
SplineSet
802 448 m 5,24,-1
 318 448 l 5,25,-1
 318 648 l 5,26,-1
 802 648 l 5,27,-1
 802 448 l 5,24,-1
187 0 m 2,0,1
 142 0 142 0 142 45 c 2,2,-1
 142 1005 l 2,3,4
 142 1050 142 1050 187 1050 c 2,5,-1
 273 1050 l 2,6,7
 318 1050 318 1050 318 1005 c 2,8,-1
 318 614 l 1,9,-1
 802 614 l 1,10,-1
 802 1005 l 2,11,12
 802 1050 802 1050 847 1050 c 2,13,-1
 933 1050 l 2,14,15
 978 1050 978 1050 978 1005 c 2,16,-1
 978 45 l 2,17,18
 978 0 978 0 933 0 c 2,19,-1
 847 0 l 2,20,21
 802 0 802 0 802 45 c 2,22,-1
 802 482 l 1,23,-1
 318 482 l 1,24,-1
 318 45 l 2,25,26
 318 0 318 0 273 0 c 2,27,-1
 187 0 l 2,0,1
EndSplineSet
Fore
SplineSet
196 0 m 2,0,1
 136 0 136 0 136 60 c 2,2,-1
 136 990 l 2,3,4
 136 1050 136 1050 196 1050 c 2,5,-1
 356 1050 l 2,6,7
 416 1050 416 1050 416 990 c 2,8,-1
 416 648 l 1,9,-1
 776 648 l 1,10,-1
 776 990 l 2,11,12
 776 1050 776 1050 836 1050 c 2,13,-1
 996 1050 l 2,14,15
 1056 1050 1056 1050 1056 990 c 2,16,-1
 1056 60 l 2,17,18
 1056 0 1056 0 996 0 c 2,19,-1
 836 0 l 2,20,21
 776 0 776 0 776 60 c 2,22,-1
 776 448 l 1,23,-1
 416 448 l 1,24,-1
 416 60 l 2,25,26
 416 0 416 0 356 0 c 2,27,-1
 196 0 l 2,0,1
EndSplineSet
EndChar

StartChar: o
Encoding: 111 111 2
Width: 1206
Flags: W
HStem: -20 196<466.942 739.058> 874 196<466.942 739.058>
VStem: 80 296<278.047 771.953> 830 296<278.047 771.953>
LayerCount: 2
Fore
SplineSet
80 525 m 256,0,1
 80 780 80 780 211.5 925 c 128,-1,2
 343 1070 343 1070 603 1070 c 256,3,4
 863 1070 863 1070 994.5 925 c 128,-1,5
 1126 780 1126 780 1126 525 c 256,6,7
 1126 270 1126 270 994.5 125 c 128,-1,8
 863 -20 863 -20 603 -20 c 256,9,10
 343 -20 343 -20 211.5 125 c 128,-1,11
 80 270 80 270 80 525 c 256,0,1
376 525 m 256,12,13
 376 335 376 335 434.5 255.5 c 128,-1,14
 493 176 493 176 603 176 c 256,15,16
 713 176 713 176 771.5 255.5 c 128,-1,17
 830 335 830 335 830 525 c 256,18,19
 830 715 830 715 771.5 794.5 c 128,-1,20
 713 874 713 874 603 874 c 256,21,22
 493 874 493 874 434.5 794.5 c 128,-1,23
 376 715 376 715 376 525 c 256,12,13
EndSplineSet
EndChar

StartChar: afii10081
Encoding: 1087 1087 3
Width: 1184
Flags: W
HStem: 0 21G<166 386 798 1018> 850 200<416 768>
VStem: 136 280<1.18652 850> 768 280<1.18652 850>
LayerCount: 2
Fore
SplineSet
196 0 m 2,0,1
 136 0 136 0 136 60 c 2,2,-1
 136 990 l 2,3,4
 136 1050 136 1050 196 1050 c 2,5,-1
 988 1050 l 2,6,7
 1048 1050 1048 1050 1048 990 c 2,8,-1
 1048 60 l 2,9,10
 1048 0 1048 0 988 0 c 2,11,-1
 828 0 l 2,12,13
 768 0 768 0 768 60 c 2,14,-1
 768 850 l 1,15,-1
 416 850 l 1,16,-1
 416 60 l 2,17,18
 416 0 416 0 356 0 c 2,19,-1
 196 0 l 2,0,1
EndSplineSet
EndChar

StartChar: afii10074
Encoding: 1080 1080 4
Width: 1212
Flags: W
HStem: 0 21G<161.5 433 826 1046> 1030 20G<166 386 779 1046>
VStem: 136 280<407 1048.81> 796 280<1.18652 643>
DStem2: 416 407 502 65 0.453371 0.891322<0 382.633>
LayerCount: 2
Back
SplineSet
187 0 m 2,0,1
 142 0 142 0 142 45 c 2,2,-1
 142 1005 l 2,3,4
 142 1050 142 1050 187 1050 c 2,5,-1
 273 1050 l 2,6,7
 318 1050 318 1050 318 1005 c 2,8,-1
 318 267 l 2,9,10
 318 237 318 237 316 207 c 25,11,-1
 318 207 l 17,12,-1
 776 1001 l 2,13,14
 804 1050 804 1050 862 1050 c 2,15,-1
 983 1050 l 2,16,17
 1028 1050 1028 1050 1028 1005 c 2,18,-1
 1028 45 l 2,19,20
 1028 0 1028 0 983 0 c 2,21,-1
 897 0 l 2,22,23
 852 0 852 0 852 45 c 2,24,-1
 852 783 l 2,25,26
 852 813 852 813 854 843 c 9,27,-1
 852 843 l 17,28,-1
 394 49 l 2,29,30
 366 0 366 0 308 0 c 2,31,-1
 187 0 l 2,0,1
EndSplineSet
Fore
SplineSet
187 0 m 2,0,1
 136 0 136 0 136 60 c 2,2,-1
 136 990 l 2,3,4
 136 1050 136 1050 196 1050 c 2,5,-1
 356 1050 l 2,6,7
 416 1050 416 1050 416 990 c 2,8,-1
 416 487 l 2,9,10
 416 447 416 447 412 407 c 25,11,-1
 416 407 l 17,12,-1
 710 985 l 6,13,14
 743 1050 743 1050 815 1050 c 6,15,-1
 1016 1050 l 6,16,17
 1076 1050 1076 1050 1076 990 c 6,18,-1
 1076 60 l 6,19,20
 1076 0 1076 0 1016 0 c 6,21,-1
 856 0 l 6,22,23
 796 0 796 0 796 60 c 6,24,-1
 796 563 l 6,25,26
 796 604 796 604 800 643 c 29,27,-1
 796 643 l 21,28,-1
 502 65 l 2,29,30
 469 0 469 0 397 0 c 2,31,-1
 187 0 l 2,0,1
EndSplineSet
EndChar

StartChar: afii10088
Encoding: 1094 1094 5
Width: 1240
Flags: W
HStem: -310 21G<985.5 1160.5> 0 200<416 762> 1030 20G<166 386 792 1012>
VStem: 136 280<200 1048.81> 762 280<200 1048.81> 958 230<-309.282 0>
LayerCount: 2
Fore
SplineSet
196 0 m 2,0,1
 136 0 136 0 136 60 c 2,2,-1
 136 990 l 2,3,4
 136 1050 136 1050 196 1050 c 2,5,-1
 356 1050 l 2,6,7
 416 1050 416 1050 416 990 c 2,8,-1
 416 200 l 1,9,-1
 762 200 l 1,10,-1
 762 990 l 2,11,12
 762 1050 762 1050 822 1050 c 2,13,-1
 982 1050 l 2,14,15
 1042 1050 1042 1050 1042 990 c 2,16,-1
 1042 200 l 1,17,-1
 1128 200 l 2,18,19
 1188 200 1188 200 1188 140 c 2,20,-1
 1188 -250 l 6,21,22
 1188 -310 1188 -310 1133 -310 c 6,23,-1
 1013 -310 l 6,24,25
 958 -310 958 -310 958 -250 c 6,26,-1
 958 0 l 1,27,-1
 196 0 l 2,0,1
EndSplineSet
EndChar

StartChar: afii10077
Encoding: 1083 1083 7
Width: 1194
Flags: W
HStem: -20 196<58.3821 252.445> 0 21G<808 1028> 850 200<572 778>
VStem: 342 230<287.315 850> 778 280<1.18652 850>
LayerCount: 2
Fore
SplineSet
63 -8 m 260,0,1
 32 5 32 5 38 33 c 6,2,-1
 63 158 l 6,3,4
 69 190 69 190 96 183 c 260,5,6
 124 176 124 176 146 176 c 260,7,8
 243 176 243 176 292.5 275.5 c 132,-1,9
 342 375 342 375 342 774 c 6,10,-1
 342 990 l 6,11,12
 342 1050 342 1050 402 1050 c 6,13,-1
 998 1050 l 6,14,15
 1058 1050 1058 1050 1058 990 c 6,16,-1
 1058 60 l 6,17,18
 1058 0 1058 0 998 0 c 6,19,-1
 838 0 l 6,20,21
 778 0 778 0 778 60 c 6,22,-1
 778 850 l 5,23,-1
 572 850 l 5,24,-1
 572 723 l 6,25,26
 572 321 572 321 490 150.5 c 132,-1,27
 408 -20 408 -20 168 -20 c 260,28,29
 92 -20 92 -20 63 -8 c 260,0,1
EndSplineSet
EndChar

StartChar: p
Encoding: 112 112 8
Width: 1192
Flags: W
HStem: -400 21G<166 386> -20 196<501.022 737.585> 874 196<501.022 737.585> 1030 20G<166 379>
VStem: 136 280<-398.813 118 276.788 773.212 932 1047.89> 816 296<265.705 784.295>
LayerCount: 2
Back
SplineSet
196 0 m 6,0,1
 136 0 136 0 136 60 c 6,2,-1
 136 990 l 6,3,4
 136 1050 136 1050 196 1050 c 6,5,-1
 354 1050 l 6,6,7
 414 1050 414 1050 414 990 c 6,8,-1
 414 929 l 5,9,-1
 418 929 l 5,10,11
 464 1008 464 1008 535 1039 c 132,-1,12
 606 1070 606 1070 706 1070 c 260,13,14
 862 1070 862 1070 964 972 c 132,-1,15
 1066 874 1066 874 1066 614 c 6,16,-1
 1066 60 l 6,17,18
 1066 0 1066 0 1006 0 c 6,19,-1
 846 0 l 6,20,21
 786 0 786 0 786 60 c 6,22,-1
 786 542 l 6,23,24
 786 760 786 760 756 817 c 132,-1,25
 726 874 726 874 627 874 c 260,26,27
 522 874 522 874 469 792.5 c 132,-1,28
 416 711 416 711 416 454 c 6,29,-1
 416 60 l 6,30,31
 416 0 416 0 356 0 c 6,32,-1
 196 0 l 6,0,1
EndSplineSet
Fore
SplineSet
196 -400 m 2,0,1
 136 -400 136 -400 136 -340 c 2,2,-1
 136 990 l 2,3,4
 136 1050 136 1050 196 1050 c 2,5,-1
 354 1050 l 2,6,7
 404 1050 404 1050 408 990 c 2,8,-1
 412 932 l 1,9,-1
 416 932 l 1,10,11
 468 1018 468 1018 532 1044 c 128,-1,12
 596 1070 596 1070 686 1070 c 256,13,14
 921 1070 921 1070 1016.5 907.5 c 128,-1,15
 1112 745 1112 745 1112 525 c 256,16,17
 1112 305 1112 305 1016.5 142.5 c 128,-1,18
 921 -20 921 -20 686 -20 c 256,19,20
 596 -20 596 -20 532 6 c 128,-1,21
 468 32 468 32 416 118 c 1,22,-1
 412 118 l 1,23,24
 416 78 416 78 416 38 c 2,25,-1
 416 -340 l 2,26,27
 416 -400 416 -400 356 -400 c 2,28,-1
 196 -400 l 2,0,1
416 480 m 2,29,30
 416 345 416 345 469.5 260.5 c 128,-1,31
 523 176 523 176 598 176 c 256,32,33
 733 176 733 176 774.5 270.5 c 128,-1,34
 816 365 816 365 816 525 c 256,35,36
 816 685 816 685 774.5 779.5 c 128,-1,37
 733 874 733 874 598 874 c 256,38,39
 523 874 523 874 469.5 789.5 c 128,-1,40
 416 705 416 705 416 570 c 2,41,-1
 416 480 l 2,29,30
EndSplineSet
EndChar

StartChar: afii10086
Encoding: 1092 1092 12
Width: 1738
Flags: W
HStem: -400 21G<759 979> -20 196<447.687 648.697 1089.3 1290.31> 874 196<447.687 648.697 1089.3 1290.31> 1456 20G<759 979>
VStem: 80 296<261.877 788.123> 729 280<-398.813 113 275.045 774.955 937 1474.81> 1362 296<261.877 788.123>
CounterMasks: 1 0e
LayerCount: 2
Fore
SplineSet
80 525 m 256,0,1
 80 760 80 760 188 915 c 128,-1,2
 296 1070 296 1070 496 1070 c 256,3,4
 569 1070 569 1070 623 1046.5 c 128,-1,5
 677 1023 677 1023 729 937 c 1,6,-1
 733 937 l 1,7,8
 729 977 729 977 729 1017 c 2,9,-1
 729 1416 l 2,10,11
 729 1476 729 1476 789 1476 c 2,12,-1
 949 1476 l 2,13,14
 1009 1476 1009 1476 1009 1416 c 2,15,-1
 1009 1017 l 2,16,17
 1009 977 1009 977 1005 937 c 1,18,-1
 1009 937 l 1,19,20
 1061 1023 1061 1023 1115 1046.5 c 128,-1,21
 1169 1070 1169 1070 1242 1070 c 256,22,23
 1442 1070 1442 1070 1550 915 c 128,-1,24
 1658 760 1658 760 1658 525 c 256,25,26
 1658 290 1658 290 1550 135 c 128,-1,27
 1442 -20 1442 -20 1242 -20 c 256,28,29
 1169 -20 1169 -20 1115 3.5 c 128,-1,30
 1061 27 1061 27 1009 113 c 1,31,-1
 1005 113 l 1,32,33
 1009 73 1009 73 1009 33 c 6,34,-1
 1009 -340 l 6,35,36
 1009 -400 1009 -400 949 -400 c 6,37,-1
 789 -400 l 6,38,39
 729 -400 729 -400 729 -340 c 6,40,-1
 729 33 l 6,41,42
 729 73 729 73 733 113 c 1,43,-1
 729 113 l 1,44,45
 677 27 677 27 623 3.5 c 128,-1,46
 569 -20 569 -20 496 -20 c 256,47,48
 296 -20 296 -20 188 135 c 128,-1,49
 80 290 80 290 80 525 c 256,0,1
376 525 m 256,50,51
 376 370 376 370 415.5 273 c 128,-1,52
 455 176 455 176 555 176 c 256,53,54
 632 176 632 176 680.5 266.5 c 128,-1,55
 729 357 729 357 729 475 c 2,56,-1
 729 575 l 2,57,58
 729 693 729 693 680.5 783.5 c 128,-1,59
 632 874 632 874 555 874 c 256,60,61
 455 874 455 874 415.5 777 c 128,-1,62
 376 680 376 680 376 525 c 256,50,51
1009 475 m 2,63,64
 1009 357 1009 357 1057.5 266.5 c 128,-1,65
 1106 176 1106 176 1183 176 c 256,66,67
 1283 176 1283 176 1322.5 273 c 128,-1,68
 1362 370 1362 370 1362 525 c 256,69,70
 1362 680 1362 680 1322.5 777 c 128,-1,71
 1283 874 1283 874 1183 874 c 256,72,73
 1106 874 1106 874 1057.5 783.5 c 128,-1,74
 1009 693 1009 693 1009 575 c 2,75,-1
 1009 475 l 2,63,64
EndSplineSet
EndChar

StartChar: afii10094
Encoding: 1100 1100 13
Width: 1062
Flags: W
HStem: 0 196<416 649.06> 452 196<416 649.06> 1030 20G<166 386>
VStem: 136 280<196 452 648 1048.81> 696 296<226.695 421.305>
LayerCount: 2
Back
SplineSet
196 0 m 2,0,1
 136 0 136 0 136 60 c 2,2,-1
 136 990 l 2,3,4
 136 1050 136 1050 196 1050 c 2,5,-1
 356 1050 l 2,6,7
 416 1050 416 1050 416 990 c 2,8,-1
 416 648 l 1,9,-1
 776 648 l 1,10,-1
 776 990 l 2,11,12
 776 1050 776 1050 836 1050 c 2,13,-1
 996 1050 l 2,14,15
 1056 1050 1056 1050 1056 990 c 2,16,-1
 1056 60 l 2,17,18
 1056 0 1056 0 996 0 c 2,19,-1
 836 0 l 2,20,21
 776 0 776 0 776 60 c 2,22,-1
 776 448 l 1,23,-1
 416 448 l 1,24,-1
 416 60 l 2,25,26
 416 0 416 0 356 0 c 2,27,-1
 196 0 l 2,0,1
187 0 m 2,0,1
 142 0 142 0 142 45 c 2,2,-1
 142 1005 l 2,3,4
 142 1050 142 1050 187 1050 c 2,5,-1
 273 1050 l 2,6,7
 318 1050 318 1050 318 1005 c 2,8,-1
 318 618 l 1,9,-1
 540 618 l 2,10,11
 770 618 770 618 856 533.5 c 128,-1,12
 942 449 942 449 942 309 c 256,13,14
 942 169 942 169 856 84.5 c 128,-1,15
 770 0 770 0 540 0 c 2,16,-1
 187 0 l 2,0,1
318 131 m 1,17,-1
 494 131 l 2,18,19
 634 131 634 131 695 165 c 128,-1,20
 756 199 756 199 756 309 c 256,21,22
 756 419 756 419 695 453.5 c 128,-1,23
 634 488 634 488 494 488 c 2,24,-1
 318 488 l 1,25,-1
 318 131 l 1,17,-1
EndSplineSet
Fore
SplineSet
196 0 m 2,0,1
 136 0 136 0 136 60 c 2,2,-1
 136 990 l 2,3,4
 136 1050 136 1050 196 1050 c 2,5,-1
 356 1050 l 2,6,7
 416 1050 416 1050 416 990 c 2,8,-1
 416 648 l 1,9,-1
 603 648 l 2,10,11
 843 648 843 648 917.5 551 c 128,-1,12
 992 454 992 454 992 324 c 256,13,14
 992 194 992 194 917.5 97 c 128,-1,15
 843 0 843 0 603 0 c 2,16,-1
 196 0 l 2,0,1
416 196 m 1,17,-1
 485 196 l 2,18,19
 605 196 605 196 650.5 225 c 128,-1,20
 696 254 696 254 696 324 c 256,21,22
 696 394 696 394 650.5 423 c 128,-1,23
 605 452 605 452 485 452 c 2,24,-1
 416 452 l 1,25,-1
 416 196 l 1,17,-1
EndSplineSet
EndChar

StartChar: x
Encoding: 120 120 14
Width: 1086
Flags: W
HStem: 0 21G<49 303 783 1037.5> 366 374<356 730> 1030 20G<88 342.5 743.5 998.5>
LayerCount: 2
Back
SplineSet
326 0 m 25,0,-1
 1041 1050 l 1049,1,-1
6 0 m 25,2,-1
 721 1050 l 1049,3,-1
365 1050 m 25,4,-1
 1080 0 l 1049,5,-1
45 1050 m 25,6,-1
 760 0 l 1049,7,-1
EndSplineSet
Fore
SplineSet
92 0 m 2,0,1
 6 0 6 0 56 73 c 2,2,-1
 387 553 l 1,3,-1
 95 977 l 2,4,5
 45 1050 45 1050 131 1050 c 2,6,-1
 320 1050 l 2,7,8
 365 1050 365 1050 388 1010 c 2,9,-1
 543 740 l 1,10,-1
 698 1010 l 2,11,12
 721 1050 721 1050 766 1050 c 2,13,-1
 955 1050 l 2,14,15
 1042 1050 1042 1050 991 977 c 2,16,-1
 697 553 l 1,17,-1
 1030 73 l 2,18,19
 1081 0 1081 0 994 0 c 2,20,-1
 805 0 l 2,21,22
 761 0 761 0 737 40 c 2,23,-1
 543 366 l 1,24,-1
 349 40 l 2,25,26
 325 0 325 0 281 0 c 2,27,-1
 92 0 l 2,0,1
EndSplineSet
EndChar

StartChar: c
Encoding: 99 99 15
Width: 1086
Flags: W
HStem: -20 196<466.724 741.627> 874 196<466.724 740.406>
VStem: 80 296<276.602 773.398>
LayerCount: 2
Back
SplineSet
80 525 m 256,0,1
 80 780 80 780 211.5 925 c 128,-1,2
 343 1070 343 1070 603 1070 c 256,3,4
 863 1070 863 1070 994.5 925 c 128,-1,5
 1126 780 1126 780 1126 525 c 256,6,7
 1126 270 1126 270 994.5 125 c 128,-1,8
 863 -20 863 -20 603 -20 c 256,9,10
 343 -20 343 -20 211.5 125 c 128,-1,11
 80 270 80 270 80 525 c 256,0,1
376 525 m 256,12,13
 376 335 376 335 434.5 255.5 c 128,-1,14
 493 176 493 176 603 176 c 256,15,16
 713 176 713 176 771.5 255.5 c 128,-1,17
 830 335 830 335 830 525 c 256,18,19
 830 715 830 715 771.5 794.5 c 128,-1,20
 713 874 713 874 603 874 c 256,21,22
 493 874 493 874 434.5 794.5 c 128,-1,23
 376 715 376 715 376 525 c 256,12,13
EndSplineSet
Fore
SplineSet
80 525 m 256,0,1
 80 780 80 780 208 925 c 128,-1,2
 336 1070 336 1070 601 1070 c 256,3,4
 756 1070 756 1070 842 1029 c 128,-1,5
 928 988 928 988 980 909 c 256,6,7
 1011 862 1011 862 970 835 c 282,8,-1
 864 765 l 274,9,10
 819 735 819 735 785 788 c 256,11,12
 768 814 768 814 720 844 c 128,-1,13
 672 874 672 874 601 874 c 256,14,15
 488 874 488 874 432 794.5 c 128,-1,16
 376 715 376 715 376 525 c 256,17,18
 376 335 376 335 432 255.5 c 128,-1,19
 488 176 488 176 601 176 c 256,20,21
 682 176 682 176 732 210 c 128,-1,22
 782 244 782 244 826 298 c 256,23,24
 864 344 864 344 906 311 c 266,25,-1
 999 238 l 282,26,27
 1041 205 1041 205 1004 150 c 256,28,29
 965 92 965 92 871.5 36 c 128,-1,30
 778 -20 778 -20 601 -20 c 256,31,32
 336 -20 336 -20 208 125 c 128,-1,33
 80 270 80 270 80 525 c 256,0,1
EndSplineSet
EndChar

StartChar: afii10068
Encoding: 1075 1075 16
Width: 916
Flags: W
HStem: 0 21G<166 386> 850 200<416 885.766>
VStem: 136 280<1.18652 850>
LayerCount: 2
Back
SplineSet
196 0 m 6,0,1
 136 0 136 0 136 60 c 6,2,-1
 136 990 l 6,3,4
 136 1050 136 1050 196 1050 c 6,5,-1
 356 1050 l 6,6,7
 416 1050 416 1050 416 990 c 6,8,-1
 416 648 l 5,9,-1
 776 648 l 5,10,-1
 776 990 l 6,11,12
 776 1050 776 1050 836 1050 c 6,13,-1
 996 1050 l 6,14,15
 1056 1050 1056 1050 1056 990 c 6,16,-1
 1056 60 l 6,17,18
 1056 0 1056 0 996 0 c 6,19,-1
 836 0 l 6,20,21
 776 0 776 0 776 60 c 6,22,-1
 776 448 l 5,23,-1
 416 448 l 5,24,-1
 416 60 l 6,25,26
 416 0 416 0 356 0 c 6,27,-1
 196 0 l 6,0,1
EndSplineSet
Fore
SplineSet
196 0 m 6,0,1
 136 0 136 0 136 60 c 6,2,-1
 136 990 l 6,3,4
 136 1050 136 1050 196 1050 c 6,5,-1
 826 1050 l 6,6,7
 886 1050 886 1050 886 1000 c 6,8,-1
 886 900 l 6,9,10
 886 850 886 850 826 850 c 6,11,-1
 416 850 l 5,12,-1
 416 60 l 6,13,14
 416 0 416 0 356 0 c 6,15,-1
 196 0 l 6,0,1
EndSplineSet
EndChar

StartChar: afii10084
Encoding: 1090 1090 17
Width: 1016
Flags: W
HStem: 0 21G<398 618> 850 200<30.2344 368 648 985.766>
VStem: 368 280<1.18652 850>
LayerCount: 2
Fore
SplineSet
90 850 m 2,0,1
 30 850 30 850 30 900 c 2,2,-1
 30 1000 l 2,3,4
 30 1050 30 1050 90 1050 c 2,5,-1
 926 1050 l 2,6,7
 986 1050 986 1050 986 1000 c 2,8,-1
 986 900 l 2,9,10
 986 850 986 850 926 850 c 2,11,-1
 648 850 l 1,12,-1
 648 60 l 2,13,14
 648 0 648 0 588 0 c 2,15,-1
 428 0 l 2,16,17
 368 0 368 0 368 60 c 2,18,-1
 368 850 l 1,19,-1
 90 850 l 2,0,1
EndSplineSet
EndChar

StartChar: n
Encoding: 110 110 18
Width: 1200
Flags: W
HStem: 0 21G<166 386 816 1036> 874 196<509.317 745.789> 1030 20G<166 384>
VStem: 136 280<1.18652 778.694 929 1048.54> 786 280<1.18652 833.5>
LayerCount: 2
Fore
SplineSet
196 0 m 2,0,1
 136 0 136 0 136 60 c 2,2,-1
 136 990 l 2,3,4
 136 1050 136 1050 196 1050 c 2,5,-1
 354 1050 l 2,6,7
 414 1050 414 1050 414 990 c 2,8,-1
 414 932 l 1,9,-1
 418 932 l 1,10,11
 464 1011 464 1011 535 1040.5 c 128,-1,12
 606 1070 606 1070 706 1070 c 256,13,14
 862 1070 862 1070 964 972 c 128,-1,15
 1066 874 1066 874 1066 614 c 2,16,-1
 1066 60 l 2,17,18
 1066 0 1066 0 1006 0 c 2,19,-1
 846 0 l 2,20,21
 786 0 786 0 786 60 c 2,22,-1
 786 542 l 2,23,24
 786 760 786 760 756 817 c 128,-1,25
 726 874 726 874 627 874 c 256,26,27
 522 874 522 874 469 792.5 c 128,-1,28
 416 711 416 711 416 454 c 2,29,-1
 416 60 l 2,30,31
 416 0 416 0 356 0 c 2,32,-1
 196 0 l 2,0,1
EndSplineSet
EndChar

StartChar: afii10090
Encoding: 1096 1096 19
Width: 1774
Flags: W
HStem: 0 200<416 750 1030 1358> 1030 20G<166 386 780 1000 1388 1608>
VStem: 136 280<200 1048.81> 750 280<200 1048.81> 1358 280<200 1048.81>
LayerCount: 2
Back
SplineSet
187 0 m 2,0,1
 142 0 142 0 142 45 c 2,2,-1
 142 1005 l 2,3,4
 142 1050 142 1050 187 1050 c 2,5,-1
 273 1050 l 2,6,7
 318 1050 318 1050 318 1005 c 2,8,-1
 318 132 l 5,9,-1
 748 132 l 5,10,-1
 748 1005 l 2,11,12
 748 1050 748 1050 793 1050 c 2,13,-1
 879 1050 l 2,14,15
 924 1050 924 1050 924 1005 c 2,16,-1
 924 132 l 5,17,-1
 1354 132 l 5,18,-1
 1354 1005 l 2,19,20
 1354 1050 1354 1050 1399 1050 c 2,21,-1
 1485 1050 l 2,22,23
 1530 1050 1530 1050 1530 1005 c 2,24,-1
 1530 45 l 2,25,26
 1530 0 1530 0 1485 0 c 2,27,-1
 187 0 l 2,0,1
EndSplineSet
Fore
SplineSet
196 0 m 2,0,1
 136 0 136 0 136 60 c 2,2,-1
 136 990 l 2,3,4
 136 1050 136 1050 196 1050 c 2,5,-1
 356 1050 l 2,6,7
 416 1050 416 1050 416 990 c 2,8,-1
 416 200 l 1,9,-1
 750 200 l 1,10,-1
 750 990 l 2,11,12
 750 1050 750 1050 810 1050 c 2,13,-1
 970 1050 l 2,14,15
 1030 1050 1030 1050 1030 990 c 2,16,-1
 1030 200 l 1,17,-1
 1358 200 l 1,18,-1
 1358 990 l 2,19,20
 1358 1050 1358 1050 1418 1050 c 2,21,-1
 1578 1050 l 2,22,23
 1638 1050 1638 1050 1638 990 c 2,24,-1
 1638 60 l 2,25,26
 1638 0 1638 0 1578 0 c 2,27,-1
 196 0 l 2,0,1
EndSplineSet
EndChar

StartChar: afii10091
Encoding: 1097 1097 20
Width: 1836
Flags: W
HStem: -310 21G<1581.5 1756.5> 0 200<416 750 1030 1358> 1030 20G<166 386 780 1000 1388 1608>
VStem: 136 280<200 1048.81> 750 280<200 1048.81> 1358 280<200 1048.81> 1554 230<-309.282 0>
LayerCount: 2
Fore
SplineSet
196 0 m 2,0,1
 136 0 136 0 136 60 c 2,2,-1
 136 990 l 2,3,4
 136 1050 136 1050 196 1050 c 2,5,-1
 356 1050 l 2,6,7
 416 1050 416 1050 416 990 c 2,8,-1
 416 200 l 1,9,-1
 750 200 l 1,10,-1
 750 990 l 2,11,12
 750 1050 750 1050 810 1050 c 2,13,-1
 970 1050 l 2,14,15
 1030 1050 1030 1050 1030 990 c 2,16,-1
 1030 200 l 1,17,-1
 1358 200 l 1,18,-1
 1358 990 l 2,19,20
 1358 1050 1358 1050 1418 1050 c 2,21,-1
 1578 1050 l 2,22,23
 1638 1050 1638 1050 1638 990 c 2,24,-1
 1638 200 l 1,25,-1
 1724 200 l 2,26,27
 1784 200 1784 200 1784 140 c 2,28,-1
 1784 -250 l 2,29,30
 1784 -310 1784 -310 1729 -310 c 2,31,-1
 1609 -310 l 2,32,33
 1554 -310 1554 -310 1554 -250 c 2,34,-1
 1554 0 l 1,35,-1
 196 0 l 2,0,1
EndSplineSet
EndChar

StartChar: afii10069
Encoding: 1076 1076 21
Width: 1222
Flags: W
HStem: -310 21G<69.5 244.5 967.5 1142.5> 0 200<419 744> 850 200<538 744>
VStem: 42 230<-309.282 0> 308 230<388.084 850> 744 280<200 850> 940 230<-309.282 0>
LayerCount: 2
Fore
SplineSet
97 -310 m 2,0,1
 42 -310 42 -310 42 -250 c 2,2,-1
 42 140 l 2,3,4
 42 200 42 200 102 200 c 2,5,-1
 133 200 l 17,6,7
 229 258 229 258 268.5 405 c 128,-1,8
 308 552 308 552 308 774 c 2,9,-1
 308 990 l 2,10,11
 308 1050 308 1050 368 1050 c 2,12,-1
 964 1050 l 2,13,14
 1024 1050 1024 1050 1024 990 c 2,15,-1
 1024 200 l 1,16,-1
 1110 200 l 2,17,18
 1170 200 1170 200 1170 140 c 2,19,-1
 1170 -250 l 2,20,21
 1170 -310 1170 -310 1115 -310 c 2,22,-1
 995 -310 l 2,23,24
 940 -310 940 -310 940 -250 c 2,25,-1
 940 0 l 1,26,-1
 272 0 l 1,27,-1
 272 -250 l 2,28,29
 272 -310 272 -310 217 -310 c 2,30,-1
 97 -310 l 2,0,1
419 200 m 1,31,-1
 744 200 l 1,32,-1
 744 850 l 1,33,-1
 538 850 l 1,34,-1
 538 723 l 2,35,36
 538 492 538 492 503.5 363 c 128,-1,37
 469 234 469 234 419 200 c 1,31,-1
EndSplineSet
EndChar

StartChar: afii10089
Encoding: 1095 1095 23
Width: 1130
Flags: W
HStem: 380 196<404.216 544 568 686.635>
VStem: 100 280<600.839 736 990 1048.81> 714 280<1.18652 60 356 436 601.105 646 990 1048.81>
LayerCount: 2
Back
SplineSet
195 1041 m 2,0,-1
 217 1040 l 1,1,-1
 258 1040 l 2,2,3
 288 1040 288 1040 300.5 1031 c 128,-1,4
 313 1022 313 1022 313 991 c 2,5,-1
 313 727 l 2,6,7
 313 687 313 687 317.5 662.5 c 128,-1,8
 322 638 322 638 336 614 c 128,-1,9
 350 590 350 590 381.5 578.5 c 128,-1,10
 413 567 413 567 463 567 c 2,11,-1
 774 567 l 1,12,-1
 774 991 l 2,13,14
 774 992 774 992 775.5 1000.5 c 128,-1,15
 777 1009 777 1009 779 1014 c 128,-1,16
 781 1019 781 1019 785 1026.5 c 0,17,18
 792.733 1041 792.733 1041 819 1041 c 2,19,-1
 844 1040 l 1,20,-1
 893 1040 l 2,21,22
 927 1040 927 1040 936.5 1026 c 128,-1,23
 946 1012 946 1012 946 975 c 2,24,-1
 946 51 l 1,25,26
 941 20 941 20 933 11 c 0,27,28
 922 0 922 0 901 0 c 2,29,-1
 848 0 l 2,30,31
 799 0 799 0 786.5 11.5 c 128,-1,32
 774 23 774 23 774 74 c 2,33,-1
 774 432 l 1,34,-1
 467 432 l 2,35,36
 418 432 418 432 395 434 c 0,37,38
 292 451 292 451 217.5 523.5 c 128,-1,39
 143 596 143 596 143 715 c 2,40,-1
 143 987 l 2,41,42
 143 1040 143 1040 184 1040 c 1,43,44
 188 1041 188 1041 195 1041 c 2,0,-1
EndSplineSet
Fore
SplineSet
100 736 m 2,0,-1
 100 990 l 2,1,2
 100 1050 100 1050 160 1050 c 2,3,-1
 320 1050 l 2,4,5
 380 1050 380 1050 380 990 c 2,6,-1
 380 724 l 2,7,8
 380 628 380 628 422 602 c 128,-1,9
 464 576 464 576 544 576 c 256,10,11
 586 576 586 576 631 585 c 128,-1,12
 676 594 676 594 714 646 c 9,13,-1
 714 990 l 2,14,15
 714 1050 714 1050 774 1050 c 2,16,-1
 934 1050 l 2,17,18
 994 1050 994 1050 994 990 c 2,19,-1
 994 60 l 2,20,21
 994 0 994 0 934 0 c 2,22,-1
 774 0 l 2,23,24
 714 0 714 0 714 60 c 2,25,-1
 714 356 l 2,26,27
 714 396 714 396 718 436 c 1,28,-1
 712 436 l 1,29,30
 652 406 652 406 568 393 c 128,-1,31
 484 380 484 380 432 380 c 256,32,33
 250 380 250 380 175 479 c 128,-1,34
 100 578 100 578 100 736 c 2,0,-1
EndSplineSet
EndChar

StartChar: a
Encoding: 97 97 24
Width: 1123
Flags: W
HStem: -20 196<403.904 612.293> 0 21G<736 957> 473 193<496.056 707> 874 196<375.715 662.46>
VStem: 80 296<195.086 379.982> 707 280<1.18652 90 221.173 473 666 832.585>
LayerCount: 2
Back
SplineSet
80 280 m 256,0,1
 80 480 80 480 271 570 c 128,-1,2
 462 660 462 660 707 666 c 1,3,-1
 707 706 l 2,4,5
 707 798 707 798 661 836 c 128,-1,6
 615 874 615 874 533 874 c 256,7,8
 464 874 464 874 399 842 c 128,-1,9
 334 810 334 810 295 776 c 256,10,11
 249 736 249 736 219 772 c 258,12,-1
 136 874 l 258,13,14
 105 912 105 912 151 952 c 256,15,16
 204 999 204 999 304.5 1034.5 c 128,-1,17
 405 1070 405 1070 556 1070 c 256,18,19
 764 1070 764 1070 875.5 974 c 128,-1,20
 987 878 987 878 987 691 c 2,21,-1
 987 60 l 2,22,23
 987 0 987 0 927 0 c 2,24,-1
 763 0 l 2,25,26
 709 0 709 0 709 60 c 2,27,-1
 709 90 l 1,28,-1
 707 90 l 1,29,30
 648 33 648 33 565.5 6.5 c 128,-1,31
 483 -20 483 -20 414 -20 c 256,32,33
 250 -20 250 -20 165 60.5 c 128,-1,34
 80 141 80 141 80 280 c 256,0,1
376 286 m 256,35,36
 376 213 376 213 422 194.5 c 128,-1,37
 468 176 468 176 501 176 c 256,38,39
 552 176 552 176 600 190 c 128,-1,40
 648 204 648 204 707 256 c 9,41,-1
 707 473 l 1,42,43
 540 459 540 459 458 409.5 c 128,-1,44
 376 360 376 360 376 286 c 256,35,36
EndSplineSet
Fore
SplineSet
80 280 m 256,0,1
 80 480 80 480 271 570 c 128,-1,2
 462 660 462 660 707 666 c 1,3,-1
 707 706 l 2,4,5
 707 798 707 798 661 836 c 128,-1,6
 615 874 615 874 533 874 c 256,7,8
 475 874 475 874 430.5 857.5 c 128,-1,9
 386 841 386 841 353.317 819.674 c 128,-1,10
 320.634 798.347 320.634 798.347 295 776 c 256,11,12
 249 736 249 736 219 772 c 258,13,-1
 136 874 l 258,14,15
 105 912 105 912 151 952 c 256,16,17
 185.933 982.978 185.933 982.978 232.466 1005.99 c 128,-1,18
 279 1029 279 1029 356 1049.5 c 128,-1,19
 433 1070 433 1070 556 1070 c 256,20,21
 764 1070 764 1070 875.5 974 c 128,-1,22
 987 878 987 878 987 691 c 2,23,-1
 987 60 l 2,24,25
 987 0 987 0 927 0 c 2,26,-1
 763 0 l 2,27,28
 709 0 709 0 709 60 c 2,29,-1
 709 90 l 1,30,-1
 707 90 l 1,31,32
 648 33 648 33 565.5 6.5 c 128,-1,33
 483 -20 483 -20 414 -20 c 256,34,35
 250 -20 250 -20 165 60.5 c 128,-1,36
 80 141 80 141 80 280 c 256,0,1
376 286 m 256,37,38
 376 251.366 376 251.366 390.25 225.683 c 128,-1,39
 404.5 200 404.5 200 434 188 c 128,-1,40
 463.5 176 463.5 176 501 176 c 256,41,42
 552 176 552 176 600 190 c 128,-1,43
 648 204 648 204 707 256 c 9,44,-1
 707 473 l 1,45,46
 539 454 539 454 482 424 c 128,-1,47
 425 394 425 394 400.5 362 c 128,-1,48
 376 330 376 330 376 286 c 256,37,38
EndSplineSet
EndChar

StartChar: afii10067
Encoding: 1074 1074 26
Width: 1106
Flags: W
HStem: 0 196<416 669.06> 447 190<416 646.397> 854 196<416 683.207>
VStem: 136 280<196 447 637 854> 699 280<675.716 832.67> 716 296<226.289 409.626>
LayerCount: 2
Back
SplineSet
187 0 m 2,0,1
 142 0 142 0 142 45 c 2,2,-1
 142 1005 l 2,3,4
 142 1050 142 1050 187 1050 c 2,5,-1
 510 1050 l 2,6,7
 740 1050 740 1050 826 975.5 c 128,-1,8
 912 901 912 901 912 778 c 256,9,10
 912 701 912 701 886 647.5 c 128,-1,11
 860 594 860 594 769 552 c 1,12,-1
 769 551 l 1,13,14
 874 516 874 516 918 469 c 128,-1,15
 962 422 962 422 962 282 c 256,16,17
 962 164 962 164 875 82 c 128,-1,18
 788 0 788 0 560 0 c 2,19,-1
 187 0 l 2,0,1
318 131 m 1,20,-1
 514 131 l 2,21,22
 654 131 654 131 715 161.5 c 128,-1,23
 776 192 776 192 776 302 c 256,24,25
 776 402 776 402 706 438 c 128,-1,26
 636 474 636 474 514 474 c 2,27,-1
 318 474 l 1,28,-1
 318 131 l 1,20,-1
318 605 m 1,29,-1
 474 605 l 2,30,31
 594 605 594 605 665 639.5 c 128,-1,32
 736 674 736 674 736 762 c 256,33,34
 736 857 736 857 675 888.5 c 128,-1,35
 614 920 614 920 474 920 c 2,36,-1
 318 920 l 1,37,-1
 318 605 l 1,29,-1
EndSplineSet
Fore
SplineSet
196 0 m 2,0,1
 136 0 136 0 136 60 c 2,2,-1
 136 990 l 2,3,4
 136 1050 136 1050 196 1050 c 2,5,-1
 555 1050 l 258,6,7
 768 1050 768 1050 873.5 975 c 128,-1,8
 979 900 979 900 979 797 c 256,9,10
 979 687 979 687 922.5 631.5 c 128,-1,11
 866 576 866 576 799 553 c 1,12,-1
 799 550 l 1,13,14
 917 510 917 510 964.5 448.5 c 128,-1,15
 1012 387 1012 387 1012 296 c 256,16,17
 1012 165 1012 165 931.5 82.5 c 128,-1,18
 851 0 851 0 623 0 c 2,19,-1
 196 0 l 2,0,1
416 196 m 1,20,-1
 505 196 l 2,21,22
 625 196 625 196 670.5 225.5 c 128,-1,23
 716 255 716 255 716 312 c 256,24,25
 716 375 716 375 670.5 411 c 128,-1,26
 625 447 625 447 505 447 c 2,27,-1
 416 447 l 1,28,-1
 416 196 l 1,20,-1
416 637 m 1,29,-1
 510 637 l 2,30,31
 597 637 597 637 648 671 c 128,-1,32
 699 705 699 705 699 761 c 256,33,34
 699 825 699 825 636 839.5 c 128,-1,35
 573 854 573 854 515 854 c 258,36,-1
 416 854 l 1,37,-1
 416 637 l 1,29,-1
EndSplineSet
EndChar

StartChar: afii10092
Encoding: 1098 1098 27
Width: 1310
Flags: W
HStem: 0 196<664 897.06> 452 196<664 897.06> 850 200<47.2344 384>
VStem: 384 280<196 452 648 850> 944 296<226.695 421.305>
LayerCount: 2
Fore
SplineSet
107 850 m 2,0,1
 47 850 47 850 47 900 c 2,2,-1
 47 1000 l 2,3,4
 47 1050 47 1050 107 1050 c 2,5,-1
 604 1050 l 2,6,7
 664 1050 664 1050 664 990 c 2,8,-1
 664 648 l 1,9,-1
 851 648 l 2,10,11
 1091 648 1091 648 1165.5 551 c 128,-1,12
 1240 454 1240 454 1240 324 c 256,13,14
 1240 194 1240 194 1165.5 97 c 128,-1,15
 1091 0 1091 0 851 0 c 2,16,-1
 444 0 l 2,17,18
 384 0 384 0 384 60 c 2,19,-1
 384 850 l 17,20,-1
 107 850 l 2,0,1
664 196 m 1,21,-1
 733 196 l 2,22,23
 853 196 853 196 898.5 225 c 128,-1,24
 944 254 944 254 944 324 c 256,25,26
 944 394 944 394 898.5 423 c 128,-1,27
 853 452 853 452 733 452 c 2,28,-1
 664 452 l 1,29,-1
 664 196 l 1,21,-1
EndSplineSet
EndChar

StartChar: v
Encoding: 118 118 28
Width: 1008
Flags: W
HStem: 0 21G<379 629> 1030 20G<46 277.5 730.5 962>
LayerCount: 2
Back
SplineSet
45 1001 m 2,0,1
 28 1050 28 1050 72 1050 c 2,2,-1
 181 1050 l 2,3,4
 213 1050 213 1050 226 1011 c 2,5,-1
 438 351 l 2,6,7
 464 270 464 270 473.5 239.5 c 128,-1,8
 483 209 483 209 491 164 c 1,9,-1
 495 164 l 1,10,11
 503 209 503 209 512.5 239.5 c 128,-1,12
 522 270 522 270 548 351 c 2,13,-1
 760 1011 l 2,14,15
 773 1050 773 1050 805 1050 c 2,16,-1
 914 1050 l 2,17,18
 958 1050 958 1050 941 1001 c 2,19,-1
 613 61 l 2,20,21
 592 0 592 0 559 0 c 2,22,-1
 427 0 l 2,23,24
 394 0 394 0 373 61 c 2,25,-1
 45 1001 l 2,0,1
EndSplineSet
Fore
SplineSet
42 972 m 2,0,1
 17 1050 17 1050 75 1050 c 2,2,-1
 254 1050 l 2,3,4
 301 1050 301 1050 314 999 c 2,5,-1
 469 413 l 2,6,7
 482 364 482 364 490.5 316 c 128,-1,8
 499 268 499 268 501 238 c 1,9,-1
 507 238 l 1,10,11
 509 268 509 268 517.5 316 c 128,-1,12
 526 364 526 364 539 413 c 2,13,-1
 694 999 l 2,14,15
 707 1050 707 1050 754 1050 c 2,16,-1
 933 1050 l 2,17,18
 991 1050 991 1050 966 972 c 2,19,-1
 676 67 l 2,20,21
 655 0 655 0 603 0 c 2,22,-1
 405 0 l 2,23,24
 353 0 353 0 332 67 c 2,25,-1
 42 972 l 2,0,1
EndSplineSet
EndChar

StartChar: y
Encoding: 121 121 29
Width: 990
Flags: W
HStem: -420 196<81.3259 293.615> 1030 20G<47 279 729 960.5>
DStem2: 378 0 964 972 0.315385 0.948964<-231.138 0 690.513 1119.44>
LayerCount: 2
Back
SplineSet
44 972 m 2,0,1
 17 1050 17 1050 77 1050 c 2,2,-1
 256 1050 l 2,3,4
 302 1050 302 1050 316 999 c 2,5,-1
 467 440 l 2,6,7
 478 401 478 401 486.5 339.5 c 128,-1,8
 495 278 495 278 495 261 c 1,9,-1
 501 261 l 1,10,11
 513 314 513 314 518.5 345.5 c 128,-1,12
 524 377 524 377 549 468 c 2,13,-1
 692 999 l 2,14,15
 706 1050 706 1050 752 1050 c 2,16,-1
 931 1050 l 2,17,18
 990 1050 990 1050 964 972 c 2,19,-1
 627 -42 l 2,20,21
 568 -220 568 -220 482 -320 c 128,-1,22
 396 -420 396 -420 243 -420 c 256,23,24
 159 -420 159 -420 93 -406 c 256,25,26
 55 -398 55 -398 64 -354 c 2,27,-1
 86 -244 l 2,28,29
 95 -201 95 -201 137 -214 c 256,30,31
 168 -224 168 -224 195 -224 c 256,32,33
 276 -224 276 -224 321 -142 c 128,-1,34
 366 -60 366 -60 378 0 c 9,35,-1
 44 972 l 2,0,1
42 972 m 6,0,1
 17 1050 17 1050 75 1050 c 6,2,-1
 254 1050 l 6,3,4
 301 1050 301 1050 314 999 c 6,5,-1
 469 413 l 6,6,7
 482 364 482 364 490.5 316 c 132,-1,8
 499 268 499 268 501 238 c 5,9,-1
 507 238 l 5,10,11
 509 268 509 268 517.5 316 c 132,-1,12
 526 364 526 364 539 413 c 6,13,-1
 694 999 l 6,14,15
 707 1050 707 1050 754 1050 c 6,16,-1
 933 1050 l 6,17,18
 991 1050 991 1050 966 972 c 6,19,-1
 676 67 l 2,20,21
 655 0 655 0 603 0 c 2,22,-1
 405 0 l 2,23,24
 353 0 353 0 332 67 c 2,25,-1
 42 972 l 6,0,1
EndSplineSet
Fore
SplineSet
44 972 m 2,0,1
 17 1050 17 1050 77 1050 c 2,2,-1
 256 1050 l 2,3,4
 302 1050 302 1050 316 999 c 2,5,-1
 467 440 l 2,6,7
 478 401 478 401 486.5 339.5 c 128,-1,8
 495 278 495 278 495 261 c 1,9,-1
 501 261 l 1,10,11
 513 314 513 314 518.5 345.5 c 128,-1,12
 524 377 524 377 549 468 c 2,13,-1
 692 999 l 2,14,15
 706 1050 706 1050 752 1050 c 2,16,-1
 931 1050 l 2,17,18
 990 1050 990 1050 964 972 c 2,19,-1
 627 -42 l 2,20,21
 568 -220 568 -220 482 -320 c 128,-1,22
 396 -420 396 -420 243 -420 c 256,23,24
 159 -420 159 -420 93 -406 c 256,25,26
 55 -398 55 -398 64 -354 c 2,27,-1
 86 -244 l 2,28,29
 95 -201 95 -201 137 -214 c 256,30,31
 168 -224 168 -224 195 -224 c 256,32,33
 276 -224 276 -224 318.5 -147 c 128,-1,34
 361 -70 361 -70 375 -15 c 2,35,-1
 378 0 l 9,36,-1
 44 972 l 2,0,1
EndSplineSet
EndChar

StartChar: e
Encoding: 101 101 30
Width: 1174
Flags: W
HStem: -20 196<455.543 773.036> 428 200<377 812> 873 197<459.259 732.683>
VStem: 80 296<262.284 428 628 781.769> 812 280<628 785.662>
LayerCount: 2
Back
SplineSet
80 525 m 256,0,1
 80 780 80 780 208 925 c 128,-1,2
 336 1070 336 1070 601 1070 c 256,3,4
 756 1070 756 1070 842 1029 c 128,-1,5
 928 988 928 988 980 909 c 256,6,7
 1011 862 1011 862 970 835 c 282,8,-1
 864 765 l 274,9,10
 819 735 819 735 785 788 c 256,11,12
 768 814 768 814 720 844 c 128,-1,13
 672 874 672 874 601 874 c 256,14,15
 488 874 488 874 432 794.5 c 128,-1,16
 376 715 376 715 376 525 c 256,17,18
 376 335 376 335 432 255.5 c 128,-1,19
 488 176 488 176 601 176 c 256,20,21
 682 176 682 176 732 210 c 128,-1,22
 782 244 782 244 826 298 c 256,23,24
 864 344 864 344 906 311 c 266,25,-1
 999 238 l 282,26,27
 1041 205 1041 205 1004 150 c 256,28,29
 965 92 965 92 871.5 36 c 128,-1,30
 778 -20 778 -20 601 -20 c 256,31,32
 336 -20 336 -20 208 125 c 128,-1,33
 80 270 80 270 80 525 c 256,0,1
80 525 m 256,0,1
 80 780 80 780 211.5 925 c 128,-1,2
 343 1070 343 1070 603 1070 c 256,3,4
 863 1070 863 1070 994.5 925 c 128,-1,5
 1126 780 1126 780 1126 525 c 256,6,7
 1126 270 1126 270 994.5 125 c 128,-1,8
 863 -20 863 -20 603 -20 c 256,9,10
 343 -20 343 -20 211.5 125 c 128,-1,11
 80 270 80 270 80 525 c 256,0,1
376 525 m 256,12,13
 376 335 376 335 434.5 255.5 c 128,-1,14
 493 176 493 176 603 176 c 256,15,16
 713 176 713 176 771.5 255.5 c 128,-1,17
 830 335 830 335 830 525 c 256,18,19
 830 715 830 715 771.5 794.5 c 128,-1,20
 713 874 713 874 603 874 c 256,21,22
 493 874 493 874 434.5 794.5 c 128,-1,23
 376 715 376 715 376 525 c 256,12,13
EndSplineSet
Fore
SplineSet
80 525 m 256,0,1
 80 778 80 778 206.5 924 c 128,-1,2
 333 1070 333 1070 564 1070 c 256,3,4
 832 1070 832 1070 962 932 c 128,-1,5
 1092 794 1092 794 1092 488 c 0,6,7
 1092 428 1092 428 1036 428 c 2,8,-1
 376 428 l 1,9,10
 392 262 392 262 458 219 c 128,-1,11
 524 176 524 176 611 176 c 256,12,13
 694 176 694 176 738 198 c 128,-1,14
 782 220 782 220 812 258 c 256,15,16
 846 302 846 302 896 272 c 266,17,-1
 996 211 l 282,18,19
 1055 175 1055 175 1013 125 c 256,20,21
 952 52 952 52 870 16 c 128,-1,22
 788 -20 788 -20 611 -20 c 256,23,24
 324 -20 324 -20 202 126 c 128,-1,25
 80 272 80 272 80 525 c 256,0,1
377 628 m 1,26,-1
 812 628 l 1,27,28
 812 736 812 736 758 804.5 c 128,-1,29
 704 873 704 873 586 873 c 256,30,31
 492 873 492 873 437 807.5 c 128,-1,32
 382 742 382 742 377 628 c 1,26,-1
EndSplineSet
EndChar

StartChar: i
Encoding: 105 105 31
Width: 552
Flags: W
HStem: 0 21<166 386> 1030 20<166 386> 1204 248<137.187 414.813>
VStem: 136 280<1.18652 1048.81 1205.19 1450.81>
LayerCount: 2
Back
SplineSet
139 1335 m 2,0,-1
 139 1419 l 2,1,2
 144 1457 144 1457 187 1457 c 2,3,-1
 209 1456 l 1,4,-1
 272 1456 l 2,5,6
 293 1456 293 1456 303.5 1445 c 128,-1,7
 314 1434 314 1434 315.5 1425 c 128,-1,8
 317 1416 317 1416 317 1401 c 2,9,-1
 317 1352 l 2,10,11
 317 1303 317 1303 305.5 1290.5 c 128,-1,12
 294 1278 294 1278 248.5 1278 c 128,-1,13
 203 1278 203 1278 180 1280 c 0,14,15
 139 1280 139 1280 139 1335 c 2,0,-1
252 1040 m 1,16,-1
 269 1041 l 2,17,18
 283 1041 283 1041 292 1039 c 128,-1,19
 301 1037 301 1037 306 1029.5 c 128,-1,20
 311 1022 311 1022 312.5 1019.5 c 128,-1,21
 314 1017 314 1017 315.5 1004.5 c 128,-1,22
 317 992 317 992 317 991 c 2,23,-1
 317 58 l 2,24,25
 317 19 317 19 299 6 c 1,26,27
 298 6 298 6 289.5 2.5 c 128,-1,28
 281 -0.999984 281 -0.999984 266 -1 c 2,29,-1
 242 0 l 1,30,-1
 178 0 l 1,31,32
 141 6 141 6 141 49 c 2,33,-1
 139 84 l 1,34,-1
 139 982 l 2,35,36
 139 1020 139 1020 151.5 1030 c 128,-1,37
 164 1040 164 1040 195 1040 c 2,38,-1
 252 1040 l 1,16,-1
EndSplineSet
Fore
Refer: 0 305 N 1 0 0 1 0 0 3
Refer: 32 729 N 1 0 0 1 -31 0 2
EndChar

StartChar: dotaccent
Encoding: 729 729 32
Width: 614
Flags: W
HStem: 1204 248<168.187 445.813>
VStem: 167 280<1205.19 1450.81>
LayerCount: 2
Fore
SplineSet
227 1204 m 2,0,1
 167 1204 167 1204 167 1264 c 2,2,-1
 167 1392 l 2,3,4
 167 1452 167 1452 227 1452 c 2,5,-1
 387 1452 l 2,6,7
 447 1452 447 1452 447 1392 c 2,8,-1
 447 1264 l 2,9,10
 447 1204 447 1204 387 1204 c 2,11,-1
 227 1204 l 2,0,1
EndSplineSet
EndChar

StartChar: q
Encoding: 113 113 33
Width: 1192
Flags: W
HStem: -400 21<806 1026> -20 196<454.415 690.978> 874 196<454.415 690.978> 1030 20<813 1026>
VStem: 80 296<265.705 784.295> 776 280<-398.813 118 276.788 773.212 932 1047.89>
LayerCount: 2
Fore
SplineSet
80 525 m 256,0,1
 80 745 80 745 175.5 907.5 c 128,-1,2
 271 1070 271 1070 506 1070 c 256,3,4
 596 1070 596 1070 660 1044 c 128,-1,5
 724 1018 724 1018 776 932 c 1,6,-1
 780 932 l 1,7,-1
 784 990 l 2,8,9
 788 1050 788 1050 838 1050 c 2,10,-1
 996 1050 l 2,11,12
 1056 1050 1056 1050 1056 990 c 2,13,-1
 1056 -340 l 2,14,15
 1056 -400 1056 -400 996 -400 c 2,16,-1
 836 -400 l 2,17,18
 776 -400 776 -400 776 -340 c 2,19,-1
 776 38 l 2,20,21
 776 78 776 78 780 118 c 1,22,-1
 776 118 l 1,23,24
 724 32 724 32 660 6 c 128,-1,25
 596 -20 596 -20 506 -20 c 256,26,27
 271 -20 271 -20 175.5 142.5 c 128,-1,28
 80 305 80 305 80 525 c 256,0,1
376 525 m 256,29,30
 376 365 376 365 417.5 270.5 c 128,-1,31
 459 176 459 176 594 176 c 256,32,33
 669 176 669 176 722.5 260.5 c 128,-1,34
 776 345 776 345 776 480 c 2,35,-1
 776 570 l 2,36,37
 776 705 776 705 722.5 789.5 c 128,-1,38
 669 874 669 874 594 874 c 256,39,40
 459 874 459 874 417.5 779.5 c 128,-1,41
 376 685 376 685 376 525 c 256,29,30
EndSplineSet
EndChar

StartChar: cyrbreve
Encoding: 63188 63188 38
Width: 1212
Flags: MW
HStem: 1130 160<494.375 717.625> 1451 20G<250 414 798 962>
LayerCount: 2
Back
SplineSet
232 1405 m 2,0,1
 229 1450 229 1450 277 1450 c 2,2,-1
 353 1450 l 2,3,4
 393 1450 393 1450 398 1405 c 2,5,-1
 402 1371 l 2,6,7
 410 1304 410 1304 460 1287 c 128,-1,8
 510 1270 510 1270 585 1270 c 256,9,10
 660 1270 660 1270 710 1287 c 128,-1,11
 760 1304 760 1304 768 1371 c 2,12,-1
 772 1405 l 2,13,14
 777 1450 777 1450 817 1450 c 2,15,-1
 893 1450 l 2,16,17
 941 1450 941 1450 938 1405 c 2,18,-1
 934 1344 l 2,19,20
 927 1244 927 1244 818.5 1195 c 128,-1,21
 710 1146 710 1146 585 1146 c 260,22,23
 460 1146 460 1146 351.5 1195 c 128,-1,24
 243 1244 243 1244 236 1344 c 2,25,-1
 232 1405 l 2,0,1
EndSplineSet
Fore
SplineSet
223 1412 m 2,0,1
 217 1471 217 1471 283 1471 c 2,2,-1
 390 1471 l 2,3,4
 438 1471 438 1471 449 1417 c 2,5,-1
 454 1392 l 2,6,7
 467 1326 467 1326 509 1308 c 128,-1,8
 551 1290 551 1290 606 1290 c 256,9,10
 661 1290 661 1290 703 1308 c 128,-1,11
 745 1326 745 1326 758 1392 c 2,12,-1
 763 1417 l 2,13,14
 774 1471 774 1471 822 1471 c 2,15,-1
 929 1471 l 2,16,17
 995 1471 995 1471 989 1412 c 2,18,-1
 983 1354 l 2,19,20
 971 1238 971 1238 848 1184 c 128,-1,21
 725 1130 725 1130 606 1130 c 256,22,23
 487 1130 487 1130 364 1184 c 128,-1,24
 241 1238 241 1238 229 1354 c 2,25,-1
 223 1412 l 2,0,1
EndSplineSet
EndChar

StartChar: afii10076
Encoding: 1082 1082 39
Width: 1085
Flags: W
HStem: 0 21G<166 386 795 1030> 448 200<416 528.479> 1030 20G<166 386 779 1009>
VStem: 136 280<1.18652 448 648 1048.81>
DStem2: 1024 74 585 338 0.502065 -0.86483<-558.226 -32.054> 590 776 837 716 0.533503 0.845798<-116.433 351.087>
LayerCount: 2
Back
SplineSet
187 0 m 2,0,1
 142 0 142 0 142 45 c 2,2,-1
 142 1005 l 2,3,4
 142 1050 142 1050 187 1050 c 2,5,-1
 273 1050 l 2,6,7
 318 1050 318 1050 318 1005 c 2,8,-1
 318 614 l 1,9,-1
 359 614 l 2,10,11
 412 614 412 614 474 667 c 128,-1,12
 536 720 536 720 562 760 c 2,13,-1
 731 1024 l 2,14,15
 748 1050 748 1050 784 1050 c 2,16,-1
 875 1050 l 2,17,18
 942 1050 942 1050 901 991 c 2,19,-1
 698 700 l 2,20,21
 678 671 678 671 627.5 618 c 128,-1,22
 577 565 577 565 533 554 c 1,23,-1
 533 552 l 1,24,25
 590 533 590 533 630 502 c 128,-1,26
 670 471 670 471 724 384 c 2,27,-1
 924 59 l 2,28,29
 960 0 960 0 898 0 c 2,30,-1
 800 0 l 2,31,32
 765 0 765 0 743 37 c 2,33,-1
 556 358 l 2,34,35
 512 433 512 433 467 457.5 c 128,-1,36
 422 482 422 482 360 482 c 2,37,-1
 318 482 l 1,38,-1
 318 45 l 2,39,40
 318 0 318 0 273 0 c 2,41,-1
 187 0 l 2,0,1
196 0 m 6,0,1
 136 0 136 0 136 60 c 6,2,-1
 136 990 l 6,3,4
 136 1050 136 1050 196 1050 c 6,5,-1
 356 1050 l 6,6,7
 416 1050 416 1050 416 990 c 6,8,-1
 416 648 l 5,9,-1
 776 648 l 5,10,-1
 776 990 l 6,11,12
 776 1050 776 1050 836 1050 c 6,13,-1
 996 1050 l 6,14,15
 1056 1050 1056 1050 1056 990 c 6,16,-1
 1056 60 l 6,17,18
 1056 0 1056 0 996 0 c 6,19,-1
 836 0 l 6,20,21
 776 0 776 0 776 60 c 6,22,-1
 776 448 l 5,23,-1
 416 448 l 5,24,-1
 416 60 l 6,25,26
 416 0 416 0 356 0 c 6,27,-1
 196 0 l 6,0,1
EndSplineSet
Fore
SplineSet
196 0 m 2,0,1
 136 0 136 0 136 60 c 2,2,-1
 136 990 l 2,3,4
 136 1050 136 1050 196 1050 c 2,5,-1
 356 1050 l 2,6,7
 416 1050 416 1050 416 990 c 2,8,-1
 416 648 l 1,9,-1
 439 648 l 2,10,11
 488 648 488 648 525 688 c 128,-1,12
 562 728 562 728 590 776 c 2,13,-1
 728 1009 l 2,14,15
 752 1050 752 1050 806 1050 c 2,16,-1
 970 1050 l 2,17,18
 1048 1050 1048 1050 1001 976 c 2,19,-1
 837 716 l 2,20,21
 800 657 800 657 748.5 611.5 c 152,-1,22
 697 566 697 566 647 554 c 1,23,-1
 647 552 l 1,24,25
 721 536 721 536 759 500.5 c 128,-1,26
 797 465 797 465 851 372 c 2,27,-1
 1024 74 l 2,28,29
 1067 0 1067 0 993 0 c 2,30,-1
 822 0 l 2,31,32
 768 -0 768 -0 740 52 c 2,33,-1
 585 338 l 2,34,35
 566 373 566 373 526 410.5 c 128,-1,36
 486 448 486 448 440 448 c 2,37,-1
 416 448 l 1,38,-1
 416 60 l 2,39,40
 416 0 416 0 356 0 c 2,41,-1
 196 0 l 2,0,1
EndSplineSet
EndChar

StartChar: afii10072
Encoding: 1078 1078 40
Width: 1574
Flags: W
HStem: 0 21G<55.5 286.5 677 897 1287.5 1518.5> 448 200<542.919 647 927 1031.08> 1030 20G<75.5 301 677 897 1273 1498.5>
VStem: 647 280<1.18652 448 648 1048.81>
DStem2: 61 74 341 52 0.493307 0.869855<34.1611 553.676> 352 1009 83 976 0.524097 -0.851658<-75.7919 391.709> 1513 74 1082 338 0.493307 -0.869855<-553.676 -28.1566> 1088 776 1331 716 0.524097 0.851658<-123.043 348.394>
LayerCount: 2
Back
SplineSet
196 0 m 6,0,1
 136 0 136 0 136 60 c 6,2,-1
 136 990 l 6,3,4
 136 1050 136 1050 196 1050 c 6,5,-1
 356 1050 l 6,6,7
 416 1050 416 1050 416 990 c 6,8,-1
 416 648 l 5,9,-1
 439 648 l 6,10,11
 488 648 488 648 525 688 c 132,-1,12
 562 728 562 728 590 776 c 6,13,-1
 728 1009 l 6,14,15
 752 1050 752 1050 806 1050 c 6,16,-1
 970 1050 l 6,17,18
 1048 1050 1048 1050 1001 976 c 6,19,-1
 837 716 l 6,20,21
 800 657 800 657 748.5 611.5 c 156,-1,22
 697 566 697 566 647 554 c 5,23,-1
 647 552 l 5,24,25
 721 536 721 536 759 500.5 c 132,-1,26
 797 465 797 465 851 372 c 6,27,-1
 1024 74 l 6,28,29
 1067 0 1067 0 993 0 c 6,30,-1
 822 0 l 6,31,32
 768 -0 768 -0 740 52 c 6,33,-1
 585 338 l 6,34,35
 566 373 566 373 526 410.5 c 132,-1,36
 486 448 486 448 440 448 c 6,37,-1
 416 448 l 5,38,-1
 416 60 l 6,39,40
 416 0 416 0 356 0 c 6,41,-1
 196 0 l 6,0,1
EndSplineSet
Fore
SplineSet
92 0 m 2,0,1
 19 0 19 0 61 74 c 2,2,-1
 230 372 l 2,3,4
 281 462 281 462 319 499 c 128,-1,5
 357 536 357 536 431 552 c 1,6,-1
 431 554 l 1,7,8
 367 570 367 570 324 612 c 128,-1,9
 281 654 281 654 243 716 c 2,10,-1
 83 976 l 2,11,12
 37 1050 37 1050 114 1050 c 2,13,-1
 274 1050 l 2,14,15
 328 1050 328 1050 352 1009 c 2,16,-1
 486 776 l 2,17,18
 513 729 513 729 546 688.5 c 128,-1,19
 579 648 579 648 631 648 c 2,20,-1
 647 648 l 1,21,-1
 647 990 l 2,22,23
 647 1050 647 1050 707 1050 c 2,24,-1
 867 1050 l 2,25,26
 927 1050 927 1050 927 990 c 2,27,-1
 927 648 l 1,28,-1
 943 648 l 2,29,30
 995 648 995 648 1028 688.5 c 128,-1,31
 1061 729 1061 729 1088 776 c 2,32,-1
 1222 1009 l 2,33,34
 1246 1050 1246 1050 1300 1050 c 2,35,-1
 1460 1050 l 2,36,37
 1537 1050 1537 1050 1491 976 c 2,38,-1
 1331 716 l 2,39,40
 1293 654 1293 654 1250 612 c 128,-1,41
 1207 570 1207 570 1143 554 c 1,42,-1
 1143 552 l 1,43,44
 1217 536 1217 536 1255 499 c 128,-1,45
 1293 462 1293 462 1344 372 c 2,46,-1
 1513 74 l 2,47,48
 1555 0 1555 0 1482 0 c 2,49,-1
 1315 0 l 2,50,51
 1260 0 1260 0 1233 52 c 2,52,-1
 1082 338 l 2,53,54
 1064 372 1064 372 1032.5 410 c 128,-1,55
 1001 448 1001 448 944 448 c 2,56,-1
 927 448 l 1,57,-1
 927 60 l 2,58,59
 927 0 927 0 867 0 c 2,60,-1
 707 0 l 2,61,62
 647 0 647 0 647 60 c 2,63,-1
 647 448 l 1,64,-1
 630 448 l 2,65,66
 573 448 573 448 541.5 410 c 128,-1,67
 510 372 510 372 492 338 c 2,68,-1
 341 52 l 2,69,70
 314 0 314 0 259 0 c 2,71,-1
 92 0 l 2,0,1
EndSplineSet
EndChar

StartChar: afii10097
Encoding: 1103 1103 41
Width: 1148
Flags: W
HStem: 0 21G<83 318.5 762 982> 402 196<551.337 732> 854 196<455.394 732>
VStem: 114 296<632.651 822.9> 732 280<1.18652 402 598 854>
DStem2: 90 74 374 52 0.522154 0.852851<42.3696 466.954>
LayerCount: 2
Back
SplineSet
121 0 m 2,0,1
 51 0 51 0 95 59 c 2,2,-1
 284 314 l 2,3,4
 311 350 311 350 361.5 395.5 c 128,-1,5
 412 441 412 441 450 460 c 1,6,-1
 450 462 l 1,7,8
 276 498 276 498 212 568 c 128,-1,9
 148 638 148 638 148 761 c 256,10,11
 148 901 148 901 234 975.5 c 128,-1,12
 320 1050 320 1050 550 1050 c 2,13,-1
 897 1050 l 2,14,15
 942 1050 942 1050 942 1005 c 2,16,-1
 942 45 l 2,17,18
 942 0 942 0 897 0 c 2,19,-1
 811 0 l 2,20,21
 766 0 766 0 766 45 c 2,22,-1
 766 432 l 1,23,-1
 672 432 l 2,24,25
 604 432 604 432 561 398.5 c 128,-1,26
 518 365 518 365 464 288 c 2,27,-1
 288 37 l 2,28,29
 262 0 262 0 231 0 c 2,30,-1
 121 0 l 2,0,1
334 761 m 256,31,32
 334 640 334 640 411.5 601 c 128,-1,33
 489 562 489 562 595 562 c 2,34,-1
 766 562 l 1,35,-1
 766 919 l 1,36,-1
 596 919 l 2,37,38
 458 919 458 919 396 885.5 c 128,-1,39
 334 852 334 852 334 761 c 256,31,32
EndSplineSet
Fore
SplineSet
121 0 m 2,0,1
 45 0 45 0 90 74 c 2,2,-1
 240 319 l 2,3,4
 280 384 280 384 310 407 c 144,-1,5
 340 430 340 430 390 460 c 1,6,-1
 390 462 l 1,7,8
 278 486 278 486 196 556.5 c 128,-1,9
 114 627 114 627 114 746 c 256,10,11
 114 867 114 867 195 958.5 c 128,-1,12
 276 1050 276 1050 503 1050 c 2,13,-1
 952 1050 l 2,14,15
 1012 1050 1012 1050 1012 990 c 2,16,-1
 1012 60 l 2,17,18
 1012 0 1012 0 952 0 c 2,19,-1
 792 0 l 2,20,21
 732 0 732 0 732 60 c 2,22,-1
 732 402 l 1,23,-1
 643 402 l 2,24,25
 597 402 597 402 571 379 c 128,-1,26
 545 356 545 356 510 294 c 2,27,-1
 374 52 l 2,28,29
 345 0 345 0 292 0 c 2,30,-1
 121 0 l 2,0,1
410 731 m 256,31,32
 410 646 410 646 475 622 c 128,-1,33
 540 598 540 598 640 598 c 2,34,-1
 732 598 l 1,35,-1
 732 854 l 1,36,-1
 621 854 l 2,37,38
 498 854 498 854 454 824.5 c 128,-1,39
 410 795 410 795 410 731 c 256,31,32
EndSplineSet
EndChar

StartChar: afii10096
Encoding: 1102 1102 42
Width: 1698
Flags: W
HStem: -20 196<959.317 1231.06> 0 21G<166 386> 448 200<416 580.561> 874 196<959.377 1231.06> 1030 20G<166 386>
VStem: 136 280<1.18652 448 648 1048.81> 576 292<279.105 448 648 769.824> 1322 296<278.047 771.953>
LayerCount: 2
Back
SplineSet
572 525 m 260,0,1
 572 780 572 780 703.5 925 c 132,-1,2
 835 1070 835 1070 1095 1070 c 260,3,4
 1355 1070 1355 1070 1486.5 925 c 132,-1,5
 1618 780 1618 780 1618 525 c 260,6,7
 1618 270 1618 270 1486.5 125 c 132,-1,8
 1355 -20 1355 -20 1095 -20 c 260,9,10
 835 -20 835 -20 703.5 125 c 132,-1,11
 572 270 572 270 572 525 c 260,0,1
868 525 m 260,12,13
 868 335 868 335 926.5 255.5 c 132,-1,14
 985 176 985 176 1095 176 c 260,15,16
 1205 176 1205 176 1263.5 255.5 c 132,-1,17
 1322 335 1322 335 1322 525 c 260,18,19
 1322 715 1322 715 1263.5 794.5 c 132,-1,20
 1205 874 1205 874 1095 874 c 260,21,22
 985 874 985 874 926.5 794.5 c 132,-1,23
 868 715 868 715 868 525 c 260,12,13
EndSplineSet
Fore
SplineSet
196 0 m 2,0,1
 136 0 136 0 136 60 c 2,2,-1
 136 990 l 2,3,4
 136 1050 136 1050 196 1050 c 2,5,-1
 356 1050 l 2,6,7
 416 1050 416 1050 416 990 c 2,8,-1
 416 648 l 1,9,-1
 579 648 l 1,10,11
 594 802 594 802 714.5 936 c 128,-1,12
 835 1070 835 1070 1095 1070 c 256,13,14
 1355 1070 1355 1070 1486.5 925 c 128,-1,15
 1618 780 1618 780 1618 525 c 256,16,17
 1618 270 1618 270 1486.5 125 c 128,-1,18
 1355 -20 1355 -20 1095 -20 c 256,19,20
 835 -20 835 -20 713 113 c 128,-1,21
 591 246 591 246 576 448 c 1,22,-1
 416 448 l 1,23,-1
 416 60 l 2,24,25
 416 0 416 0 356 0 c 2,26,-1
 196 0 l 2,0,1
868 525 m 256,27,28
 868 335 868 335 926.5 255.5 c 128,-1,29
 985 176 985 176 1095 176 c 256,30,31
 1205 176 1205 176 1263.5 255.5 c 128,-1,32
 1322 335 1322 335 1322 525 c 256,33,34
 1322 715 1322 715 1263.5 794.5 c 128,-1,35
 1205 874 1205 874 1095 874 c 256,36,37
 985 874 985 874 926.5 794.5 c 128,-1,38
 868 715 868 715 868 525 c 256,27,28
EndSplineSet
EndChar

StartChar: afii10066
Encoding: 1073 1073 43
Width: 1210
Flags: W
HStem: -20 196<471.69 743.058> 874 196<471.49 742.703>
VStem: 84 296<296.148 771.748> 84 169<845 998.087> 834 296<278.047 771.953>
DStem2: 544 1430 615 1239 0.99289 0.119037<-159.16 455.667>
LayerCount: 2
Back
SplineSet
84 525 m 260,0,1
 84 780 84 780 215.5 925 c 132,-1,2
 347 1070 347 1070 607 1070 c 260,3,4
 867 1070 867 1070 998.5 925 c 132,-1,5
 1130 780 1130 780 1130 525 c 260,6,7
 1130 270 1130 270 998.5 125 c 132,-1,8
 867 -20 867 -20 607 -20 c 260,9,10
 347 -20 347 -20 215.5 125 c 132,-1,11
 84 270 84 270 84 525 c 260,0,1
380 525 m 260,12,13
 380 335 380 335 438.5 255.5 c 132,-1,14
 497 176 497 176 607 176 c 260,15,16
 717 176 717 176 775.5 255.5 c 132,-1,17
 834 335 834 335 834 525 c 260,18,19
 834 715 834 715 775.5 794.5 c 132,-1,20
 717 874 717 874 607 874 c 260,21,22
 497 874 497 874 438.5 794.5 c 132,-1,23
 380 715 380 715 380 525 c 260,12,13
89 600 m 256,0,1
 89 714 89 714 108 870 c 128,-1,2
 127 1026 127 1026 170 1120.5 c 128,-1,3
 213 1215 213 1215 262.5 1272 c 128,-1,4
 312 1329 312 1329 397.5 1375.5 c 128,-1,5
 483 1422 483 1422 581 1430 c 256,6,7
 700 1440 700 1440 755 1441 c 128,-1,8
 810 1442 810 1442 855 1460 c 256,9,10
 894 1476 894 1476 902.5 1495 c 128,-1,11
 911 1514 911 1514 945 1514 c 10,12,-1
 969 1514 l 18,13,14
 1004 1514 1004 1514 1004 1479 c 256,15,16
 1004 1426 1004 1426 961 1370.5 c 128,-1,17
 918 1315 918 1315 818 1295 c 256,18,19
 774 1286 774 1286 687 1280 c 128,-1,20
 600 1274 600 1274 534.5 1267.5 c 128,-1,21
 469 1261 469 1261 419 1234 c 0,22,23
 221 1131 221 1131 200 822 c 1,24,-1
 208 818 l 1041,25,26
EndSplineSet
Fore
SplineSet
84 598 m 256,0,1
 84 712 84 712 105.5 869 c 128,-1,2
 127 1026 127 1026 164.5 1125 c 128,-1,3
 202 1224 202 1224 259 1283 c 128,-1,4
 316 1342 316 1342 396 1381.5 c 128,-1,5
 476 1421 476 1421 544 1430 c 256,6,7
 644 1444 644 1444 725.5 1446.5 c 128,-1,8
 807 1449 807 1449 843 1457 c 256,9,10
 882 1466 882 1466 898 1490 c 128,-1,11
 914 1514 914 1514 960 1514 c 10,12,-1
 1030 1514 l 18,13,14
 1069 1514 1069 1514 1069 1469 c 256,15,16
 1069 1394 1069 1394 1019.5 1336.5 c 128,-1,17
 970 1279 970 1279 882 1264 c 256,18,19
 841 1257 841 1257 770.5 1252.5 c 128,-1,20
 700 1248 700 1248 615 1239 c 128,-1,21
 530 1230 530 1230 442 1186 c 0,22,23
 261 1095 261 1095 253 845 c 1,24,-1
 261 841 l 17,25,26
 281 915 281 915 379 992.5 c 128,-1,27
 477 1070 477 1070 633 1070 c 256,28,29
 864 1070 864 1070 997 925 c 128,-1,30
 1130 780 1130 780 1130 525 c 256,31,32
 1130 270 1130 270 998.5 125 c 128,-1,33
 867 -20 867 -20 607 -20 c 256,34,35
 334 -20 334 -20 209 143 c 128,-1,36
 84 306 84 306 84 598 c 256,0,1
380 525 m 256,37,38
 380 335 380 335 438.5 255.5 c 128,-1,39
 497 176 497 176 607 176 c 256,40,41
 717 176 717 176 775.5 255.5 c 128,-1,42
 834 335 834 335 834 525 c 256,43,44
 834 715 834 715 775.5 794.5 c 128,-1,45
 717 874 717 874 607 874 c 256,46,47
 497 874 497 874 438.5 794.5 c 128,-1,48
 380 715 380 715 380 525 c 256,37,38
EndSplineSet
EndChar

StartChar: afii10095
Encoding: 1101 1101 45
Width: 1070
Flags: MW
HStem: -20 196<314.714 614.553> 448 200<281.234 686> 874 196<306.074 614.041>
VStem: 693 297<266.921 448>
LayerCount: 2
Back
SplineSet
990 525 m 256,0,1
 990 270 990 270 862 125 c 128,-1,2
 734 -20 734 -20 469 -20 c 256,3,4
 292 -20 292 -20 194 40 c 128,-1,5
 96 100 96 100 57 158 c 256,6,7
 27 203 27 203 71 238 c 282,8,-1
 164 311 l 274,9,10
 208 345 208 345 256 290 c 256,11,12
 300 240 300 240 344 208 c 128,-1,13
 388 176 388 176 469 176 c 256,14,15
 582 176 582 176 638 255.5 c 128,-1,16
 694 335 694 335 694 525 c 256,17,18
 694 715 694 715 638 794.5 c 128,-1,19
 582 874 582 874 469 874 c 256,20,21
 398 874 398 874 350 844 c 128,-1,22
 302 814 302 814 285 788 c 256,23,24
 251 735 251 735 206 765 c 266,25,-1
 100 835 l 282,26,27
 59 862 59 862 90 909 c 256,28,29
 142 988 142 988 228 1029 c 128,-1,30
 314 1070 314 1070 469 1070 c 256,31,32
 734 1070 734 1070 862 925 c 128,-1,33
 990 780 990 780 990 525 c 256,0,1
EndSplineSet
Fore
SplineSet
74 111 m 256,0,1
 36 148 36 148 79 192 c 258,2,-1
 160 274 l 258,3,4
 199 313 199 313 240 272 c 256,5,6
 276 236 276 236 323 206 c 128,-1,7
 370 176 370 176 469 176 c 256,8,9
 582 176 582 176 632.5 238 c 128,-1,10
 683 300 683 300 693 448 c 257,11,-1
 341 448 l 258,12,13
 281 448 281 448 281 498 c 258,14,-1
 281 598 l 258,15,16
 281 648 281 648 341 648 c 258,17,-1
 689 648 l 257,18,19
 679 758 679 758 628.5 816 c 128,-1,20
 578 874 578 874 469 874 c 256,21,22
 422 874 422 874 365 858.5 c 128,-1,23
 308 843 308 843 259 800 c 256,24,25
 215 761 215 761 182 792 c 258,26,-1
 98 870 l 258,27,28
 58 907 58 907 96 945 c 256,29,30
 161 1011 161 1011 253.5 1040.5 c 128,-1,31
 346 1070 346 1070 469 1070 c 256,32,33
 734 1070 734 1070 862 925 c 128,-1,34
 990 780 990 780 990 525 c 256,35,36
 990 270 990 270 862 125 c 128,-1,37
 734 -20 734 -20 469 -20 c 256,38,39
 284 -20 284 -20 205 20 c 128,-1,40
 126 60 126 60 74 111 c 256,0,1
EndSplineSet
EndChar

StartChar: afii10073
Encoding: 1079 1079 46
Width: 1049
Flags: W
HStem: -20 196<316.594 616.838> 448 200<293.234 598.165> 874 196<284.482 601.749>
VStem: 642 280<680.044 844.842> 659 296<217.304 428.96>
LayerCount: 2
Back
SplineSet
74 111 m 256,0,1
 36 148 36 148 79 192 c 258,2,-1
 160 274 l 258,3,4
 196 311 196 311 254 263 c 256,5,6
 293 231 293 231 344 203.5 c 128,-1,7
 395 176 395 176 469 176 c 256,8,9
 582 176 582 176 632.5 238 c 128,-1,10
 683 300 683 300 693 448 c 257,11,-1
 341 448 l 262,12,13
 281 448 281 448 281 498 c 262,14,-1
 281 598 l 262,15,16
 281 648 281 648 341 648 c 262,17,-1
 689 648 l 257,18,19
 679 758 679 758 628.5 816 c 128,-1,20
 578 874 578 874 469 874 c 256,21,22
 396 874 396 874 352 856 c 128,-1,23
 308 838 308 838 265 795 c 256,24,25
 224 754 224 754 188 787 c 258,26,-1
 98 870 l 258,27,28
 58 907 58 907 96 945 c 256,29,30
 161 1011 161 1011 240.5 1040.5 c 128,-1,31
 320 1070 320 1070 469 1070 c 256,32,33
 734 1070 734 1070 862 925 c 128,-1,34
 990 780 990 780 990 525 c 256,35,36
 990 270 990 270 862 125 c 128,-1,37
 734 -20 734 -20 469 -20 c 256,38,39
 284 -20 284 -20 205 20 c 128,-1,40
 126 60 126 60 74 111 c 256,0,1
EndSplineSet
Fore
SplineSet
81 89 m 256,0,1
 37 123 37 123 74 171 c 258,2,-1
 144 262 l 258,3,4
 175 303 175 303 239 265 c 256,5,6
 282 239 282 239 342 207.5 c 128,-1,7
 402 176 402 176 476 176 c 256,8,9
 584 176 584 176 621.5 224 c 128,-1,10
 659 272 659 272 659 324 c 256,11,12
 659 372 659 372 636.5 410 c 128,-1,13
 614 448 614 448 498 448 c 258,14,-1
 353 448 l 258,15,16
 293 448 293 448 293 498 c 258,17,-1
 293 598 l 258,18,19
 293 648 293 648 353 648 c 258,20,-1
 485 648 l 258,21,22
 557 648 557 648 599.5 679.5 c 128,-1,23
 642 711 642 711 642 771 c 256,24,25
 642 828 642 828 587 851 c 128,-1,26
 532 874 532 874 458 874 c 256,27,28
 385 874 385 874 337 855 c 128,-1,29
 289 836 289 836 240 800 c 256,30,31
 194 766 194 766 163 803 c 258,32,-1
 86 897 l 258,33,34
 51 939 51 939 93 972 c 256,35,36
 163 1027 163 1027 239.5 1048.5 c 128,-1,37
 316 1070 316 1070 458 1070 c 256,38,39
 655 1070 655 1070 788.5 994 c 128,-1,40
 922 918 922 918 922 807 c 256,41,42
 922 699 922 699 865.5 640.5 c 128,-1,43
 809 582 809 582 742 559 c 1,44,-1
 742 556 l 1,45,46
 860 516 860 516 907.5 453 c 128,-1,47
 955 390 955 390 955 308 c 256,48,49
 955 153 955 153 829.5 66.5 c 128,-1,50
 704 -20 704 -20 476 -20 c 256,51,52
 290 -20 290 -20 210.5 15.5 c 128,-1,53
 131 51 131 51 81 89 c 256,0,1
EndSplineSet
EndChar

StartChar: afii10078
Encoding: 1084 1084 47
Width: 1500
Flags: W
HStem: 0 21G<166 386 625 875 1114 1334> 1030 20G<166 498 1002 1334>
VStem: 136 280<1.18652 645> 1084 280<1.18652 645>
DStem2: 550 985 416 645 0.274936 -0.961463<290.056 774.658> 781 394 911 61 0.274936 0.961463<-159.969 324.633>
LayerCount: 2
Back
SplineSet
289 972 m 2,0,1
 264 1050 264 1050 322 1050 c 2,2,-1
 501 1050 l 2,3,4
 548 1050 548 1050 561 999 c 2,5,-1
 716 413 l 2,6,7
 729 364 729 364 737.5 316 c 128,-1,8
 746 268 746 268 748 238 c 1,9,-1
 754 238 l 1,10,11
 756 268 756 268 764.5 316 c 128,-1,12
 773 364 773 364 786 413 c 2,13,-1
 941 999 l 2,14,15
 954 1050 954 1050 1001 1050 c 2,16,-1
 1180 1050 l 2,17,18
 1238 1050 1238 1050 1213 972 c 2,19,-1
 923 67 l 2,20,21
 902 0 902 0 850 0 c 2,22,-1
 652 0 l 2,23,24
 600 0 600 0 579 67 c 2,25,-1
 289 972 l 2,0,1
EndSplineSet
Fore
SplineSet
196 0 m 2,0,1
 136 0 136 0 136 60 c 2,2,-1
 136 990 l 2,3,4
 136 1050 136 1050 196 1050 c 2,5,-1
 465 1050 l 2,6,7
 531 1050 531 1050 550 985 c 2,8,-1
 719 394 l 2,9,10
 729 359 729 359 738.5 311.5 c 128,-1,11
 748 264 748 264 748 235 c 1,12,-1
 752 235 l 1,13,14
 752 264 752 264 761.5 311.5 c 128,-1,15
 771 359 771 359 781 394 c 2,16,-1
 950 985 l 2,17,18
 969 1050 969 1050 1035 1050 c 2,19,-1
 1304 1050 l 2,20,21
 1364 1050 1364 1050 1364 990 c 2,22,-1
 1364 60 l 2,23,24
 1364 0 1364 0 1304 0 c 2,25,-1
 1144 0 l 2,26,27
 1084 0 1084 0 1084 60 c 2,28,-1
 1084 565 l 2,29,30
 1084 606 1084 606 1088 645 c 25,31,-1
 1084 645 l 17,32,-1
 911 61 l 2,33,34
 893 0 893 0 857 0 c 2,35,-1
 643 0 l 2,36,37
 607 0 607 0 589 61 c 2,38,-1
 416 645 l 9,39,-1
 412 645 l 25,40,41
 416 606 416 606 416 565 c 2,42,-1
 416 60 l 2,43,44
 416 0 416 0 356 0 c 2,45,-1
 196 0 l 2,0,1
EndSplineSet
EndChar

StartChar: k
Encoding: 107 107 48
Width: 1115
Flags: W
HStem: 0 21G<166 386 827 1062.5> 1030 20G<788 1021> 1456 20G<166 386>
VStem: 136 280<1.18652 264 601 1474.81>
DStem2: 416 601 704 611 0.638054 0.769991<191.46 619.013> 704 611 543 417 0.54603 -0.837766<74.6158 601.441>
LayerCount: 2
Back
SplineSet
416 264 m 13,9,-1
 1006 976 l 1030,10,11
893 1224 m 10,0,-1
 318 539 l 1049,1,-1
893 991 m 10,2,-1
 318 306 l 1049,3,-1
771 16 m 10,4,-1
 409 579 l 1049,5,-1
EndSplineSet
Fore
SplineSet
196 0 m 2,0,1
 136 0 136 0 136 60 c 2,2,-1
 136 1416 l 2,3,4
 136 1476 136 1476 196 1476 c 2,5,-1
 356 1476 l 2,6,7
 416 1476 416 1476 416 1416 c 2,8,-1
 416 681 l 2,9,10
 416 641 416 641 412 601 c 1,11,-1
 416 601 l 1,12,-1
 733 1009 l 2,13,14
 765 1050 765 1050 811 1050 c 2,15,-1
 975 1050 l 2,16,17
 1067 1050 1067 1050 1006 976 c 2,18,-1
 704 611 l 1,19,-1
 1054 74 l 2,20,21
 1102 0 1102 0 1023 0 c 2,22,-1
 852 0 l 2,23,24
 802 0 802 0 770 52 c 2,25,-1
 543 417 l 1,26,-1
 416 264 l 1,27,-1
 416 60 l 2,28,29
 416 0 416 0 356 0 c 2,30,-1
 196 0 l 2,0,1
EndSplineSet
EndChar

StartChar: f
Encoding: 102 102 49
Width: 682
Flags: W
HStem: 0 21G<187 407> 850 200<42.2305 157 437 627.77> 1300 196<459.031 713.712>
VStem: 157 280<1.18652 850 1050 1283.77>
LayerCount: 2
Back
SplineSet
90 918 m 2,0,1
 45 918 45 918 45 953 c 2,2,-1
 45 1015 l 2,3,4
 45 1050 45 1050 90 1050 c 2,5,-1
 197 1050 l 1,6,-1
 197 1199 l 2,7,8
 197 1366 197 1366 287 1429.5 c 128,-1,9
 377 1493 377 1493 493 1493 c 256,10,11
 562 1493 562 1493 604.5 1486 c 128,-1,12
 647 1479 647 1479 705 1455 c 256,13,14
 727.021 1445.99 727.021 1445.99 718 1423 c 2,15,-1
 687 1344 l 2,16,17
 679.128 1323.94 679.128 1323.94 652 1336 c 256,18,19
 630 1346 630 1346 598 1354.5 c 128,-1,20
 566 1363 566 1363 529 1363 c 256,21,22
 446 1363 446 1363 409.5 1323 c 128,-1,23
 373 1283 373 1283 373 1170 c 2,24,-1
 373 1050 l 1,25,-1
 556 1050 l 2,26,27
 601 1050 601 1050 601 1015 c 2,28,-1
 601 953 l 2,29,30
 601 918 601 918 556 918 c 2,31,-1
 373 918 l 1,32,-1
 373 45 l 2,33,34
 373 0 373 0 328 0 c 2,35,-1
 242 0 l 2,36,37
 197 0 197 0 197 45 c 2,38,-1
 197 918 l 1,39,-1
 90 918 l 2,0,1
EndSplineSet
Fore
SplineSet
101 850 m 2,0,1
 42 850 42 850 42 900 c 2,2,-1
 42 1000 l 2,3,4
 42 1050 42 1050 101 1050 c 2,5,-1
 157 1050 l 1,6,-1
 157 1190 l 2,7,8
 157 1374 157 1374 262 1435 c 128,-1,9
 367 1496 367 1496 512 1496 c 256,10,11
 581 1496 581 1496 630.5 1488 c 128,-1,12
 680 1480 680 1480 718 1468 c 256,13,14
 754 1456 754 1456 744 1418 c 2,15,-1
 714 1305 l 2,16,17
 705 1272 705 1272 668 1285 c 256,18,19
 646 1293 646 1293 606.5 1296.5 c 128,-1,20
 567 1300 567 1300 544 1300 c 256,21,22
 471 1300 471 1300 454 1249 c 128,-1,23
 437 1198 437 1198 437 1090 c 2,24,-1
 437 1050 l 1,25,-1
 569 1050 l 2,26,27
 628 1050 628 1050 628 1000 c 2,28,-1
 628 900 l 2,29,30
 628 850 628 850 569 850 c 2,31,-1
 437 850 l 1,32,-1
 437 60 l 2,33,34
 437 0 437 0 377 0 c 2,35,-1
 217 0 l 2,36,37
 157 0 157 0 157 60 c 2,38,-1
 157 850 l 1,39,-1
 101 850 l 2,0,1
EndSplineSet
EndChar

StartChar: t
Encoding: 116 116 50
Width: 798
Flags: W
HStem: -33 196<466.084 728.974> 850 200<42.2305 169 449 669.77>
VStem: 169 280<208.905 850 1050 1207.08>
LayerCount: 2
Back
SplineSet
91 918 m 2,0,1
 46 918 46 918 46 953 c 2,2,-1
 46 1015 l 2,3,4
 46 1050 46 1050 91 1050 c 2,5,-1
 209 1050 l 1,6,-1
 209 1140 l 2,7,8
 209 1159.86 209 1159.86 219 1178 c 2,9,-1
 289 1305 l 2,10,11
 308.291 1340 308.291 1340 320 1340 c 2,12,-1
 355 1340 l 2,13,14
 385 1340 385 1340 385 1305 c 2,15,-1
 385 1050 l 1,16,-1
 598 1050 l 2,17,18
 643 1050 643 1050 643 1015 c 2,19,-1
 643 953 l 2,20,21
 643 918 643 918 598 918 c 2,22,-1
 385 918 l 1,23,-1
 385 281 l 2,24,25
 385 176 385 176 416.5 144.5 c 128,-1,26
 448 113 448 113 492 113 c 256,27,28
 526 113 526 113 573.5 133 c 128,-1,29
 621 153 621 153 639 167 c 256,30,31
 657.107 181.083 657.107 181.083 667 158 c 2,32,-1
 700 81 l 2,33,34
 708.455 61.2726 708.455 61.2726 688 49 c 256,35,36
 649 26 649 26 574 4.5 c 144,-1,37
 499 -17 499 -17 424 -17 c 256,38,39
 320 -17 320 -17 264.5 58 c 128,-1,40
 209 133 209 133 209 270 c 2,41,-1
 209 918 l 1,42,-1
 91 918 l 2,0,1
EndSplineSet
Fore
SplineSet
101 850 m 2,0,1
 42 850 42 850 42 900 c 2,2,-1
 42 1000 l 2,3,4
 42 1050 42 1050 101 1050 c 2,5,-1
 169 1050 l 1,6,-1
 169 1085 l 2,7,8
 169 1130 169 1130 190 1167 c 2,9,-1
 267 1302 l 2,10,11
 289 1340 289 1340 319 1340 c 2,12,-1
 389 1340 l 2,13,14
 449 1340 449 1340 449 1280 c 2,15,-1
 449 1050 l 1,16,-1
 611 1050 l 2,17,18
 670 1050 670 1050 670 1000 c 2,19,-1
 670 900 l 2,20,21
 670 850 670 850 611 850 c 2,22,-1
 449 850 l 1,23,-1
 449 354 l 2,24,25
 449 252 449 252 463.5 207.5 c 128,-1,26
 478 163 478 163 539 163 c 256,27,28
 570 163 570 163 609 173.5 c 128,-1,29
 648 184 648 184 670 194 c 256,30,31
 705 210 705 210 716 171 c 2,32,-1
 746 57 l 2,33,34
 755 23 755 23 720 7 c 256,35,36
 687 -8 687 -8 629.5 -20.5 c 128,-1,37
 572 -33 572 -33 514 -33 c 256,38,39
 371 -33 371 -33 270 26 c 128,-1,40
 169 85 169 85 169 269 c 2,41,-1
 169 850 l 1,42,-1
 101 850 l 2,0,1
EndSplineSet
EndChar

StartChar: l
Encoding: 108 108 51
Width: 552
Flags: W
HStem: 0 21G<166 386> 1476 20G<271 386>
VStem: 136 280<1.18652 1363.08>
LayerCount: 2
Fore
SplineSet
196 0 m 2,0,1
 136 0 136 0 136 60 c 2,2,-1
 136 1241 l 2,3,4
 136 1286 136 1286 157 1323 c 2,5,-1
 234 1458 l 2,6,7
 256 1496 256 1496 286 1496 c 2,8,-1
 356 1496 l 2,9,10
 416 1496 416 1496 416 1436 c 2,11,-1
 416 60 l 2,12,13
 416 0 416 0 356 0 c 2,14,-1
 196 0 l 2,0,1
EndSplineSet
EndChar

StartChar: I
Encoding: 73 73 52
Width: 612
Flags: W
HStem: 0 21G<195 417> 1414 20G<195 417>
VStem: 160 292<3.09448 1430.91>
LayerCount: 2
Fore
SplineSet
230 0 m 2,0,1
 160 0 160 0 160 75 c 2,2,-1
 160 1359 l 2,3,4
 160 1434 160 1434 230 1434 c 2,5,-1
 382 1434 l 2,6,7
 452 1434 452 1434 452 1359 c 2,8,-1
 452 75 l 2,9,10
 452 0 452 0 382 0 c 2,11,-1
 230 0 l 2,0,1
EndSplineSet
EndChar

StartChar: H
Encoding: 72 72 53
Width: 1442
Flags: W
HStem: 0 21G<195 417 1025 1247> 622 248<452 990> 1414 20G<195 417 1025 1247>
VStem: 160 292<3.09448 622 870 1430.91> 990 292<3.09448 622 870 1430.91>
LayerCount: 2
Back
SplineSet
1179 664 m 1,0,-1
 277 664 l 1,1,-1
 277 828 l 1,2,-1
 1179 828 l 1,3,-1
 1179 664 l 1,0,-1
1130 0 m 2,4,5
 1080 0 1080 0 1080 55 c 2,6,-1
 1080 1379 l 2,7,8
 1080 1434 1080 1434 1130 1434 c 2,9,-1
 1222 1434 l 2,10,11
 1272 1434 1272 1434 1272 1379 c 2,12,-1
 1272 55 l 2,13,14
 1272 0 1272 0 1222 0 c 2,15,-1
 1130 0 l 2,4,5
220 0 m 2,16,17
 170 0 170 0 170 55 c 2,18,-1
 170 1379 l 2,19,20
 170 1434 170 1434 220 1434 c 2,21,-1
 312 1434 l 2,22,23
 362 1434 362 1434 362 1379 c 2,24,-1
 362 55 l 2,25,26
 362 0 362 0 312 0 c 2,27,-1
 220 0 l 2,16,17
1128 1435 m 2,0,-1
 1155 1434 l 1,1,-1
 1214 1434 l 2,2,3
 1229 1434 1229 1434 1245.5 1431 c 0,4,5
 1251 1430 1251 1430 1255 1426.5 c 128,-1,6
 1259 1423 1259 1423 1261.5 1422 c 128,-1,7
 1264 1421 1264 1421 1266 1415 c 128,-1,8
 1268 1409 1268 1409 1268.5 1406.5 c 128,-1,9
 1269 1404 1269 1404 1270 1395.5 c 128,-1,10
 1271 1387 1271 1387 1272 1384 c 1,11,-1
 1272 70 l 2,12,13
 1272 25 1272 25 1260.5 12.5 c 128,-1,14
 1249 0 1249 0 1208 0 c 2,15,-1
 1135 0 l 2,16,17
 1100 0 1100 0 1089.5 11.5 c 128,-1,18
 1079 23 1079 23 1079 61 c 2,19,-1
 1079 664 l 1,20,-1
 367 664 l 1,21,-1
 367 61 l 2,22,23
 367 26 367 26 357.5 13 c 128,-1,24
 348 9.53674e-07 348 9.53674e-07 313 0 c 2,25,-1
 240 0 l 2,26,27
 218 0 218 0 206.5 2 c 128,-1,28
 195 4 195 4 185.5 15.5 c 128,-1,29
 176 27 176 27 176 49 c 2,30,-1
 176 1384 l 2,31,32
 176 1416 176 1416 189.5 1425 c 128,-1,33
 203 1434 203 1434 233 1434 c 2,34,-1
 293 1434 l 1,35,-1
 319 1435 l 2,36,37
 349 1435 349 1435 358 1421 c 128,-1,38
 367 1407 367 1407 367 1376 c 2,39,-1
 367 827 l 1,40,-1
 1079 827 l 1,41,-1
 1079 1376 l 2,42,43
 1079 1396 1079 1396 1081.5 1407 c 128,-1,44
 1084 1418 1084 1418 1095 1426.5 c 128,-1,45
 1106 1435 1106 1435 1128 1435 c 2,0,-1
EndSplineSet
Fore
SplineSet
230 0 m 2,0,1
 160 0 160 0 160 75 c 2,2,-1
 160 1359 l 2,3,4
 160 1434 160 1434 230 1434 c 2,5,-1
 382 1434 l 2,6,7
 452 1434 452 1434 452 1359 c 2,8,-1
 452 870 l 1,9,-1
 990 870 l 1,10,-1
 990 1359 l 2,11,12
 990 1434 990 1434 1060 1434 c 2,13,-1
 1212 1434 l 2,14,15
 1282 1434 1282 1434 1282 1359 c 2,16,-1
 1282 75 l 2,17,18
 1282 0 1282 0 1212 0 c 2,19,-1
 1060 0 l 2,20,21
 990 0 990 0 990 75 c 2,22,-1
 990 622 l 1,23,-1
 452 622 l 1,24,-1
 452 75 l 2,25,26
 452 0 452 0 382 0 c 2,27,-1
 230 0 l 2,0,1
EndSplineSet
EndChar

StartChar: afii10033
Encoding: 1055 1055 54
Width: 1436
Flags: W
HStem: 0 21G<195 417 1019 1241> 1186 248<452 984>
VStem: 160 292<3.09448 1186> 984 292<3.09448 1186>
LayerCount: 2
Fore
SplineSet
230 0 m 2,0,1
 160 0 160 0 160 75 c 2,2,-1
 160 1359 l 2,3,4
 160 1434 160 1434 230 1434 c 2,5,-1
 1206 1434 l 2,6,7
 1276 1434 1276 1434 1276 1359 c 2,8,-1
 1276 75 l 2,9,10
 1276 0 1276 0 1206 0 c 2,11,-1
 1054 0 l 2,12,13
 984 0 984 0 984 75 c 2,14,-1
 984 1186 l 1,15,-1
 452 1186 l 1,16,-1
 452 75 l 2,17,18
 452 0 452 0 382 0 c 2,19,-1
 230 0 l 2,0,1
EndSplineSet
EndChar

StartChar: E
Encoding: 69 69 55
Width: 1280
Flags: W
HStem: 0 248<452 1192.78> 620 248<452 1107.78> 1186 248<452 1160.78>
VStem: 160 292<248 620 868 1186>
LayerCount: 2
Fore
SplineSet
230 0 m 2,0,1
 160 0 160 0 160 75 c 2,2,-1
 160 1359 l 2,3,4
 160 1434 160 1434 230 1434 c 2,5,-1
 1088 1434 l 2,6,7
 1163 1434 1163 1434 1163 1369 c 2,8,-1
 1163 1251 l 2,9,10
 1163 1186 1163 1186 1088 1186 c 2,11,-1
 452 1186 l 9,12,-1
 452 868 l 1,13,-1
 1035 868 l 2,14,15
 1110 868 1110 868 1110 803 c 2,16,-1
 1110 685 l 2,17,18
 1110 620 1110 620 1035 620 c 2,19,-1
 452 620 l 1,20,-1
 452 248 l 17,21,-1
 1120 248 l 2,22,23
 1195 248 1195 248 1195 183 c 2,24,-1
 1195 65 l 2,25,26
 1195 0 1195 0 1120 0 c 2,27,-1
 230 0 l 2,0,1
EndSplineSet
EndChar

StartChar: O
Encoding: 79 79 60
Width: 1544
Flags: W
HStem: -34 236<581.193 962.807> 1232 236<581.193 962.807>
VStem: 86 312<425.036 1010.74> 1146 312<424.146 1009.85>
LayerCount: 2
Fore
SplineSet
86 717 m 256,0,1
 86 1062 86 1062 264 1265 c 128,-1,2
 442 1468 442 1468 772 1468 c 256,3,4
 1102 1468 1102 1468 1280 1265 c 128,-1,5
 1458 1062 1458 1062 1458 717 c 256,6,7
 1458 372 1458 372 1280 169 c 128,-1,8
 1102 -34 1102 -34 772 -34 c 256,9,10
 442 -34 442 -34 264 169 c 128,-1,11
 86 372 86 372 86 717 c 256,0,1
398 717 m 256,12,13
 398 467 398 467 487.5 334.5 c 128,-1,14
 577 202 577 202 772 202 c 256,15,16
 967 202 967 202 1056.5 334.5 c 128,-1,17
 1146 467 1146 467 1146 717 c 256,18,19
 1146 967 1146 967 1056.5 1099.5 c 128,-1,20
 967 1232 967 1232 772 1232 c 256,21,22
 577 1232 577 1232 487.5 1099.5 c 128,-1,23
 398 967 398 967 398 717 c 256,12,13
EndSplineSet
EndChar

StartChar: s
Encoding: 115 115 61
Width: 1005
Flags: W
LayerCount: 2
Back
SplineSet
93 70 m 256,0,1
 44 105 44 105 66 145 c 2,2,-1
 117 238 l 2,3,4
 144 288 144 288 201 250 c 256,5,6
 258 212 258 212 341 194 c 128,-1,7
 424 176 424 176 494 176 c 256,8,9
 574 176 574 176 631.5 200.5 c 128,-1,10
 689 225 689 225 689 296 c 256,11,12
 689 338 689 338 662.5 361 c 128,-1,13
 636 384 636 384 579 395 c 256,14,15
 520 406 520 406 441 424.5 c 128,-1,16
 362 443 362 443 288 472 c 256,17,18
 188 512 188 512 145.5 577 c 128,-1,19
 103 642 103 642 103 759 c 256,20,21
 103 888 103 888 206.5 979 c 128,-1,22
 310 1070 310 1070 561 1070 c 256,23,24
 664 1070 664 1070 756 1043 c 152,-1,25
 848 1016 848 1016 886 992 c 256,26,27
 946 954 946 954 916 911 c 26,28,-1
 855 822 l 18,29,30
 827 782 827 782 765 816 c 256,31,32
 718 842 718 842 674 858 c 128,-1,33
 630 874 630 874 546 874 c 256,34,35
 469 874 469 874 426 849 c 128,-1,36
 383 824 383 824 383 774 c 256,37,38
 383 723 383 723 429 701.5 c 128,-1,39
 475 680 475 680 514 672 c 256,40,41
 602 654 602 654 671 638.5 c 128,-1,42
 740 623 740 623 800 591 c 256,43,44
 892 542 892 542 930.5 469 c 128,-1,45
 969 396 969 396 969 293 c 256,46,47
 969 150 969 150 856.5 65 c 128,-1,48
 744 -20 744 -20 521 -20 c 256,49,50
 366 -20 366 -20 264.5 0 c 152,-1,51
 163 20 163 20 93 70 c 256,0,1
EndSplineSet
Fore
SplineSet
93 70 m 256,0,1
 44 105 44 105 66 145 c 2,2,-1
 117 238 l 2,3,4
 144 288 144 288 201 250 c 256,5,6
 258 212 258 212 335.5 194 c 128,-1,7
 413 176 413 176 477 176 c 256,8,9
 522 176 522 176 561 185 c 128,-1,10
 600 194 600 194 627 220 c 128,-1,11
 654 246 654 246 654 296 c 256,12,13
 654 326 654 326 638 347 c 128,-1,14
 622 368 622 368 597 379 c 128,-1,15
 572 390 572 390 544 397 c 256,16,17
 507 406 507 406 437.5 427 c 128,-1,18
 368 448 368 448 304 476 c 256,19,20
 251 499 251 499 200.5 540.5 c 128,-1,21
 150 582 150 582 126.5 633 c 128,-1,22
 103 684 103 684 103 759 c 256,23,24
 103 860 103 860 161.5 936 c 128,-1,25
 220 1012 220 1012 313 1041 c 128,-1,26
 406 1070 406 1070 545 1070 c 256,27,28
 639 1070 639 1070 728 1043 c 152,-1,29
 817 1016 817 1016 855 992 c 256,30,31
 915 954 915 954 885 911 c 26,32,-1
 824 822 l 18,33,34
 796 782 796 782 734 816 c 256,35,36
 687 842 687 842 641.5 858 c 128,-1,37
 596 874 596 874 540 874 c 256,38,39
 502 874 502 874 467 866 c 128,-1,40
 432 858 432 858 407.5 836 c 128,-1,41
 383 814 383 814 383 778 c 256,42,43
 383 740 383 740 405.5 718.5 c 128,-1,44
 428 697 428 697 457.5 687 c 128,-1,45
 487 677 487 677 514 668 c 256,46,47
 570 650 570 650 627 633.5 c 128,-1,48
 684 617 684 617 743 594 c 256,49,50
 794 574 794 574 842 537 c 128,-1,51
 890 500 890 500 912 443 c 128,-1,52
 934 386 934 386 934 313 c 256,53,54
 934 216 934 216 876 133 c 128,-1,55
 818 50 818 50 723 15 c 128,-1,56
 628 -20 628 -20 502 -20 c 256,57,58
 361 -20 361 -20 262 0 c 152,-1,59
 163 20 163 20 93 70 c 256,0,1
EndSplineSet
EndChar

StartChar: afii10040
Encoding: 1062 1062 62
Width: 1522
Flags: W
HStem: -370 21G<1242 1432> 0 248<452 978> 1414 20G<195 417 1013 1235>
VStem: 160 292<248 1430.91> 978 292<248 1430.91> 1212 250<-368.616 0>
LayerCount: 2
Fore
SplineSet
230 0 m 2,0,1
 160 0 160 0 160 75 c 2,2,-1
 160 1359 l 2,3,4
 160 1434 160 1434 230 1434 c 2,5,-1
 382 1434 l 2,6,7
 452 1434 452 1434 452 1359 c 2,8,-1
 452 248 l 1,9,-1
 978 248 l 1,10,-1
 978 1359 l 2,11,12
 978 1434 978 1434 1048 1434 c 2,13,-1
 1200 1434 l 2,14,15
 1270 1434 1270 1434 1270 1359 c 2,16,-1
 1270 248 l 5,17,-1
 1392 248 l 6,18,19
 1462 248 1462 248 1462 173 c 6,20,-1
 1462 -300 l 6,21,22
 1462 -370 1462 -370 1402 -370 c 6,23,-1
 1272 -370 l 6,24,25
 1212 -370 1212 -370 1212 -300 c 6,26,-1
 1212 0 l 5,27,-1
 230 0 l 2,0,1
EndSplineSet
EndChar

StartChar: afii10042
Encoding: 1064 1064 63
Width: 2140
Flags: W
HStem: 0 248<452 924 1216 1688> 1414 20G<195 417 959 1181 1723 1945>
VStem: 160 292<248 1430.91> 924 292<248 1430.91> 1688 292<248 1430.91>
CounterMasks: 1 38
LayerCount: 2
Fore
SplineSet
230 0 m 2,0,1
 160 0 160 0 160 75 c 2,2,-1
 160 1359 l 2,3,4
 160 1434 160 1434 230 1434 c 2,5,-1
 382 1434 l 2,6,7
 452 1434 452 1434 452 1359 c 2,8,-1
 452 248 l 1,9,-1
 924 248 l 1,10,-1
 924 1359 l 2,11,12
 924 1434 924 1434 994 1434 c 2,13,-1
 1146 1434 l 2,14,15
 1216 1434 1216 1434 1216 1359 c 2,16,-1
 1216 248 l 1,17,-1
 1688 248 l 1,18,-1
 1688 1359 l 2,19,20
 1688 1434 1688 1434 1758 1434 c 2,21,-1
 1910 1434 l 2,22,23
 1980 1434 1980 1434 1980 1359 c 2,24,-1
 1980 75 l 2,25,26
 1980 0 1980 0 1910 0 c 2,27,-1
 230 0 l 2,0,1
EndSplineSet
EndChar

StartChar: afii10041
Encoding: 1063 1063 64
Width: 1308
Flags: W
HStem: 0 21G<891 1113> 524 236<452.278 750.45> 1414 20G<147 369 891 1113>
VStem: 112 292<810.284 1430.91> 856 292<3.09448 611 807.194 1430.91>
LayerCount: 2
Back
SplineSet
120 912 m 2,0,-1
 120 1379 l 2,1,2
 120 1434 120 1434 170 1434 c 2,3,-1
 262 1434 l 2,4,5
 312 1434 312 1434 312 1379 c 2,6,-1
 312 960 l 2,7,8
 312 820 312 820 367 770 c 128,-1,9
 422 720 422 720 518 720 c 256,10,11
 596 720 596 720 704 730 c 128,-1,12
 812 740 812 740 924 787 c 1,13,-1
 924 1379 l 2,14,15
 924 1434 924 1434 974 1434 c 2,16,-1
 1066 1434 l 2,17,18
 1116 1434 1116 1434 1116 1379 c 2,19,-1
 1116 55 l 2,20,21
 1116 0 1116 0 1066 0 c 2,22,-1
 974 0 l 2,23,24
 924 0 924 0 924 55 c 2,25,-1
 924 573 l 2,26,27
 924 613 924 613 926 653 c 1,28,-1
 922 653 l 1,29,30
 828 612 828 612 732 589 c 128,-1,31
 636 566 636 566 493 566 c 256,32,33
 304 566 304 566 212 668.5 c 128,-1,34
 120 771 120 771 120 912 c 2,0,-1
EndSplineSet
Fore
SplineSet
112 932 m 2,0,-1
 112 1359 l 2,1,2
 112 1434 112 1434 182 1434 c 2,3,-1
 334 1434 l 2,4,5
 404 1434 404 1434 404 1359 c 2,6,-1
 404 980 l 2,7,8
 404 858 404 858 448 809 c 128,-1,9
 492 760 492 760 569 760 c 256,10,11
 641 760 641 760 704.5 773 c 128,-1,12
 768 786 768 786 856 827 c 1,13,-1
 856 1359 l 2,14,15
 856 1434 856 1434 926 1434 c 2,16,-1
 1078 1434 l 2,17,18
 1148 1434 1148 1434 1148 1359 c 2,19,-1
 1148 75 l 2,20,21
 1148 0 1148 0 1078 0 c 2,22,-1
 926 0 l 2,23,24
 856 0 856 0 856 75 c 2,25,-1
 856 491 l 2,26,27
 856 551 856 551 861 611 c 1,28,-1
 854 611 l 1,29,30
 782 574 782 574 681 549 c 128,-1,31
 580 524 580 524 495 524 c 256,32,33
 320 524 320 524 216 646 c 128,-1,34
 112 768 112 768 112 932 c 2,0,-1
EndSplineSet
EndChar

StartChar: uni0237
Encoding: 567 567 65
Width: 562
Flags: W
HStem: -420 196<-91.7275 109.484> 1030 20G<176 396>
VStem: 146 280<-155.925 1048.81>
LayerCount: 2
Fore
SplineSet
-81 -409 m 260,0,1
 -119 -402 -119 -402 -110 -357 c 6,2,-1
 -88 -247 l 6,3,4
 -79 -201 -79 -201 -37 -217 c 260,5,6
 -19 -224 -19 -224 35 -224 c 260,7,8
 98 -224 98 -224 122 -158 c 132,-1,9
 146 -92 146 -92 146 26 c 6,10,-1
 146 990 l 2,11,12
 146 1050 146 1050 206 1050 c 2,13,-1
 366 1050 l 2,14,15
 426 1050 426 1050 426 990 c 2,16,-1
 426 -4 l 6,17,18
 426 -252 426 -252 329 -336 c 132,-1,19
 232 -420 232 -420 70 -420 c 260,20,21
 -20 -420 -20 -420 -81 -409 c 260,0,1
EndSplineSet
EndChar

StartChar: four
Encoding: 52 52 67
Width: 1200
Flags: W
HStem: 0 21G<704.5 919.5> 312 248<341 672 952 1136.08> 1420 20G<711 919>
VStem: 672 280<1.92017 312 560 1027>
DStem2: 92 608 341 560 0.579061 0.815284<105.053 677.459>
LayerCount: 2
Back
SplineSet
340 558 m 6,5,-1
 894 1338 l 1030,6,7
92 608 m 2,5,-1
 646 1388 l 1026,6,7
EndSplineSet
Fore
SplineSet
127 312 m 2,0,1
 62 312 62 312 62 377 c 2,2,-1
 62 509 l 2,3,4
 62 566 62 566 92 608 c 2,5,-1
 646 1388 l 2,6,7
 683 1440 683 1440 739 1440 c 2,8,-1
 886 1440 l 2,9,10
 952 1440 952 1440 952 1375 c 2,11,-1
 952 560 l 1,12,-1
 1073 560 l 2,13,14
 1138 560 1138 560 1138 495 c 2,15,-1
 1138 377 l 2,16,17
 1138 312 1138 312 1074 312 c 2,18,-1
 952 312 l 1,19,-1
 952 65 l 2,20,21
 952 0 952 0 887 0 c 2,22,-1
 737 0 l 2,23,24
 672 0 672 0 672 65 c 2,25,-1
 672 312 l 1,26,-1
 127 312 l 2,0,1
341 560 m 1,27,-1
 672 560 l 1,28,-1
 672 947 l 2,29,30
 672 987 672 987 676 1027 c 1,31,-1
 672 1027 l 1,32,-1
 341 560 l 1,27,-1
EndSplineSet
EndChar

StartChar: zero
Encoding: 48 48 68
Width: 1200
Flags: W
HStem: -34 218<477.25 722.75> 1238 218<477.25 722.75>
VStem: 88 296<313.916 1108.08> 816 296<313.916 1108.08>
LayerCount: 2
Fore
SplineSet
88 711 m 256,0,1
 88 1116 88 1116 214 1286 c 128,-1,2
 340 1456 340 1456 600 1456 c 256,3,4
 860 1456 860 1456 986 1286 c 128,-1,5
 1112 1116 1112 1116 1112 711 c 256,6,7
 1112 306 1112 306 986 136 c 128,-1,8
 860 -34 860 -34 600 -34 c 256,9,10
 340 -34 340 -34 214 136 c 128,-1,11
 88 306 88 306 88 711 c 256,0,1
384 711 m 256,12,13
 384 526 384 526 414.5 355 c 128,-1,14
 445 184 445 184 600 184 c 256,15,16
 755 184 755 184 785.5 355 c 128,-1,17
 816 526 816 526 816 711 c 256,18,19
 816 896 816 896 785.5 1067 c 128,-1,20
 755 1238 755 1238 600 1238 c 256,21,22
 445 1238 445 1238 414.5 1067 c 128,-1,23
 384 896 384 896 384 711 c 256,12,13
EndSplineSet
EndChar

StartChar: seven
Encoding: 55 55 69
Width: 1112
Flags: W
HStem: -6 21G<362.5 577.5> 1174 248<84.9202 767>
VStem: 330 280<-4.07983 481.817>
LayerCount: 2
Back
SplineSet
133 1258 m 2,0,1
 88 1258 88 1258 88 1303 c 2,2,-1
 88 1377 l 2,3,4
 88 1422 88 1422 133 1422 c 2,5,-1
 967 1422 l 2,6,7
 1012 1422 1012 1422 1012 1377 c 2,8,-1
 1012 1308 l 2,9,10
 1012 1276 1012 1276 976 1236 c 0,11,12
 776 1009 776 1009 655 733.5 c 128,-1,13
 534 458 534 458 534 133 c 2,14,-1
 534 39 l 2,15,16
 534 -6 534 -6 489 -6 c 2,17,-1
 398 -6 l 2,18,19
 353 -6 353 -6 353 39 c 2,20,-1
 353 98 l 2,21,22
 353 459 353 459 490 733.5 c 128,-1,23
 627 1008 627 1008 831 1258 c 1,24,-1
 831 1260 l 1,25,26
 801 1258 801 1258 771 1258 c 2,27,-1
 133 1258 l 2,0,1
EndSplineSet
Fore
SplineSet
148 1174 m 2,0,1
 83 1174 83 1174 83 1239 c 2,2,-1
 83 1357 l 2,3,4
 83 1422 83 1422 148 1422 c 2,5,-1
 964 1422 l 2,6,7
 1029 1422 1029 1422 1029 1357 c 2,8,-1
 1029 1244 l 2,9,10
 1029 1193 1029 1193 979 1137 c 0,11,12
 774 906 774 906 692 676 c 128,-1,13
 610 446 610 446 610 121 c 2,14,-1
 610 59 l 2,15,16
 610 -6 610 -6 545 -6 c 2,17,-1
 395 -6 l 2,18,19
 330 -6 330 -6 330 59 c 2,20,-1
 330 86 l 2,21,22
 330 447 330 447 449.5 693 c 128,-1,23
 569 939 569 939 767 1174 c 1,24,-1
 767 1178 l 1,25,26
 727 1174 727 1174 687 1174 c 2,27,-1
 148 1174 l 2,0,1
EndSplineSet
EndChar

StartChar: afii10046
Encoding: 1068 1068 70
Width: 1350
Flags: W
HStem: 0 244<452 887.492> 626 244<452 887.492> 1414 20G<195 417>
VStem: 160 292<244 626 870 1430.91> 953 312<305.785 564.215>
LayerCount: 2
Back
SplineSet
220 0 m 2,0,1
 170 0 170 0 170 55 c 2,2,-1
 170 1379 l 2,3,4
 170 1434 170 1434 220 1434 c 2,5,-1
 312 1434 l 2,6,7
 362 1434 362 1434 362 1379 c 2,8,-1
 362 828 l 1,9,-1
 650 828 l 2,10,11
 987 828 987 828 1112.5 716 c 128,-1,12
 1238 604 1238 604 1238 414 c 256,13,14
 1238 224 1238 224 1112.5 112 c 128,-1,15
 987 0 987 0 650 0 c 2,16,-1
 220 0 l 2,0,1
362 164 m 1,17,-1
 618 164 l 2,18,19
 833 164 833 164 933 221.5 c 128,-1,20
 1033 279 1033 279 1033 414 c 256,21,22
 1033 549 1033 549 933 606.5 c 128,-1,23
 833 664 833 664 618 664 c 2,24,-1
 362 664 l 1,25,-1
 362 164 l 1,17,-1
EndSplineSet
Fore
SplineSet
230 0 m 6,0,1
 160 0 160 0 160 75 c 2,2,-1
 160 1359 l 2,3,4
 160 1434 160 1434 230 1434 c 2,5,-1
 382 1434 l 6,6,7
 452 1434 452 1434 452 1359 c 6,8,-1
 452 870 l 5,9,-1
 607 870 l 6,10,11
 977 870 977 870 1121 752.5 c 132,-1,12
 1265 635 1265 635 1265 435 c 260,13,14
 1265 235 1265 235 1121 117.5 c 132,-1,15
 977 0 977 0 607 0 c 6,16,-1
 230 0 l 6,0,1
452 244 m 5,17,-1
 578 244 l 6,18,19
 788 244 788 244 870.5 279.5 c 132,-1,20
 953 315 953 315 953 435 c 260,21,22
 953 555 953 555 870.5 590.5 c 132,-1,23
 788 626 788 626 578 626 c 6,24,-1
 452 626 l 5,25,-1
 452 244 l 5,17,-1
EndSplineSet
EndChar

StartChar: afii10020
Encoding: 1043 1043 71
Width: 1118
Flags: W
HStem: 0 21G<195 417> 1186 248<452 1081.78>
VStem: 160 292<3.09448 1186>
LayerCount: 2
Fore
SplineSet
230 0 m 2,0,1
 160 0 160 0 160 75 c 2,2,-1
 160 1359 l 2,3,4
 160 1434 160 1434 230 1434 c 2,5,-1
 1009 1434 l 2,6,7
 1084 1434 1084 1434 1084 1369 c 2,8,-1
 1084 1251 l 2,9,10
 1084 1186 1084 1186 1009 1186 c 2,11,-1
 452 1186 l 9,12,-1
 452 75 l 2,13,14
 452 0 452 0 382 0 c 2,15,-1
 230 0 l 2,0,1
EndSplineSet
EndChar

StartChar: afii10018
Encoding: 1041 1041 72
Width: 1370
Flags: W
HStem: 0 244<452 888.964> 632 244<452 888.964> 1186 248<452 1151.78>
VStem: 160 292<244 632 876 1186> 963 312<308.292 567.708>
LayerCount: 2
Fore
SplineSet
230 0 m 2,0,1
 160 0 160 0 160 75 c 2,2,-1
 160 1359 l 2,3,4
 160 1434 160 1434 230 1434 c 2,5,-1
 1079 1434 l 2,6,7
 1154 1434 1154 1434 1154 1369 c 2,8,-1
 1154 1251 l 2,9,10
 1154 1186 1154 1186 1079 1186 c 2,11,-1
 452 1186 l 1,12,-1
 452 876 l 1,13,-1
 617 876 l 2,14,15
 987 876 987 876 1131 757 c 128,-1,16
 1275 638 1275 638 1275 438 c 256,17,18
 1275 238 1275 238 1131 119 c 128,-1,19
 987 0 987 0 617 0 c 2,20,-1
 230 0 l 2,0,1
452 244 m 1,21,-1
 588 244 l 2,22,23
 798 244 798 244 880.5 281 c 128,-1,24
 963 318 963 318 963 438 c 256,25,26
 963 558 963 558 880.5 595 c 128,-1,27
 798 632 798 632 588 632 c 2,28,-1
 452 632 l 1,29,-1
 452 244 l 1,21,-1
EndSplineSet
EndChar

StartChar: afii10194
Encoding: 1123 1123 73
Width: 1280
Flags: W
HStem: 0 196<634 867.06> 452 196<634 867.06> 850 200<47.2344 354 634 940.766> 1456 20G<384 604>
VStem: 354 280<196 452 648 850 1050 1474.81> 914 296<226.695 421.305>
LayerCount: 2
Back
SplineSet
445 0 m 2,0,1
 400 0 400 0 400 45 c 2,2,-1
 400 918 l 1,3,-1
 95 918 l 2,4,5
 50 918 50 918 50 953 c 2,6,-1
 50 1015 l 2,7,8
 50 1050 50 1050 95 1050 c 2,9,-1
 400 1050 l 1,10,-1
 400 1431 l 2,11,12
 400 1476 400 1476 445 1476 c 2,13,-1
 531 1476 l 2,14,15
 576 1476 576 1476 576 1431 c 2,16,-1
 576 1050 l 1,17,-1
 881 1050 l 2,18,19
 926 1050 926 1050 926 1015 c 2,20,-1
 926 953 l 2,21,22
 926 918 926 918 881 918 c 2,23,-1
 576 918 l 1,24,-1
 576 618 l 1,25,-1
 798 618 l 2,26,27
 1028 618 1028 618 1114 533.5 c 128,-1,28
 1200 449 1200 449 1200 309 c 256,29,30
 1200 169 1200 169 1114 84.5 c 128,-1,31
 1028 0 1028 0 798 0 c 2,32,-1
 445 0 l 2,0,1
576 131 m 1,33,-1
 752 131 l 2,34,35
 892 131 892 131 953 165 c 128,-1,36
 1014 199 1014 199 1014 309 c 256,37,38
 1014 419 1014 419 953 453.5 c 128,-1,39
 892 488 892 488 752 488 c 2,40,-1
 576 488 l 1,41,-1
 576 131 l 1,33,-1
EndSplineSet
Fore
SplineSet
107 850 m 2,0,1
 47 850 47 850 47 900 c 2,2,-1
 47 1000 l 2,3,4
 47 1050 47 1050 107 1050 c 2,5,-1
 354 1050 l 1,6,-1
 354 1416 l 2,7,8
 354 1476 354 1476 414 1476 c 2,9,-1
 574 1476 l 2,10,11
 634 1476 634 1476 634 1416 c 2,12,-1
 634 1050 l 25,13,-1
 881 1050 l 18,14,15
 941 1050 941 1050 941 1000 c 2,16,-1
 941 900 l 2,17,18
 941 850 941 850 881 850 c 2,19,-1
 634 850 l 25,20,-1
 634 648 l 1,21,-1
 821 648 l 2,22,23
 1061 648 1061 648 1135.5 551 c 128,-1,24
 1210 454 1210 454 1210 324 c 256,25,26
 1210 194 1210 194 1135.5 97 c 128,-1,27
 1061 0 1061 0 821 0 c 2,28,-1
 414 0 l 2,29,30
 354 0 354 0 354 60 c 2,31,-1
 354 850 l 17,32,-1
 107 850 l 2,0,1
634 196 m 1,33,-1
 703 196 l 2,34,35
 823 196 823 196 868.5 225 c 128,-1,36
 914 254 914 254 914 324 c 256,37,38
 914 394 914 394 868.5 423 c 128,-1,39
 823 452 823 452 703 452 c 2,40,-1
 634 452 l 1,41,-1
 634 196 l 1,33,-1
EndSplineSet
EndChar

StartChar: period
Encoding: 46 46 74
Width: 668
Flags: W
HStem: 0 284<191.845 476.155>
VStem: 188 292<3.09448 280.906>
LayerCount: 2
Back
SplineSet
244 0 m 2,0,1
 199 0 199 0 199 45 c 2,2,-1
 199 167 l 2,3,4
 199 212 199 212 244 212 c 2,5,-1
 356 212 l 2,6,7
 401 212 401 212 401 167 c 2,8,-1
 401 45 l 2,9,10
 401 0 401 0 356 0 c 2,11,-1
 244 0 l 2,0,1
EndSplineSet
Fore
SplineSet
258 0 m 2,0,1
 188 0 188 0 188 75 c 2,2,-1
 188 209 l 2,3,4
 188 284 188 284 258 284 c 2,5,-1
 410 284 l 2,6,7
 480 284 480 284 480 209 c 2,8,-1
 480 75 l 2,9,10
 480 0 480 0 410 0 c 2,11,-1
 258 0 l 2,0,1
EndSplineSet
EndChar

StartChar: h
Encoding: 104 104 75
Width: 1200
Flags: W
HStem: 0 21G<166 386 816 1036> 874 196<505.093 745.789> 1456 20G<166 386>
VStem: 136 280<1.18652 778.694 932 1474.81> 786 280<1.18652 833.5>
LayerCount: 2
Fore
SplineSet
196 0 m 2,0,1
 136 0 136 0 136 60 c 2,2,-1
 136 1416 l 2,3,4
 136 1476 136 1476 196 1476 c 2,5,-1
 356 1476 l 2,6,7
 416 1476 416 1476 416 1416 c 2,8,-1
 416 1012 l 2,9,10
 416 972 416 972 412 932 c 1,11,-1
 418 932 l 1,12,13
 464 1011 464 1011 535 1040.5 c 128,-1,14
 606 1070 606 1070 706 1070 c 256,15,16
 862 1070 862 1070 964 972 c 128,-1,17
 1066 874 1066 874 1066 614 c 2,18,-1
 1066 60 l 2,19,20
 1066 0 1066 0 1006 0 c 2,21,-1
 846 0 l 2,22,23
 786 0 786 0 786 60 c 2,24,-1
 786 542 l 2,25,26
 786 760 786 760 756 817 c 128,-1,27
 726 874 726 874 627 874 c 256,28,29
 522 874 522 874 469 792.5 c 128,-1,30
 416 711 416 711 416 454 c 2,31,-1
 416 60 l 2,32,33
 416 0 416 0 356 0 c 2,34,-1
 196 0 l 2,0,1
EndSplineSet
EndChar

StartChar: b
Encoding: 98 98 76
Width: 1192
Flags: W
HStem: -20 196<501.022 737.585> 0 21G<166 378.931> 874 196<501.022 737.585> 1456 20G<166 386>
VStem: 136 280<2.10938 118 276.788 773.212 932 1474.81> 816 296<265.705 784.295>
LayerCount: 2
Fore
SplineSet
196 0 m 2,0,1
 136 0 136 0 136 60 c 2,2,-1
 136 1416 l 6,3,4
 136 1476 136 1476 196 1476 c 6,5,-1
 356 1476 l 6,6,7
 416 1476 416 1476 416 1416 c 6,8,-1
 416 1012 l 6,9,10
 416 972 416 972 412 932 c 5,11,-1
 416 932 l 5,12,13
 468 1018 468 1018 532 1044 c 128,-1,14
 596 1070 596 1070 686 1070 c 256,15,16
 921 1070 921 1070 1016.5 907.5 c 128,-1,17
 1112 745 1112 745 1112 525 c 256,18,19
 1112 305 1112 305 1016.5 142.5 c 128,-1,20
 921 -20 921 -20 686 -20 c 256,21,22
 596 -20 596 -20 532 6 c 128,-1,23
 468 32 468 32 416 118 c 1,24,-1
 412 118 l 1,25,-1
 408 60 l 2,26,27
 403.862 0 403.862 0 354 0 c 2,28,-1
 196 0 l 2,0,1
416 480 m 2,29,30
 416 345 416 345 469.5 260.5 c 128,-1,31
 523 176 523 176 598 176 c 256,32,33
 733 176 733 176 774.5 270.5 c 128,-1,34
 816 365 816 365 816 525 c 256,35,36
 816 685 816 685 774.5 779.5 c 128,-1,37
 733 874 733 874 598 874 c 256,38,39
 523 874 523 874 469.5 789.5 c 128,-1,40
 416 705 416 705 416 570 c 2,41,-1
 416 480 l 2,29,30
EndSplineSet
EndChar

StartChar: d
Encoding: 100 100 77
Width: 1192
Flags: W
HStem: -20 196<454.415 690.978> 0 21<813.069 1026> 874 196<454.415 690.978> 1456 20<806 1026>
VStem: 80 296<265.705 784.295> 776 280<2.10938 118 276.788 773.212 932 1474.81>
LayerCount: 2
Fore
SplineSet
80 525 m 256,0,1
 80 745 80 745 175.5 907.5 c 128,-1,2
 271 1070 271 1070 506 1070 c 256,3,4
 596 1070 596 1070 660 1044 c 128,-1,5
 724 1018 724 1018 776 932 c 1,6,-1
 780 932 l 1,7,8
 776 972 776 972 776 1012 c 2,9,-1
 776 1416 l 2,10,11
 776 1476 776 1476 836 1476 c 2,12,-1
 996 1476 l 2,13,14
 1056 1476 1056 1476 1056 1416 c 2,15,-1
 1056 60 l 2,16,17
 1056 0 1056 0 996 0 c 2,18,-1
 838 0 l 2,19,20
 788.138 0 788.138 0 784 60 c 2,21,-1
 780 118 l 1,22,-1
 776 118 l 1,23,24
 724 32 724 32 660 6 c 128,-1,25
 596 -20 596 -20 506 -20 c 256,26,27
 271 -20 271 -20 175.5 142.5 c 128,-1,28
 80 305 80 305 80 525 c 256,0,1
376 525 m 256,29,30
 376 365 376 365 417.5 270.5 c 128,-1,31
 459 176 459 176 594 176 c 256,32,33
 669 176 669 176 722.5 260.5 c 128,-1,34
 776 345 776 345 776 480 c 2,35,-1
 776 570 l 2,36,37
 776 705 776 705 722.5 789.5 c 128,-1,38
 669 874 669 874 594 874 c 256,39,40
 459 874 459 874 417.5 779.5 c 128,-1,41
 376 685 376 685 376 525 c 256,29,30
EndSplineSet
EndChar

StartChar: X
Encoding: 88 88 78
Width: 1418
Flags: MW
HStem: 0 21G<60 339 1079 1358> 537 406<506 912> 1414 20G<96 372.5 1045.5 1322>
DStem2: 70 86 403 59 0.56082 0.827938<63.2803 731.764> 709 943 106 1348 0.556276 -0.830997<-620.482 0> 709 943 904 740 0.557219 0.830366<0 620.532> 904 740 709 537 0.561687 -0.82735<58.423 737.732>
LayerCount: 2
Back
SplineSet
1024 1434 m 25,0,0
 9 0 l 1049,0,0
1373 1434 m 25,0,0
 361 0 l 1049,0,0
394 1434 m 25,0,0
 1409 0 l 1049,0,0
45 1434 m 25,0,0
 1057 0 l 1049,0,0
EndSplineSet
Fore
SplineSet
108 0 m 2,0,1
 12 0 12 0 70 86 c 2,2,-1
 513 740 l 1,3,-1
 106 1348 l 2,4,5
 48 1434 48 1434 144 1434 c 2,6,-1
 346 1434 l 2,7,8
 399 1434 399 1434 436 1375 c 2,9,-1
 709 943 l 1,10,-1
 982 1375 l 2,11,12
 1019 1434 1019 1434 1072 1434 c 2,13,-1
 1274 1434 l 2,14,15
 1370 1434 1370 1434 1312 1348 c 2,16,-1
 904 740 l 1,17,-1
 1348 86 l 2,18,19
 1406 0 1406 0 1310 0 c 2,20,-1
 1105 0 l 2,21,22
 1053 -0 1053 -0 1015 59 c 2,23,-1
 709 537 l 1,24,-1
 403 59 l 2,25,26
 365 0 365 0 313 0 c 2,27,-1
 108 0 l 2,0,1
EndSplineSet
EndChar

StartChar: comma
Encoding: 44 44 82
Width: 668
Flags: W
HStem: 0 284<189.845 325>
VStem: 186 296<5.72021 280.906> 325 157<-165.447 0>
LayerCount: 2
Back
SplineSet
258 0 m 6,0,1
 188 0 188 0 188 75 c 6,2,-1
 188 209 l 6,3,4
 188 284 188 284 258 284 c 6,5,-1
 410 284 l 6,6,7
 480 284 480 284 480 209 c 6,8,-1
 480 75 l 6,9,10
 480 0 480 0 410 0 c 6,11,-1
 258 0 l 6,0,1
EndSplineSet
Fore
SplineSet
256 0 m 2,0,1
 186 0 186 0 186 75 c 2,2,-1
 186 209 l 2,3,4
 186 284 186 284 256 284 c 2,5,-1
 412 284 l 2,6,7
 482 284 482 284 482 209 c 2,8,-1
 482 75 l 258,9,10
 482 -54 482 -54 465 -141.5 c 128,-1,11
 448 -229 448 -229 378 -283 c 256,12,13
 327 -322 327 -322 298 -291 c 2,14,-1
 260 -250 l 2,15,16
 224 -212 224 -212 271 -175 c 256,17,18
 303 -150 303 -150 314 -110 c 128,-1,19
 325 -70 325 -70 325 0 c 9,20,-1
 256 0 l 2,0,1
EndSplineSet
EndChar

StartChar: afii10028
Encoding: 1050 1050 83
Width: 1348
Flags: W
HStem: 0 21G<195 417 1037 1298> 611 244<452 603.859> 1414 20G<195 417 1018 1269.5>
VStem: 160 292<3.09448 611 855 1430.91>
DStem2: 744 1050 990 954 0.563857 0.825872<-210.494 495.649> 1290 86 786 384 0.529612 -0.84824<-734.186 -40.0242>
LayerCount: 2
Back
SplineSet
220 0 m 2,0,1
 170 0 170 0 170 55 c 2,2,-1
 170 1379 l 2,3,4
 170 1434 170 1434 220 1434 c 2,5,-1
 312 1434 l 2,6,7
 362 1434 362 1434 362 1379 c 2,8,-1
 362 813 l 1,9,-1
 404 813 l 2,10,11
 518 813 518 813 586.5 870.5 c 128,-1,12
 655 928 655 928 714 1014 c 2,13,-1
 974 1395 l 2,14,15
 1001 1434 1001 1434 1044 1434 c 2,16,-1
 1161 1434 l 2,17,18
 1225 1434 1225 1434 1179 1368 c 2,19,-1
 872 932 l 2,20,21
 818 856 818 856 751.5 800.5 c 128,-1,22
 685 745 685 745 659 735 c 1,23,-1
 659 734 l 1,24,25
 715 722 715 722 775 680.5 c 128,-1,26
 835 639 835 639 922 506 c 2,27,-1
 1210 66 l 2,28,29
 1253 0 1253 0 1192 0 c 2,30,-1
 1065 0 l 2,31,32
 1018 -0 1018 -0 995 39 c 2,33,-1
 774 408 l 2,34,35
 709 516 709 516 617.5 584.5 c 128,-1,36
 526 653 526 653 419 653 c 2,37,-1
 362 653 l 1,38,-1
 362 55 l 2,39,40
 362 0 362 0 312 0 c 2,41,-1
 220 0 l 2,0,1
EndSplineSet
Fore
SplineSet
230 0 m 2,0,1
 160 0 160 0 160 75 c 2,2,-1
 160 1359 l 2,3,4
 160 1434 160 1434 230 1434 c 2,5,-1
 382 1434 l 2,6,7
 452 1434 452 1434 452 1359 c 2,8,-1
 452 855 l 1,9,-1
 482 855 l 2,10,11
 549 855 549 855 620 911 c 128,-1,12
 691 967 691 967 744 1050 c 2,13,-1
 954 1375 l 2,14,15
 992 1434 992 1434 1044 1434 c 2,16,-1
 1221 1434 l 2,17,18
 1318 1434 1318 1434 1259 1348 c 2,19,-1
 990 954 l 2,20,21
 940 881 940 881 891.5 832 c 128,-1,22
 843 783 843 783 770 735 c 1,23,-1
 770 734 l 1,24,25
 846 705 846 705 908 651.5 c 128,-1,26
 970 598 970 598 1044 480 c 2,27,-1
 1290 86 l 2,28,29
 1344 0 1344 0 1252 0 c 2,30,-1
 1065 0 l 2,31,32
 1009 -0 1009 -0 975 59 c 2,33,-1
 786 384 l 2,34,35
 733 476 733 476 651.5 543.5 c 128,-1,36
 570 611 570 611 497 611 c 2,37,-1
 452 611 l 1,38,-1
 452 75 l 2,39,40
 452 0 452 0 382 0 c 2,41,-1
 230 0 l 2,0,1
EndSplineSet
EndChar

StartChar: afii10024
Encoding: 1046 1046 84
Width: 2040
Flags: W
HStem: 0 21G<50.5 311.5 909 1131 1728.5 1989.5> 611 244<738.013 874 1166 1301.99> 1414 20G<79 330.5 909 1131 1709.5 1961>
VStem: 874 292<3.09448 611 855 1430.91>
DStem2: 58 86 373 59 0.5218 0.853068<44.9799 725.772> 599 1050 89 1348 0.556645 -0.83075<-490.916 211.996> 1441 1050 1687 954 0.556645 0.83075<-211.996 490.916> 1982 86 1483 384 0.5218 -0.853068<-725.772 -37.9427>
LayerCount: 2
Fore
SplineSet
96 0 m 2,0,1
 5 0 5 0 58 86 c 2,2,-1
 299 480 l 2,3,4
 370 596 370 596 433.5 650.5 c 128,-1,5
 497 705 497 705 573 734 c 1,6,-1
 573 735 l 1,7,8
 516 765 516 765 454 830.5 c 128,-1,9
 392 896 392 896 353 954 c 2,10,-1
 89 1348 l 2,11,12
 31 1434 31 1434 127 1434 c 2,13,-1
 304 1434 l 2,14,15
 357 1434 357 1434 394 1375 c 2,16,-1
 599 1050 l 2,17,18
 651 968 651 968 722.5 911.5 c 128,-1,19
 794 855 794 855 851 855 c 2,20,-1
 874 855 l 1,21,-1
 874 1359 l 2,22,23
 874 1434 874 1434 944 1434 c 2,24,-1
 1096 1434 l 2,25,26
 1166 1434 1166 1434 1166 1359 c 2,27,-1
 1166 855 l 1,28,-1
 1189 855 l 2,29,30
 1246 855 1246 855 1317.5 911.5 c 128,-1,31
 1389 968 1389 968 1441 1050 c 2,32,-1
 1646 1375 l 2,33,34
 1683 1434 1683 1434 1736 1434 c 2,35,-1
 1913 1434 l 2,36,37
 2009 1434 2009 1434 1951 1348 c 2,38,-1
 1687 954 l 2,39,40
 1648 896 1648 896 1586 830.5 c 128,-1,41
 1524 765 1524 765 1467 735 c 1,42,-1
 1467 734 l 1,43,44
 1543 705 1543 705 1606.5 650.5 c 128,-1,45
 1670 596 1670 596 1741 480 c 2,46,-1
 1982 86 l 2,47,48
 2035 0 2035 0 1944 0 c 2,49,-1
 1757 0 l 2,50,51
 1700 0 1700 0 1667 59 c 2,52,-1
 1483 384 l 2,53,54
 1431 476 1431 476 1349 543.5 c 128,-1,55
 1267 611 1267 611 1204 611 c 2,56,-1
 1166 611 l 1,57,-1
 1166 75 l 2,58,59
 1166 0 1166 0 1096 0 c 2,60,-1
 944 0 l 2,61,62
 874 0 874 0 874 75 c 2,63,-1
 874 611 l 1,64,-1
 836 611 l 2,65,66
 773 611 773 611 691 543.5 c 128,-1,67
 609 476 609 476 557 384 c 2,68,-1
 373 59 l 2,69,70
 340 0 340 0 283 0 c 2,71,-1
 96 0 l 2,0,1
EndSplineSet
EndChar

StartChar: P
Encoding: 80 80 85
Width: 1328
Flags: W
HStem: 0 21G<195 417> 536 244<452 868.506> 1190 244<452 868.506>
VStem: 160 292<3.09448 536 780 1190> 947 296<852.865 1117.14>
LayerCount: 2
Fore
SplineSet
230 0 m 2,0,1
 160 0 160 0 160 75 c 2,2,-1
 160 1359 l 2,3,4
 160 1434 160 1434 230 1434 c 2,5,-1
 604 1434 l 2,6,7
 964 1434 964 1434 1103.5 1317 c 128,-1,8
 1243 1200 1243 1200 1243 985 c 256,9,10
 1243 770 1243 770 1103.5 653 c 128,-1,11
 964 536 964 536 604 536 c 2,12,-1
 452 536 l 1,13,-1
 452 75 l 2,14,15
 452 0 452 0 382 0 c 2,16,-1
 230 0 l 2,0,1
452 780 m 1,17,-1
 603 780 l 2,18,19
 803 780 803 780 875 827.5 c 128,-1,20
 947 875 947 875 947 985 c 256,21,22
 947 1095 947 1095 875 1142.5 c 128,-1,23
 803 1190 803 1190 603 1190 c 2,24,-1
 452 1190 l 1,25,-1
 452 780 l 1,17,-1
EndSplineSet
EndChar

StartChar: B
Encoding: 66 66 86
Width: 1379
Flags: W
HStem: 0 244<452 894.551> 618 236<452 824.031> 1190 244<452 876.772>
VStem: 160 292<244 618 854 1190> 937 296<940.387 1136.95> 963 312<303.177 547.558>
LayerCount: 2
Back
SplineSet
260 0 m 2,0,1
 190 0 190 0 190 75 c 2,2,-1
 190 1359 l 2,3,4
 190 1434 190 1434 260 1434 c 2,5,-1
 634 1434 l 2,6,7
 994 1434 994 1434 1133.5 1317 c 128,-1,8
 1273 1200 1273 1200 1273 985 c 256,9,10
 1273 770 1273 770 1133.5 653 c 128,-1,11
 994 536 994 536 634 536 c 2,12,-1
 482 536 l 1,13,-1
 482 75 l 2,14,15
 482 0 482 0 412 0 c 2,16,-1
 260 0 l 2,0,1
482 780 m 1,17,-1
 633 780 l 2,18,19
 833 780 833 780 905 827.5 c 128,-1,20
 977 875 977 875 977 985 c 256,21,22
 977 1095 977 1095 905 1142.5 c 128,-1,23
 833 1190 833 1190 633 1190 c 2,24,-1
 482 1190 l 1,25,-1
 482 780 l 1,17,-1
240 0 m 2,0,1
 170 0 170 0 170 75 c 2,2,-1
 170 1359 l 2,3,4
 170 1434 170 1434 240 1434 c 2,5,-1
 392 1434 l 2,6,7
 462 1434 462 1434 462 1359 c 2,8,-1
 462 870 l 1,9,-1
 617 870 l 2,10,11
 987 870 987 870 1131 752.5 c 128,-1,12
 1275 635 1275 635 1275 435 c 256,13,14
 1275 235 1275 235 1131 117.5 c 128,-1,15
 987 0 987 0 617 0 c 2,16,-1
 240 0 l 2,0,1
462 244 m 1,17,-1
 588 244 l 2,18,19
 798 244 798 244 880.5 279.5 c 128,-1,20
 963 315 963 315 963 435 c 256,21,22
 963 555 963 555 880.5 590.5 c 128,-1,23
 798 626 798 626 588 626 c 2,24,-1
 462 626 l 1,25,-1
 462 244 l 1,17,-1
EndSplineSet
Fore
SplineSet
240 0 m 2,0,1
 160 0 160 0 160 75 c 2,2,-1
 160 1359 l 2,3,4
 160 1434 160 1434 240 1434 c 2,5,-1
 580 1434 l 2,6,7
 964 1434 964 1434 1098.5 1339.5 c 128,-1,8
 1233 1245 1233 1245 1233 1049 c 256,9,10
 1233 912 1233 912 1132.5 837 c 128,-1,11
 1032 762 1032 762 938 750 c 1,12,-1
 938 747 l 1,13,14
 1029 741 1029 741 1152 655 c 128,-1,15
 1275 569 1275 569 1275 412 c 256,16,17
 1275 228 1275 228 1125 114 c 128,-1,18
 975 0 975 0 630 0 c 2,19,-1
 240 0 l 2,0,1
452 244 m 1,20,-1
 598 244 l 2,21,22
 810 244 810 244 886.5 281 c 128,-1,23
 963 318 963 318 963 431 c 256,24,25
 963 537 963 537 874.5 577.5 c 128,-1,26
 786 618 786 618 598 618 c 2,27,-1
 452 618 l 1,28,-1
 452 244 l 1,20,-1
452 854 m 1,29,-1
 583 854 l 2,30,31
 712 854 712 854 824.5 899 c 128,-1,32
 937 944 937 944 937 1039 c 256,33,34
 937 1113 937 1113 874.5 1151.5 c 128,-1,35
 812 1190 812 1190 583 1190 c 2,36,-1
 452 1190 l 1,37,-1
 452 854 l 1,29,-1
EndSplineSet
EndChar

StartChar: hyphen
Encoding: 45 45 89
Width: 700
Flags: W
HStem: 446 214<53.2344 646.766>
VStem: 53 594<446.989 659.011>
LayerCount: 2
Fore
SplineSet
113 446 m 2,0,1
 53 446 53 446 53 496 c 2,2,-1
 53 610 l 2,3,4
 53 660 53 660 113 660 c 2,5,-1
 587 660 l 2,6,7
 647 660 647 660 647 610 c 2,8,-1
 647 496 l 2,9,10
 647 446 647 446 587 446 c 2,11,-1
 113 446 l 2,0,1
EndSplineSet
EndChar

StartChar: endash
Encoding: 8211 8211 90
Width: 1024
Flags: W
HStem: 453 200<35.2344 988.766>
LayerCount: 2
Fore
SplineSet
95 453 m 6,0,1
 35 453 35 453 35 503 c 6,2,-1
 35 603 l 6,3,4
 35 653 35 653 95 653 c 6,5,-1
 929 653 l 6,6,7
 989 653 989 653 989 603 c 6,8,-1
 989 503 l 6,9,10
 989 453 989 453 929 453 c 6,11,-1
 95 453 l 6,0,1
EndSplineSet
EndChar

StartChar: C
Encoding: 67 67 91
Width: 1418
Flags: W
HStem: -34 236<576.29 954.712> 1232 236<575.094 952.917>
VStem: 86 312<417.211 1016.79>
LayerCount: 2
Back
SplineSet
86 717 m 256,0,1
 86 1062 86 1062 264 1265 c 128,-1,2
 442 1468 442 1468 772 1468 c 256,3,4
 1102 1468 1102 1468 1280 1265 c 128,-1,5
 1458 1062 1458 1062 1458 717 c 256,6,7
 1458 372 1458 372 1280 169 c 128,-1,8
 1102 -34 1102 -34 772 -34 c 256,9,10
 442 -34 442 -34 264 169 c 128,-1,11
 86 372 86 372 86 717 c 256,0,1
398 717 m 256,12,13
 398 467 398 467 487.5 334.5 c 128,-1,14
 577 202 577 202 772 202 c 256,15,16
 967 202 967 202 1056.5 334.5 c 128,-1,17
 1146 467 1146 467 1146 717 c 256,18,19
 1146 967 1146 967 1056.5 1099.5 c 128,-1,20
 967 1232 967 1232 772 1232 c 256,21,22
 577 1232 577 1232 487.5 1099.5 c 128,-1,23
 398 967 398 967 398 717 c 256,12,13
EndSplineSet
Fore
SplineSet
86 717 m 256,0,1
 86 1062 86 1062 261 1265 c 128,-1,2
 436 1468 436 1468 766 1468 c 256,3,4
 956 1468 956 1468 1088 1409 c 128,-1,5
 1220 1350 1220 1350 1274 1238 c 256,6,7
 1310 1164 1310 1164 1262 1138 c 258,8,-1
 1142 1074 l 258,9,10
 1079 1040 1079 1040 1038 1112 c 256,11,12
 1012 1158 1012 1158 941.5 1195 c 128,-1,13
 871 1232 871 1232 776 1232 c 256,14,15
 566 1232 566 1232 482 1099.5 c 128,-1,16
 398 967 398 967 398 717 c 256,17,18
 398 467 398 467 482 334.5 c 128,-1,19
 566 202 566 202 776 202 c 256,20,21
 889 202 889 202 966.5 253 c 152,-1,22
 1044 304 1044 304 1074 350 c 256,23,24
 1123 425 1123 425 1178 388 c 258,25,-1
 1298 308 l 258,26,27
 1347 275 1347 275 1308 208 c 256,28,29
 1250 108 1250 108 1109 37 c 152,-1,30
 968 -34 968 -34 766 -34 c 256,31,32
 441 -34 441 -34 263.5 169 c 128,-1,33
 86 372 86 372 86 717 c 256,0,1
EndSplineSet
EndChar

StartChar: T
Encoding: 84 84 92
Width: 1246
Flags: W
HStem: 0 21G<502 744> 1178 256<36.2156 477 769 1209.78>
VStem: 477 292<0.214844 1178>
LayerCount: 2
Back
SplineSet
76 1313 m 2,0,-1
 76 1372 l 2,1,2
 76 1406 76 1406 84.5 1415.5 c 128,-1,3
 93 1425 93 1425 116 1429 c 0,4,5
 120 1430 120 1430 123 1430 c 2,6,-1
 1339 1430 l 2,7,8
 1384 1430 1384 1430 1394.5 1417 c 128,-1,9
 1405 1404 1405 1404 1405 1362 c 2,10,-1
 1405 1327 l 2,11,12
 1405 1290 1405 1290 1394 1278 c 128,-1,13
 1383 1266 1383 1266 1346 1266 c 2,14,-1
 836 1266 l 1,15,-1
 836 61 l 2,16,17
 836 17 836 17 819 6 c 1,18,19
 817 6 817 6 814.5 5 c 128,-1,20
 812 4 812 4 811 4 c 2,21,22
 803 0 803 0 786 0 c 2,23,-1
 711 0 l 2,24,25
 686 0 686 0 672 2.5 c 128,-1,26
 658 5 658 5 652.5 16 c 128,-1,27
 647 27 647 27 646 35.5 c 128,-1,28
 645 44 645 44 645 68 c 2,29,-1
 645 1266 l 1,30,-1
 133 1266 l 2,31,32
 118 1266 118 1266 108 1267.5 c 128,-1,33
 98 1269 98 1269 91.5 1275.5 c 128,-1,34
 85 1282 85 1282 82 1284.5 c 128,-1,35
 79 1287 79 1287 77.5 1298.5 c 128,-1,36
 76 1310 76 1310 76 1313 c 2,0,-1
EndSplineSet
Fore
SplineSet
109 1178 m 2,0,1
 34 1178 34 1178 34 1243 c 2,2,-1
 34 1369 l 2,3,4
 34 1434 34 1434 109 1434 c 2,5,-1
 1137 1434 l 2,6,7
 1212 1434 1212 1434 1212 1369 c 2,8,-1
 1212 1243 l 2,9,10
 1212 1178 1212 1178 1137 1178 c 2,11,-1
 769 1178 l 1,12,-1
 769 55 l 2,13,14
 769 0 769 0 719 0 c 2,15,-1
 527 0 l 2,16,17
 477 0 477 0 477 55 c 2,18,-1
 477 1178 l 1,19,-1
 109 1178 l 2,0,1
EndSplineSet
EndChar

StartChar: V
Encoding: 86 86 93
Width: 1370
Flags: W
HStem: 0 21G<583 787> 1414 20G<54 282.5 1087.5 1316>
DStem2: 341 1365 43 1368 0.348168 -0.937432<-88.2024 1047.49> 723 530 849 81 0.348168 0.937432<-158.198 979.396>
LayerCount: 2
Back
SplineSet
1304 1434 m 2,0,1
 1376 1434 1376 1434 1351 1368 c 2,2,-1
 861 81 l 2,3,4
 830 0 830 0 767 0 c 2,5,-1
 627 0 l 2,6,7
 564 0 564 0 533 81 c 2,8,-1
 43 1368 l 2,9,10
 18 1434 18 1434 90 1434 c 2,11,-1
 249 1434 l 2,12,13
 315 1434 315 1434 341 1365 c 2,14,-1
 443 1096 l 1,15,-1
 951 1096 l 1,16,-1
 1053 1365 l 2,17,18
 1079 1434 1079 1434 1145 1434 c 2,19,-1
 1304 1434 l 2,0,1
858 848 m 1,20,-1
 536 848 l 1,21,-1
 659 530 l 2,22,23
 681 474 681 474 685.5 448.5 c 128,-1,24
 690 423 690 423 695 373 c 1,25,-1
 699 373 l 1,26,27
 704 423 704 423 708.5 448.5 c 128,-1,28
 713 474 713 474 735 530 c 2,29,-1
 858 848 l 1,20,-1
EndSplineSet
Fore
SplineSet
43 1368 m 2,0,1
 18 1434 18 1434 90 1434 c 2,2,-1
 249 1434 l 2,3,4
 316 1434 316 1434 341 1365 c 2,5,-1
 647 530 l 2,6,7
 670 466 670 466 674 444.5 c 128,-1,8
 678 423 678 423 683 373 c 1,9,-1
 687 373 l 1,10,11
 692 423 692 423 696 444.5 c 128,-1,12
 700 466 700 466 723 530 c 2,13,-1
 1029 1365 l 2,14,15
 1054 1434 1054 1434 1121 1434 c 2,16,-1
 1280 1434 l 2,17,18
 1352 1434 1352 1434 1327 1368 c 2,19,-1
 849 81 l 2,20,21
 819 0 819 0 755 0 c 2,22,-1
 615 0 l 2,23,24
 551 -0 551 -0 521 81 c 2,25,-1
 43 1368 l 2,0,1
EndSplineSet
EndChar

StartChar: A
Encoding: 65 65 94
Width: 1394
Flags: W
HStem: 0 21G<54 282 1112 1340> 338 248<536 858> 1414 20G<595.5 798.5>
DStem2: 43 66 341 69 0.355814 0.934557<20.1825 396.525 661.386 1160.36> 861 1353 735 904 0.355814 -0.934557<216.759 715.738 980.598 1356.94>
LayerCount: 2
Back
SplineSet
556 1373 m 2,8,-1
 1054 66 l 1026,9,10
340 66 m 6,2,-1
 838 1373 l 1030,3,4
43 66 m 6,2,-1
 541 1373 l 1030,3,4
853 1373 m 2,8,-1
 1351 66 l 1026,9,10
EndSplineSet
Fore
SplineSet
90 0 m 2,0,1
 18 0 18 0 43 66 c 2,2,-1
 533 1353 l 2,3,4
 564 1434 564 1434 627 1434 c 2,5,-1
 767 1434 l 2,6,7
 830 1434 830 1434 861 1353 c 2,8,-1
 1351 66 l 2,9,10
 1376 0 1376 0 1304 0 c 2,11,-1
 1145 0 l 2,12,13
 1079 0 1079 0 1053 69 c 2,14,-1
 951 338 l 1,15,-1
 443 338 l 1,16,-1
 341 69 l 2,17,18
 315 0 315 0 249 0 c 2,19,-1
 90 0 l 2,0,1
536 586 m 1,20,-1
 858 586 l 1,21,-1
 735 904 l 2,22,23
 713 960 713 960 708.5 985.5 c 128,-1,24
 704 1011 704 1011 699 1061 c 1,25,-1
 695 1061 l 1,26,27
 690 1011 690 1011 685.5 985.5 c 128,-1,28
 681 960 681 960 659 904 c 2,29,-1
 536 586 l 1,20,-1
EndSplineSet
EndChar

StartChar: afii10029
Encoding: 1051 1051 98
Width: 1494
Flags: W
HStem: -34 236<70.3105 301.152> 0 21G<1077 1299> 1186 248<704 1042>
VStem: 454 250<502.478 1186> 1042 292<3.09448 1186>
LayerCount: 2
Fore
SplineSet
68 -10 m 256,0,1
 26 4 26 4 38 58 c 2,2,-1
 64 172 l 2,3,4
 76 225 76 225 127 210 c 256,5,6
 155 202 155 202 185 202 c 0,7,8
 338 202 338 202 396 420.5 c 128,-1,9
 454 639 454 639 454 1090 c 2,10,-1
 454 1359 l 2,11,12
 454 1434 454 1434 524 1434 c 2,13,-1
 1264 1434 l 2,14,15
 1334 1434 1334 1434 1334 1359 c 2,16,-1
 1334 75 l 2,17,18
 1334 0 1334 0 1264 0 c 2,19,-1
 1112 0 l 2,20,21
 1042 0 1042 0 1042 75 c 2,22,-1
 1042 1186 l 1,23,-1
 704 1186 l 1,24,-1
 704 1034 l 2,25,26
 704 439 704 439 587 202.5 c 128,-1,27
 470 -34 470 -34 208 -34 c 0,28,29
 142 -34 142 -34 68 -10 c 256,0,1
EndSplineSet
EndChar

StartChar: afii10038
Encoding: 1060 1060 99
Width: 1858
Flags: W
HStem: -15 21G<818 1040> 160 230<535.01 783 1075 1322.99> 1070 230<535.01 783 1075 1322.99> 1422 20G<818 1040>
VStem: 86 302<535.015 924.985> 783 292<-11.9055 160 390 1070 1300 1438.91> 1470 302<535.015 924.985>
CounterMasks: 1 0e
LayerCount: 2
Fore
SplineSet
86 730 m 256,0,1
 86 1000 86 1000 258 1150 c 128,-1,2
 430 1300 430 1300 740 1300 c 2,3,-1
 783 1300 l 1,4,-1
 783 1367 l 2,5,6
 783 1442 783 1442 853 1442 c 2,7,-1
 1005 1442 l 2,8,9
 1075 1442 1075 1442 1075 1367 c 2,10,-1
 1075 1300 l 1,11,-1
 1118 1300 l 2,12,13
 1428 1300 1428 1300 1600 1150 c 128,-1,14
 1772 1000 1772 1000 1772 730 c 256,15,16
 1772 460 1772 460 1600 310 c 128,-1,17
 1428 160 1428 160 1118 160 c 2,18,-1
 1075 160 l 1,19,-1
 1075 60 l 2,20,21
 1075 -15 1075 -15 1005 -15 c 2,22,-1
 853 -15 l 2,23,24
 783 -15 783 -15 783 60 c 2,25,-1
 783 160 l 1,26,-1
 740 160 l 2,27,28
 430 160 430 160 258 310 c 128,-1,29
 86 460 86 460 86 730 c 256,0,1
388 730 m 256,30,31
 388 575 388 575 468 482.5 c 128,-1,32
 548 390 548 390 753 390 c 2,33,-1
 783 390 l 1,34,-1
 783 1070 l 1,35,-1
 753 1070 l 2,36,37
 548 1070 548 1070 468 977.5 c 128,-1,38
 388 885 388 885 388 730 c 256,30,31
1075 390 m 1,39,-1
 1105 390 l 2,40,41
 1310 390 1310 390 1390 482.5 c 128,-1,42
 1470 575 1470 575 1470 730 c 256,43,44
 1470 885 1470 885 1390 977.5 c 128,-1,45
 1310 1070 1310 1070 1105 1070 c 2,46,-1
 1075 1070 l 1,47,-1
 1075 390 l 1,39,-1
EndSplineSet
EndChar

StartChar: g
Encoding: 103 103 100
Width: 1192
Flags: MW
HStem: -420 196<266.535 701.812> -10 196<454.415 690.978> 874 196<454.415 690.978> 1030 20G<813 1026>
VStem: 80 296<275.059 784.295> 776 280<-151.375 128 286.788 773.212 932 1047.89>
LayerCount: 2
Fore
SplineSet
80 525 m 256,13,14
 80 745 80 745 175.5 907.5 c 128,-1,15
 271 1070 271 1070 506 1070 c 256,16,17
 596 1070 596 1070 660 1044 c 128,-1,18
 724 1018 724 1018 776 932 c 1,19,-1
 780 932 l 1,20,-1
 784 990 l 2,21,22
 788 1050 788 1050 838 1050 c 2,23,-1
 996 1050 l 2,24,25
 1056 1050 1056 1050 1056 990 c 2,26,-1
 1056 11 l 2,27,28
 1056 -234 1056 -234 924 -327 c 128,-1,29
 792 -420 792 -420 542 -420 c 256,30,31
 436 -420 436 -420 346 -409 c 152,-1,32
 256 -398 256 -398 164 -354 c 256,33,34
 116 -331 116 -331 148 -267 c 2,35,-1
 184 -195 l 2,36,37
 206 -151 206 -151 257 -175 c 256,38,39
 298 -194 298 -194 358.5 -209 c 128,-1,40
 419 -224 419 -224 512 -224 c 256,41,42
 640 -224 640 -224 708 -176.5 c 128,-1,43
 776 -129 776 -129 776 31 c 2,44,-1
 776 48 l 2,45,46
 776 88 776 88 780 128 c 1,47,-1
 776 128 l 1,48,49
 724 42 724 42 660 16 c 128,-1,50
 596 -10 596 -10 506 -10 c 256,51,52
 271 -10 271 -10 175.5 152.5 c 128,-1,53
 80 315 80 315 80 525 c 256,13,14
376 525 m 256,0,1
 376 375 376 375 417.5 280.5 c 128,-1,2
 459 186 459 186 594 186 c 256,3,4
 669 186 669 186 722.5 270.5 c 128,-1,5
 776 355 776 355 776 490 c 2,6,-1
 776 570 l 2,7,8
 776 705 776 705 722.5 789.5 c 128,-1,9
 669 874 669 874 594 874 c 256,10,11
 459 874 459 874 417.5 779.5 c 128,-1,12
 376 685 376 685 376 525 c 256,0,1
EndSplineSet
EndChar

StartChar: u
Encoding: 117 117 101
Width: 1194
Flags: W
HStem: -20 196<453.039 689.039> 0 21G<810 1028> 1030 20G<164 384 808 1028>
VStem: 134 280<216.5 1048.81> 778 280<1.46484 118 271.306 1048.81>
LayerCount: 2
Fore
SplineSet
134 436 m 2,0,-1
 134 990 l 2,1,2
 134 1050 134 1050 194 1050 c 2,3,-1
 354 1050 l 2,4,5
 414 1050 414 1050 414 990 c 2,6,-1
 414 508 l 2,7,8
 414 290 414 290 444 233 c 128,-1,9
 474 176 474 176 570 176 c 256,10,11
 672 176 672 176 725 257.5 c 128,-1,12
 778 339 778 339 778 596 c 2,13,-1
 778 990 l 2,14,15
 778 1050 778 1050 838 1050 c 2,16,-1
 998 1050 l 2,17,18
 1058 1050 1058 1050 1058 990 c 2,19,-1
 1058 60 l 2,20,21
 1058 0 1058 0 998 0 c 2,22,-1
 840 0 l 2,23,24
 780 0 780 0 780 60 c 2,25,-1
 780 118 l 1,26,-1
 776 118 l 1,27,28
 730 39 730 39 659 9.5 c 128,-1,29
 588 -20 588 -20 491 -20 c 256,30,31
 338 -20 338 -20 236 78 c 128,-1,32
 134 176 134 176 134 436 c 2,0,-1
EndSplineSet
EndChar

StartChar: z
Encoding: 122 122 102
Width: 964
Flags: W
HStem: 0 200<394 911.766> 850 200<85.1553 541>
DStem2: 93 234 394 200 0.58701 0.809579<149.164 761.682>
LayerCount: 2
Back
SplineSet
372 166 m 2,5,-1
 920 920 l 1033,6,-1
46 166 m 2,5,-1
 594 920 l 1033,6,-1
EndSplineSet
Fore
SplineSet
112 0 m 2,0,1
 52 0 52 0 52 50 c 2,2,-1
 52 126 l 2,3,4
 52 178 52 178 93 234 c 2,5,-1
 541 850 l 9,6,-1
 541 854 l 25,7,8
 501 850 501 850 461 850 c 2,9,-1
 136 850 l 2,10,11
 76 850 76 850 76 900 c 2,12,-1
 76 932 l 2,13,14
 76 1050 76 1050 136 1050 c 2,15,-1
 828 1050 l 2,16,17
 888 1050 888 1050 888 1000 c 2,18,-1
 888 930 l 2,19,20
 888 881 888 881 845 822 c 2,21,-1
 394 200 l 9,22,-1
 394 196 l 17,23,24
 447 200 447 200 474 200 c 2,25,-1
 852 200 l 2,26,27
 912 200 912 200 912 150 c 2,28,-1
 912 50 l 2,29,30
 912 0 912 0 852 0 c 2,31,-1
 112 0 l 2,0,1
EndSplineSet
EndChar

StartChar: m
Encoding: 109 109 103
Width: 1750
Flags: W
HStem: 0 21G<166 386 766 986 1366 1586> 874 196<505.561 698.363 1105.38 1297.62> 1030 20G<166 384>
VStem: 136 280<1.18652 769.383 932 1048.54> 736 280<1.18652 768.781> 1336 280<1.18652 839.054>
CounterMasks: 1 1c
LayerCount: 2
Back
SplineSet
187 0 m 2,0,1
 142 0 142 0 142 45 c 2,2,-1
 142 1005 l 2,3,4
 142 1050 142 1050 187 1050 c 2,5,-1
 271 1050 l 2,6,7
 316 1050 316 1050 316 1005 c 2,8,-1
 316 925 l 1,9,-1
 320 925 l 1,10,11
 385 997 385 997 461 1032 c 128,-1,12
 537 1067 537 1067 607 1067 c 256,13,14
 736 1067 736 1067 805.5 1002.5 c 128,-1,15
 875 938 875 938 895 873 c 1,16,-1
 899 873 l 1,17,18
 954 955 954 955 1038 1011 c 128,-1,19
 1122 1067 1122 1067 1217 1067 c 256,20,21
 1376 1067 1376 1067 1457 964.5 c 128,-1,22
 1538 862 1538 862 1538 684 c 2,23,-1
 1538 45 l 2,24,25
 1538 0 1538 0 1493 0 c 2,26,-1
 1407 0 l 2,27,28
 1362 0 1362 0 1362 45 c 2,29,-1
 1362 626 l 2,30,31
 1362 822 1362 822 1313 879.5 c 128,-1,32
 1264 937 1264 937 1162 937 c 256,33,34
 1062 937 1062 937 995 851.5 c 128,-1,35
 928 766 928 766 928 594 c 2,36,-1
 928 45 l 2,37,38
 928 0 928 0 883 0 c 2,39,-1
 797 0 l 2,40,41
 752 0 752 0 752 45 c 2,42,-1
 752 626 l 2,43,44
 752 822 752 822 703 879.5 c 128,-1,45
 654 937 654 937 552 937 c 256,46,47
 452 937 452 937 385 859.5 c 128,-1,48
 318 782 318 782 318 594 c 2,49,-1
 318 45 l 2,50,51
 318 0 318 0 273 0 c 2,52,-1
 187 0 l 2,0,1
EndSplineSet
Fore
SplineSet
196 0 m 2,0,1
 136 0 136 0 136 60 c 2,2,-1
 136 990 l 2,3,4
 136 1050 136 1050 196 1050 c 2,5,-1
 354 1050 l 2,6,7
 414 1050 414 1050 414 990 c 2,8,-1
 414 932 l 1,9,-1
 418 932 l 1,10,11
 447 996 447 996 516 1033 c 128,-1,12
 585 1070 585 1070 645 1070 c 256,13,14
 765 1070 765 1070 831.5 1014 c 128,-1,15
 898 958 898 958 923 889 c 1,16,-1
 927 889 l 1,17,18
 1014 1002 1014 1002 1084.5 1036 c 128,-1,19
 1155 1070 1155 1070 1265 1070 c 256,20,21
 1413 1070 1413 1070 1514.5 972 c 128,-1,22
 1616 874 1616 874 1616 614 c 2,23,-1
 1616 60 l 2,24,25
 1616 0 1616 0 1556 0 c 2,26,-1
 1396 0 l 2,27,28
 1336 0 1336 0 1336 60 c 2,29,-1
 1336 542 l 2,30,31
 1336 760 1336 760 1306.5 817 c 128,-1,32
 1277 874 1277 874 1202 874 c 256,33,34
 1132 874 1132 874 1074 792 c 128,-1,35
 1016 710 1016 710 1016 454 c 2,36,-1
 1016 60 l 2,37,38
 1016 0 1016 0 956 0 c 2,39,-1
 796 0 l 2,40,41
 736 0 736 0 736 60 c 2,42,-1
 736 542 l 2,43,44
 736 760 736 760 706.5 817 c 128,-1,45
 677 874 677 874 602 874 c 256,46,47
 532 874 532 874 474 792.5 c 128,-1,48
 416 711 416 711 416 454 c 2,49,-1
 416 60 l 2,50,51
 416 0 416 0 356 0 c 2,52,-1
 196 0 l 2,0,1
EndSplineSet
EndChar

StartChar: afii10044
Encoding: 1066 1066 105
Width: 1746
Flags: W
HStem: 0 244<848 1283.49> 626 244<848 1283.49> 1186 248<36.2156 556>
VStem: 556 292<244 626 870 1186> 1349 312<305.785 564.215>
LayerCount: 2
Fore
SplineSet
109 1186 m 2,0,1
 34 1186 34 1186 34 1251 c 2,2,-1
 34 1369 l 2,3,4
 34 1434 34 1434 109 1434 c 2,5,-1
 778 1434 l 2,6,7
 848 1434 848 1434 848 1359 c 2,8,-1
 848 870 l 1,9,-1
 1003 870 l 2,10,11
 1373 870 1373 870 1517 752.5 c 128,-1,12
 1661 635 1661 635 1661 435 c 256,13,14
 1661 235 1661 235 1517 117.5 c 128,-1,15
 1373 0 1373 0 1003 0 c 2,16,-1
 626 0 l 2,17,18
 556 0 556 0 556 75 c 2,19,-1
 556 1186 l 1,20,-1
 109 1186 l 2,0,1
848 244 m 1,21,-1
 974 244 l 2,22,23
 1184 244 1184 244 1266.5 279.5 c 128,-1,24
 1349 315 1349 315 1349 435 c 256,25,26
 1349 555 1349 555 1266.5 590.5 c 128,-1,27
 1184 626 1184 626 974 626 c 2,28,-1
 848 626 l 1,29,-1
 848 244 l 1,21,-1
EndSplineSet
EndChar

StartChar: afii10043
Encoding: 1065 1065 106
Width: 2232
Flags: W
HStem: -370 21G<1952 2142> 0 248<452 924 1216 1688> 1414 20G<195 417 959 1181 1723 1945>
VStem: 160 292<248 1430.91> 924 292<248 1430.91> 1688 292<248 1430.91> 1922 250<-368.616 0>
LayerCount: 2
Fore
SplineSet
230 0 m 2,0,1
 160 0 160 0 160 75 c 2,2,-1
 160 1359 l 2,3,4
 160 1434 160 1434 230 1434 c 2,5,-1
 382 1434 l 2,6,7
 452 1434 452 1434 452 1359 c 2,8,-1
 452 248 l 1,9,-1
 924 248 l 1,10,-1
 924 1359 l 2,11,12
 924 1434 924 1434 994 1434 c 2,13,-1
 1146 1434 l 2,14,15
 1216 1434 1216 1434 1216 1359 c 2,16,-1
 1216 248 l 1,17,-1
 1688 248 l 1,18,-1
 1688 1359 l 2,19,20
 1688 1434 1688 1434 1758 1434 c 2,21,-1
 1910 1434 l 2,22,23
 1980 1434 1980 1434 1980 1359 c 2,24,-1
 1980 248 l 17,25,-1
 2102 248 l 2,26,27
 2172 248 2172 248 2172 173 c 2,28,-1
 2172 -300 l 2,29,30
 2172 -370 2172 -370 2112 -370 c 2,31,-1
 1982 -370 l 2,32,33
 1922 -370 1922 -370 1922 -300 c 2,34,-1
 1922 0 l 25,35,-1
 230 0 l 2,0,1
EndSplineSet
EndChar

StartChar: afii10048
Encoding: 1070 1070 107
Width: 2096
Flags: W
HStem: -34 236<1133.8 1514.81> 0 21G<195 417> 622 248<452 646.163> 1232 236<1134.19 1514.81> 1414 20G<195 417>
VStem: 160 292<3.09448 622 870 1430.91> 642 308<425.477 622 870 1006.66> 1698 312<424.146 1009.85>
LayerCount: 2
Fore
SplineSet
230 0 m 2,0,1
 160 0 160 0 160 75 c 2,2,-1
 160 1359 l 2,3,4
 160 1434 160 1434 230 1434 c 2,5,-1
 382 1434 l 2,6,7
 452 1434 452 1434 452 1359 c 2,8,-1
 452 870 l 1,9,-1
 648 870 l 1,10,11
 656 1080 656 1080 825 1274 c 128,-1,12
 994 1468 994 1468 1324 1468 c 256,13,14
 1654 1468 1654 1468 1832 1265 c 128,-1,15
 2010 1062 2010 1062 2010 717 c 256,16,17
 2010 372 2010 372 1832 169 c 128,-1,18
 1654 -34 1654 -34 1324 -34 c 256,19,20
 994 -34 994 -34 824.5 160.5 c 128,-1,21
 655 355 655 355 642 622 c 1,22,-1
 452 622 l 1,23,-1
 452 75 l 2,24,25
 452 0 452 0 382 0 c 2,26,-1
 230 0 l 2,0,1
950 717 m 256,27,28
 950 467 950 467 1039.5 334.5 c 128,-1,29
 1129 202 1129 202 1324 202 c 256,30,31
 1519 202 1519 202 1608.5 334.5 c 128,-1,32
 1698 467 1698 467 1698 717 c 256,33,34
 1698 967 1698 967 1608.5 1099.5 c 128,-1,35
 1519 1232 1519 1232 1324 1232 c 256,36,37
 1129 1232 1129 1232 1039.5 1099.5 c 128,-1,38
 950 967 950 967 950 717 c 256,27,28
EndSplineSet
EndChar

StartChar: M
Encoding: 77 77 108
Width: 1828
Flags: W
HStem: 0 21G<195 417 798.5 1029.5 1411 1633> 1414 20G<195 549 1279 1633>
VStem: 160 292<3.09448 1021> 1376 292<3.09448 1021>
DStem2: 603 1354 454 1021 0.293871 -0.955845<274.51 1099.3> 954 477 1085 81 0.293871 0.955845<-181.389 643.406>
LayerCount: 2
Back
SplineSet
378.75 1069.62 m 2,8,-1
 917.25 -678.625 l 1026,9,10
790.75 -678.625 m 2,16,-1
 1329.25 1069.62 l 1026,17,18
468.5 1598.25 m 2,8,-1
 827.5 432.75 l 1026,9,10
880.5 432.75 m 2,16,-1
 1239.5 1598.25 l 1026,17,18
EndSplineSet
Fore
SplineSet
230 0 m 2,0,1
 160 0 160 0 160 75 c 2,2,-1
 160 1359 l 2,3,4
 160 1434 160 1434 230 1434 c 2,5,-1
 520 1434 l 2,6,7
 578 1434 578 1434 603 1354 c 2,8,-1
 874 477 l 2,9,10
 892 420 892 420 899 383.5 c 128,-1,11
 906 347 906 347 911 297 c 1,12,-1
 917 297 l 1,13,14
 922 347 922 347 929 383.5 c 128,-1,15
 936 420 936 420 954 477 c 2,16,-1
 1225 1354 l 2,17,18
 1250 1434 1250 1434 1308 1434 c 2,19,-1
 1598 1434 l 2,20,21
 1668 1434 1668 1434 1668 1359 c 2,22,-1
 1668 75 l 2,23,24
 1668 0 1668 0 1598 0 c 2,25,-1
 1446 0 l 2,26,27
 1376 0 1376 0 1376 75 c 2,28,-1
 1376 901 l 2,29,30
 1376 961 1376 961 1381 1021 c 9,31,-1
 1374 1021 l 25,32,-1
 1085 81 l 2,33,34
 1060 0 1060 0 999 0 c 2,35,-1
 829 0 l 2,36,37
 768 0 768 0 743 81 c 2,38,-1
 454 1021 l 25,39,-1
 447 1021 l 17,40,41
 452 961 452 961 452 901 c 2,42,-1
 452 75 l 2,43,44
 452 0 452 0 382 0 c 2,45,-1
 230 0 l 2,0,1
EndSplineSet
EndChar

StartChar: Z
Encoding: 90 90 109
Width: 1252
Flags: W
HStem: 0 248<438 1188.78> 1186 248<103.216 762>
DStem2: 112 286 438 250 0.58726 0.809398<162.309 1108.56>
LayerCount: 2
Back
SplineSet
298.5 61.5 m 2,5,-1
 1273.5 1408.5 l 1033,6,-1
108 286 m 2,5,-1
 758 1184 l 1033,6,-1
120 0 m 2,0,1
 65 0 65 0 65 45 c 2,2,-1
 65 93 l 2,3,4
 65 141 65 141 95 182 c 2,5,-1
 881 1268 l 9,6,-1
 881 1272 l 25,7,8
 841 1270 841 1270 801 1270 c 2,9,-1
 152 1270 l 2,10,11
 97 1270 97 1270 97 1315 c 2,12,-1
 97 1389 l 2,13,14
 97 1434 97 1434 152 1434 c 2,15,-1
 1074 1434 l 2,16,17
 1129 1434 1129 1434 1129 1389 c 2,18,-1
 1129 1358 l 2,19,20
 1129 1325 1129 1325 1109 1297 c 2,21,-1
 313 166 l 9,22,-1
 313 162 l 17,23,24
 340 164 340 164 393 164 c 2,25,-1
 1096 164 l 2,26,27
 1151 164 1151 164 1151 119 c 2,28,-1
 1151 45 l 2,29,30
 1151 0 1151 0 1096 0 c 2,31,-1
 120 0 l 2,0,1
EndSplineSet
Fore
SplineSet
136 0 m 2,0,1
 61 0 61 0 61 65 c 2,2,-1
 61 147 l 2,3,4
 61 216 61 216 112 286 c 2,5,-1
 762 1184 l 9,6,-1
 762 1191 l 25,7,8
 702 1186 702 1186 642 1186 c 2,9,-1
 176 1186 l 2,10,11
 101 1186 101 1186 101 1251 c 2,12,-1
 101 1369 l 2,13,14
 101 1434 101 1434 176 1434 c 2,15,-1
 1088 1434 l 2,16,17
 1163 1434 1163 1434 1163 1369 c 2,18,-1
 1163 1302 l 2,19,20
 1163 1249 1163 1249 1128 1201 c 2,21,-1
 438 250 l 9,22,-1
 438 243 l 17,23,24
 498 248 498 248 558 248 c 2,25,-1
 1116 248 l 2,26,27
 1191 248 1191 248 1191 183 c 2,28,-1
 1191 65 l 2,29,30
 1191 0 1191 0 1116 0 c 2,31,-1
 136 0 l 2,0,1
EndSplineSet
EndChar

StartChar: afii10026
Encoding: 1048 1048 110
Width: 1492
Flags: W
HStem: 0 21G<195 464 1075 1297> 1414 20G<195 417 1028 1297>
VStem: 160 292<450 1430.91> 1040 292<3.09448 984>
DStem2: 454 450 548 70 0.472489 0.881337<0 746.567>
LayerCount: 2
Back
SplineSet
230 0 m 2,0,1
 160 0 160 0 160 75 c 2,2,-1
 160 1359 l 2,3,4
 160 1434 160 1434 230 1434 c 2,5,-1
 382 1434 l 2,6,7
 452 1434 452 1434 452 1359 c 2,8,-1
 452 540 l 2,9,10
 452 480 452 480 447 420 c 25,11,-1
 454 420 l 17,12,-1
 954 1384 l 2,13,14
 979.934 1434 979.934 1434 1074 1434 c 2,15,-1
 1262 1434 l 2,16,17
 1332 1434 1332 1434 1332 1359 c 2,18,-1
 1332 75 l 2,19,20
 1332 0 1332 0 1262 0 c 2,21,-1
 1110 0 l 2,22,23
 1040 0 1040 0 1040 75 c 2,24,-1
 1040 894 l 2,25,26
 1040 954 1040 954 1045 1014 c 9,27,-1
 1038 1014 l 17,28,-1
 538 50 l 2,29,30
 512.066 0 512.066 0 418 0 c 2,31,-1
 230 0 l 2,0,1
EndSplineSet
Fore
SplineSet
230 0 m 2,0,1
 160 0 160 0 160 75 c 2,2,-1
 160 1359 l 2,3,4
 160 1434 160 1434 230 1434 c 2,5,-1
 382 1434 l 2,6,7
 452 1434 452 1434 452 1359 c 2,8,-1
 452 570 l 2,9,10
 452 510 452 510 447 450 c 25,11,-1
 454 450 l 17,12,-1
 944 1364 l 2,13,14
 982 1434 982 1434 1074 1434 c 2,15,-1
 1262 1434 l 2,16,17
 1332 1434 1332 1434 1332 1359 c 2,18,-1
 1332 75 l 2,19,20
 1332 0 1332 0 1262 0 c 2,21,-1
 1110 0 l 2,22,23
 1040 0 1040 0 1040 75 c 2,24,-1
 1040 864 l 2,25,26
 1040 924 1040 924 1045 984 c 9,27,-1
 1038 984 l 17,28,-1
 548 70 l 2,29,30
 510 0 510 0 418 0 c 2,31,-1
 230 0 l 2,0,1
EndSplineSet
EndChar

StartChar: afii10049
Encoding: 1071 1071 111
Width: 1426
Flags: W
HStem: 0 21G<103 366 1009 1231> 573 244<766.508 974> 1190 244<507.885 974>
VStem: 133 296<886.582 1122.17> 974 292<3.09448 573 817 1190>
DStem2: 113 86 430 59 0.555899 0.83125<53.0598 663.407>
LayerCount: 2
Fore
SplineSet
151 0 m 6,0,1
 55 0 55 0 113 86 c 2,2,-1
 327 406 l 2,3,4
 356 449 356 449 422.5 523.5 c 128,-1,5
 489 598 489 598 553 636 c 1,6,-1
 553 638 l 1,7,8
 352 648 352 648 242.5 757.5 c 128,-1,9
 133 867 133 867 133 1011 c 256,10,11
 133 1218 133 1218 271 1326 c 128,-1,12
 409 1434 409 1434 732 1434 c 2,13,-1
 1196 1434 l 2,14,15
 1266 1434 1266 1434 1266 1359 c 2,16,-1
 1266 75 l 2,17,18
 1266 0 1266 0 1196 0 c 2,19,-1
 1044 0 l 2,20,21
 974 0 974 0 974 75 c 2,22,-1
 974 573 l 1,23,-1
 913 573 l 2,24,25
 816 573 816 573 757 523 c 128,-1,26
 698 473 698 473 639 382 c 2,27,-1
 430 59 l 2,28,29
 392 0 392 0 340 0 c 2,30,-1
 151 0 l 6,0,1
429 1013 m 256,31,32
 429 882 429 882 536 849.5 c 128,-1,33
 643 817 643 817 784 817 c 2,34,-1
 974 817 l 1,35,-1
 974 1190 l 1,36,-1
 746 1190 l 2,37,38
 595 1190 595 1190 512 1150 c 128,-1,39
 429 1110 429 1110 429 1013 c 256,31,32
EndSplineSet
EndChar

StartChar: S
Encoding: 83 83 112
Width: 1308
Flags: W
LayerCount: 2
Fore
SplineSet
145 107 m 256,0,1
 83 154 83 154 115 202 c 258,2,-1
 192 318 l 258,3,4
 230 375 230 375 303 324 c 256,5,6
 359 285 359 285 449.5 243.5 c 128,-1,7
 540 202 540 202 640 202 c 256,8,9
 710 202 710 202 775 218 c 128,-1,10
 840 234 840 234 874 280 c 128,-1,11
 908 326 908 326 908 389 c 256,12,13
 908 434 908 434 893 468 c 128,-1,14
 878 502 878 502 844 524 c 128,-1,15
 810 546 810 546 774 561 c 256,16,17
 711 587 711 587 615.5 612.5 c 128,-1,18
 520 638 520 638 427 674 c 256,19,20
 344 706 344 706 275 762 c 128,-1,21
 206 818 206 818 168 888 c 128,-1,22
 130 958 130 958 130 1075 c 256,23,24
 130 1214 130 1214 220 1313 c 128,-1,25
 310 1412 310 1412 427 1440 c 128,-1,26
 544 1468 544 1468 663 1468 c 256,27,28
 781 1468 781 1468 906.5 1432 c 152,-1,29
 1032 1396 1032 1396 1096 1342 c 256,30,31
 1159 1289 1159 1289 1127 1246 c 258,32,-1
 1046 1137 l 258,33,34
 1005 1081 1005 1081 936 1128 c 256,35,36
 892 1158 892 1158 815.5 1195 c 128,-1,37
 739 1232 739 1232 656 1232 c 256,38,39
 597 1232 597 1232 547.5 1222 c 128,-1,40
 498 1212 498 1212 460 1174 c 128,-1,41
 422 1136 422 1136 422 1080 c 256,42,43
 422 1026 422 1026 450 992.5 c 128,-1,44
 478 959 478 959 512 942.5 c 128,-1,45
 546 926 546 926 581 915 c 256,46,47
 689 880 689 880 774 853.5 c 128,-1,48
 859 827 859 827 931 795 c 256,49,50
 1031 750 1031 750 1084 705 c 128,-1,51
 1137 660 1137 660 1171.5 582 c 128,-1,52
 1206 504 1206 504 1206 396 c 256,53,54
 1206 236 1206 236 1104 131.5 c 128,-1,55
 1002 27 1002 27 877.5 -3.5 c 128,-1,56
 753 -34 753 -34 635 -34 c 256,57,58
 461 -34 461 -34 352 -0.5 c 152,-1,59
 243 33 243 33 145 107 c 256,0,1
EndSplineSet
EndChar

StartChar: afii10025
Encoding: 1047 1047 113
Width: 1354
Flags: W
HStem: -34 236<442.665 851.346> 636 236<427.216 836.458> 1232 236<430.713 843.609>
VStem: 903 296<937.666 1176.58> 938 312<278.571 561.268>
LayerCount: 2
Fore
SplineSet
124 150 m 256,0,1
 74 207 74 207 115 249 c 258,2,-1
 211 348 l 258,3,4
 253 392 253 392 321 331 c 256,5,6
 369 288 369 288 444 245 c 128,-1,7
 519 202 519 202 642 202 c 256,8,9
 759 202 759 202 848.5 245 c 128,-1,10
 938 288 938 288 938 414 c 256,11,12
 938 540 938 540 863.5 588 c 128,-1,13
 789 636 789 636 666 636 c 2,14,-1
 500 636 l 2,15,16
 425 636 425 636 425 699 c 2,17,-1
 425 807 l 2,18,19
 425 872 425 872 500 872 c 2,20,-1
 624 872 l 2,21,22
 793 872 793 872 848 925 c 128,-1,23
 903 978 903 978 903 1062 c 256,24,25
 903 1149 903 1149 840.5 1190.5 c 128,-1,26
 778 1232 778 1232 642 1232 c 256,27,28
 537 1232 537 1232 458.5 1199.5 c 128,-1,29
 380 1167 380 1167 341 1131 c 256,30,31
 276 1072 276 1072 230 1122 c 258,32,-1
 147 1213 l 258,33,34
 100 1264 100 1264 160 1313 c 256,35,36
 267 1401 267 1401 385.5 1434.5 c 128,-1,37
 504 1468 504 1468 652 1468 c 256,38,39
 922 1468 922 1468 1060.5 1364 c 128,-1,40
 1199 1260 1199 1260 1199 1092 c 256,41,42
 1199 948 1199 948 1121.5 871.5 c 128,-1,43
 1044 795 1044 795 931 767 c 1,44,-1
 931 763 l 1,45,46
 1056 750 1056 750 1153 651 c 128,-1,47
 1250 552 1250 552 1250 397 c 256,48,49
 1250 195 1250 195 1088.5 80.5 c 128,-1,50
 927 -34 927 -34 637 -34 c 256,51,52
 431 -34 431 -34 315.5 14.5 c 128,-1,53
 200 63 200 63 124 150 c 256,0,1
EndSplineSet
EndChar

StartChar: afii10021
Encoding: 1044 1044 114
Width: 1550
Flags: W
HStem: -370 21G<90 280 1270 1460> 0 248<489 1008> 1186 248<670 1008>
VStem: 60 250<-368.616 0> 420 250<566.845 1186> 1008 292<248 1186> 1240 250<-368.616 0>
LayerCount: 2
Back
SplineSet
22 -10 m 260,0,1
 -20 4 -20 4 -8 58 c 6,2,-1
 18 172 l 6,3,4
 30 225 30 225 81 210 c 260,5,6
 109 202 109 202 139 202 c 4,7,8
 292 202 292 202 350 420.5 c 132,-1,9
 408 639 408 639 408 1090 c 6,10,-1
 408 1359 l 6,11,12
 408 1434 408 1434 478 1434 c 6,13,-1
 1218 1434 l 6,14,15
 1288 1434 1288 1434 1288 1359 c 6,16,-1
 1288 75 l 6,17,18
 1288 0 1288 0 1218 0 c 6,19,-1
 1066 0 l 6,20,21
 996 0 996 0 996 75 c 6,22,-1
 996 1186 l 5,23,-1
 658 1186 l 5,24,-1
 658 1034 l 6,25,26
 658 439 658 439 541 202.5 c 132,-1,27
 424 -34 424 -34 162 -34 c 4,28,29
 96 -34 96 -34 22 -10 c 260,0,1
EndSplineSet
Fore
SplineSet
120 -370 m 2,0,1
 60 -370 60 -370 60 -300 c 2,2,-1
 60 173 l 2,3,4
 60 248 60 248 150 248 c 2,5,-1
 193 248 l 1,6,7
 324 384 324 384 372 550 c 128,-1,8
 420 716 420 716 420 1100 c 2,9,-1
 420 1359 l 2,10,11
 420 1434 420 1434 490 1434 c 2,12,-1
 1230 1434 l 2,13,14
 1300 1434 1300 1434 1300 1359 c 2,15,-1
 1300 248 l 1,16,-1
 1400 248 l 2,17,18
 1490 248 1490 248 1490 173 c 2,19,-1
 1490 -300 l 2,20,21
 1490 -370 1490 -370 1430 -370 c 2,22,-1
 1300 -370 l 2,23,24
 1240 -370 1240 -370 1240 -300 c 2,25,-1
 1240 0 l 1,26,-1
 310 0 l 1,27,-1
 310 -300 l 2,28,29
 310 -370 310 -370 250 -370 c 2,30,-1
 120 -370 l 2,0,1
489 248 m 1,31,-1
 1008 248 l 1,32,-1
 1008 1186 l 1,33,-1
 670 1186 l 1,34,-1
 670 1044 l 2,35,36
 670 688 670 688 619 496 c 128,-1,37
 568 304 568 304 489 248 c 1,31,-1
EndSplineSet
EndChar

StartChar: afii10047
Encoding: 1069 1069 115
Width: 1418
Flags: MW
HStem: -34 236<442.574 850.778> 622 248<406.216 1012> 1232 236<439.736 854.818>
VStem: 1014 318<399.593 622>
LayerCount: 2
Back
SplineSet
1332 717 m 256,0,1
 1332 339 1332 339 1154.5 152.5 c 128,-1,2
 977 -34 977 -34 652 -34 c 256,3,4
 450 -34 450 -34 320 18 c 152,-1,5
 190 70 190 70 119 161 c 256,6,7
 71 222 71 222 115 261 c 258,8,-1
 222 357 l 258,9,10
 272 401 272 401 331 334 c 256,11,12
 367 292 367 292 448 247 c 152,-1,13
 529 202 529 202 642 202 c 256,14,15
 852 202 852 202 936 324.5 c 128,-1,16
 1020 447 1020 447 1020 717 c 256,17,18
 1020 990 1020 990 936 1111 c 128,-1,19
 852 1232 852 1232 642 1232 c 256,20,21
 547 1232 547 1232 475 1197.5 c 128,-1,22
 403 1163 403 1163 370 1122 c 256,23,24
 316 1059 316 1059 260 1103 c 258,25,-1
 154 1187 l 258,26,27
 110 1221 110 1221 159 1288 c 256,28,29
 232 1388 232 1388 347 1428 c 128,-1,30
 462 1468 462 1468 652 1468 c 256,31,32
 982 1468 982 1468 1157 1281.5 c 128,-1,33
 1332 1095 1332 1095 1332 717 c 256,0,1
1121 622 m 257,34,-1
 479 622 l 2,35,36
 404 622 404 622 404 687 c 2,37,-1
 404 805 l 2,38,39
 404 870 404 870 479 870 c 2,40,-1
 1117 870 l 257,41,-1
 1121 622 l 257,34,-1
1320 717 m 260,0,1
 1320 372 1320 372 1142.5 169 c 132,-1,2
 965 -34 965 -34 640 -34 c 260,3,4
 438 -34 438 -34 297 37 c 156,-1,5
 156 108 156 108 98 208 c 260,6,7
 59 275 59 275 108 308 c 262,8,-1
 228 388 l 262,9,10
 283 425 283 425 332 350 c 260,11,12
 362 304 362 304 439.5 253 c 156,-1,13
 517 202 517 202 630 202 c 260,14,15
 840 202 840 202 924 334.5 c 132,-1,16
 1008 467 1008 467 1008 717 c 260,17,18
 1008 967 1008 967 924 1099.5 c 132,-1,19
 840 1232 840 1232 630 1232 c 260,20,21
 535 1232 535 1232 464.5 1195 c 132,-1,22
 394 1158 394 1158 368 1112 c 260,23,24
 327 1040 327 1040 264 1074 c 262,25,-1
 144 1138 l 262,26,27
 96 1164 96 1164 132 1238 c 260,28,29
 186 1350 186 1350 318 1409 c 132,-1,30
 450 1468 450 1468 640 1468 c 260,31,32
 970 1468 970 1468 1145 1265 c 132,-1,33
 1320 1062 1320 1062 1320 717 c 260,0,1
125 172 m 256,0,1
 81 223 81 223 113 248 c 258,2,-1
 190 310 l 258,3,4
 223 337 223 337 266 286 c 256,5,6
 329 212 329 212 413 169 c 128,-1,7
 497 126 497 126 632 126 c 256,8,9
 877 126 877 126 988.5 258.5 c 128,-1,10
 1100 391 1100 391 1109 668 c 257,11,-1
 437 668 l 2,12,13
 382 668 382 668 382 713 c 2,14,-1
 382 787 l 2,15,16
 382 832 382 832 437 832 c 2,17,-1
 1105 832 l 257,18,19
 1087 1051 1087 1051 976 1179.5 c 128,-1,20
 865 1308 865 1308 620 1308 c 256,21,22
 511 1308 511 1308 422 1267.5 c 128,-1,23
 333 1227 333 1227 291 1170 c 256,24,25
 254 1119 254 1119 222 1147 c 258,26,-1
 153 1206 l 258,27,28
 119 1236 119 1236 165 1291 c 256,29,30
 228 1365 228 1365 345.5 1414.5 c 128,-1,31
 463 1464 463 1464 642 1464 c 256,32,33
 967 1464 967 1464 1140.5 1282.5 c 128,-1,34
 1314 1101 1314 1101 1314 719 c 256,35,36
 1314 339 1314 339 1140.5 154.5 c 128,-1,37
 967 -30 967 -30 642 -30 c 256,38,39
 449 -30 449 -30 323.5 28.5 c 128,-1,40
 198 87 198 87 125 172 c 256,0,1
EndSplineSet
Fore
SplineSet
119 161 m 256,0,1
 71 222 71 222 115 261 c 258,2,-1
 222 357 l 258,3,4
 272 401 272 401 331 334 c 256,5,6
 367 292 367 292 441.5 247 c 128,-1,7
 516 202 516 202 642 202 c 256,8,9
 852 202 852 202 926.5 313 c 128,-1,10
 1001 424 1001 424 1014 622 c 1,11,-1
 479 622 l 2,12,13
 404 622 404 622 404 687 c 2,14,-1
 404 805 l 2,15,16
 404 870 404 870 479 870 c 2,17,-1
 1012 870 l 1,18,19
 994 1027 994 1027 923 1129.5 c 128,-1,20
 852 1232 852 1232 642 1232 c 256,21,22
 540 1232 540 1232 462 1198.5 c 128,-1,23
 384 1165 384 1165 348 1126 c 256,24,25
 288 1061 288 1061 238 1107 c 258,26,-1
 147 1190 l 258,27,28
 98 1234 98 1234 152 1291 c 256,29,30
 248 1392 248 1392 360 1430 c 128,-1,31
 472 1468 472 1468 652 1468 c 256,32,33
 982 1468 982 1468 1157 1281.5 c 128,-1,34
 1332 1095 1332 1095 1332 717 c 256,35,36
 1332 339 1332 339 1154.5 152.5 c 128,-1,37
 977 -34 977 -34 652 -34 c 256,38,39
 428 -34 428 -34 309 18 c 128,-1,40
 190 70 190 70 119 161 c 256,0,1
EndSplineSet
EndChar

StartChar: afii10037
Encoding: 1059 1059 120
Width: 1382
Flags: W
HStem: -34 236<236.233 561.099> 1414 20G<63 315 1079.5 1326>
DStem2: 676 754 62 1348 0.467134 -0.884187<-792.472 224.79> 603 324 1332 1348 0.379377 0.925242<-135.728 0 295.132 1217.14>
LayerCount: 2
Back
SplineSet
228 15 m 256,39,40
 193 35 193 35 205 66 c 2,41,-1
 238 150 l 2,42,43
 254 190 254 190 293 164 c 256,44,45
 348 127 348 127 413 127 c 256,46,47
 494 127 494 127 536.5 153.5 c 128,-1,48
 579 180 579 180 606 224 c 2,49,-1
 636 272 l 9,50,-1
 66 1368 l 18,51,52
 32 1434 32 1434 93 1434 c 2,53,-1
 195 1434 l 2,54,55
 242 1434 242 1434 267 1385 c 10,56,-1
 612 716 l 2,57,58
 643 655 643 655 675.5 584 c 128,-1,59
 708 513 708 513 730 441 c 1,60,-1
 734 441 l 1,61,62
 750 519 750 519 774.5 590 c 128,-1,63
 799 661 799 661 828 732 c 2,64,-1
 1091 1385 l 18,65,66
 1111 1434 1111 1434 1163 1434 c 2,67,-1
 1265 1434 l 2,68,69
 1320 1434 1320 1434 1292 1368 c 10,70,-1
 855 331 l 2,71,72
 779 150 779 150 695 60 c 128,-1,73
 611 -30 611 -30 436 -30 c 256,74,75
 306 -30 306 -30 228 15 c 256,39,40
EndSplineSet
Fore
SplineSet
62 1348 m 22,0,1
 17 1434 17 1434 109 1434 c 2,2,-1
 286 1434 l 2,3,4
 344 1434 344 1434 378 1365 c 10,5,-1
 676 754 l 2,6,7
 705 695 705 695 720 637 c 128,-1,8
 735 579 735 579 743 524 c 1,9,-1
 747 524 l 1,10,11
 756 582 756 582 768 639.5 c 128,-1,12
 780 697 780 697 800 754 c 2,13,-1
 1021 1365 l 18,14,15
 1046 1434 1046 1434 1113 1434 c 2,16,-1
 1285 1434 l 2,17,18
 1367 1434 1367 1434 1332 1348 c 10,19,-1
 915 331 l 2,20,21
 824 109 824 109 727 37.5 c 128,-1,22
 630 -34 630 -34 452 -34 c 256,23,24
 323 -34 323 -34 245 0 c 256,25,26
 184 27 184 27 199 78 c 2,27,-1
 236 207 l 2,28,29
 249 252 249 252 310 227 c 256,30,31
 372 202 372 202 419 202 c 256,32,33
 477 202 477 202 521 218 c 128,-1,34
 565 234 565 234 589 291 c 2,35,-1
 603 324 l 9,36,-1
 62 1348 l 22,0,1
EndSplineSet
EndChar

StartChar: cyrBreve
Encoding: 63185 63185 122
Width: 1492
Flags: MW
HStem: 1540 158<611.677 880.323> 1857 20G<367 539 953 1125>
VStem: 338 235<1731 1875.34> 919 235<1731 1875.34>
LayerCount: 2
Back
SplineSet
360 1819 m 2,0,1
 356 1867 356 1867 408 1867 c 2,2,-1
 489 1867 l 2,3,4
 531 1867 531 1867 538 1819 c 2,5,-1
 543 1783 l 2,6,7
 549 1736 549 1736 602.5 1710 c 128,-1,8
 656 1684 656 1684 746 1684 c 256,9,10
 836 1684 836 1684 889.5 1710 c 128,-1,11
 943 1736 943 1736 949 1783 c 2,12,-1
 954 1819 l 2,13,14
 961 1867 961 1867 1003 1867 c 2,15,-1
 1084 1867 l 2,16,17
 1136 1867 1136 1867 1132 1819 c 2,18,-1
 1126 1749 l 2,19,20
 1118 1660 1118 1660 1004.5 1604 c 128,-1,21
 891 1548 891 1548 746 1548 c 256,22,23
 601 1548 601 1548 487.5 1604 c 128,-1,24
 374 1660 374 1660 366 1749 c 2,25,-1
 360 1819 l 2,0,1
EndSplineSet
Fore
SplineSet
338 1809 m 2,0,1
 333 1877 333 1877 401 1877 c 2,2,-1
 509 1877 l 2,3,4
 569 1877 569 1877 573 1829 c 2,5,-1
 576 1796 l 2,6,7
 579 1762 579 1762 618 1730 c 128,-1,8
 657 1698 657 1698 746 1698 c 256,9,10
 835 1698 835 1698 874 1730 c 128,-1,11
 913 1762 913 1762 916 1796 c 2,12,-1
 919 1829 l 2,13,14
 923 1877 923 1877 983 1877 c 2,15,-1
 1091 1877 l 2,16,17
 1159 1877 1159 1877 1154 1809 c 2,18,-1
 1150 1756 l 2,19,20
 1141 1636 1141 1636 1018.5 1588 c 128,-1,21
 896 1540 896 1540 746 1540 c 256,22,23
 596 1540 596 1540 473.5 1588 c 128,-1,24
 351 1636 351 1636 342 1756 c 2,25,-1
 338 1809 l 2,0,1
EndSplineSet
EndChar

StartChar: dieresis
Encoding: 168 168 123
Width: 614
Flags: W
HStem: 1206 236<-22.8135 210.813 403.187 636.813>
VStem: -24 236<1207.19 1440.81> 402 236<1207.19 1440.81>
LayerCount: 2
Back
SplineSet
61 1240 m 2,0,1
 16 1240 16 1240 16 1285 c 2,2,-1
 16 1371 l 2,3,4
 16 1416 16 1416 61 1416 c 2,5,-1
 147 1416 l 2,6,7
 192 1416 192 1416 192 1371 c 2,8,-1
 192 1285 l 2,9,10
 192 1240 192 1240 147 1240 c 2,11,-1
 61 1240 l 2,0,1
467 1240 m 2,12,13
 422 1240 422 1240 422 1285 c 2,14,-1
 422 1371 l 2,15,16
 422 1416 422 1416 467 1416 c 2,17,-1
 553 1416 l 2,18,19
 598 1416 598 1416 598 1371 c 2,20,-1
 598 1285 l 2,21,22
 598 1240 598 1240 553 1240 c 2,23,-1
 467 1240 l 2,12,13
EndSplineSet
Fore
SplineSet
36 1206 m 2,0,1
 -24 1206 -24 1206 -24 1266 c 2,2,-1
 -24 1382 l 2,3,4
 -24 1442 -24 1442 36 1442 c 2,5,-1
 152 1442 l 2,6,7
 212 1442 212 1442 212 1382 c 2,8,-1
 212 1266 l 2,9,10
 212 1206 212 1206 152 1206 c 2,11,-1
 36 1206 l 2,0,1
462 1206 m 2,12,13
 402 1206 402 1206 402 1266 c 2,14,-1
 402 1382 l 2,15,16
 402 1442 402 1442 462 1442 c 2,17,-1
 578 1442 l 2,18,19
 638 1442 638 1442 638 1382 c 2,20,-1
 638 1266 l 2,21,22
 638 1206 638 1206 578 1206 c 2,23,-1
 462 1206 l 2,12,13
EndSplineSet
EndChar

StartChar: dieresis.cap
Encoding: 63179 63179 125
Width: 820
Flags: W
HStem: 1530 256<13.8452 298.155 521.845 806.155>
VStem: 10 292<1533.09 1782.91> 518 292<1533.09 1782.91>
LayerCount: 2
Back
SplineSet
125 1550 m 2,0,1
 80 1550 80 1550 80 1595 c 2,2,-1
 80 1687 l 2,3,4
 80 1732 80 1732 125 1732 c 2,5,-1
 217 1732 l 2,6,7
 262 1732 262 1732 262 1687 c 2,8,-1
 262 1595 l 2,9,10
 262 1550 262 1550 217 1550 c 2,11,-1
 125 1550 l 2,0,1
603 1550 m 2,12,13
 558 1550 558 1550 558 1595 c 2,14,-1
 558 1687 l 2,15,16
 558 1732 558 1732 603 1732 c 2,17,-1
 695 1732 l 2,18,19
 740 1732 740 1732 740 1687 c 2,20,-1
 740 1595 l 2,21,22
 740 1550 740 1550 695 1550 c 2,23,-1
 603 1550 l 2,12,13
EndSplineSet
Fore
SplineSet
80 1530 m 2,0,1
 10 1530 10 1530 10 1605 c 2,2,-1
 10 1711 l 2,3,4
 10 1786 10 1786 80 1786 c 2,5,-1
 232 1786 l 2,6,7
 302 1786 302 1786 302 1711 c 2,8,-1
 302 1605 l 2,9,10
 302 1530 302 1530 232 1530 c 2,11,-1
 80 1530 l 2,0,1
588 1530 m 2,12,13
 518 1530 518 1530 518 1605 c 2,14,-1
 518 1711 l 2,15,16
 518 1786 518 1786 588 1786 c 2,17,-1
 740 1786 l 2,18,19
 810 1786 810 1786 810 1711 c 2,20,-1
 810 1605 l 2,21,22
 810 1530 810 1530 740 1530 c 2,23,-1
 588 1530 l 2,12,13
EndSplineSet
EndChar

StartChar: r
Encoding: 114 114 129
Width: 786
Flags: W
HStem: 0 21G<166 386> 874 196<532.74 748.206> 1030 20G<166 384>
VStem: 136 280<1.18652 720.499 908 1048.54>
LayerCount: 2
Fore
SplineSet
196 0 m 2,0,1
 136 0 136 0 136 60 c 2,2,-1
 136 990 l 2,3,4
 136 1050 136 1050 196 1050 c 2,5,-1
 354 1050 l 2,6,7
 414 1050 414 1050 414 990 c 2,8,-1
 414 908 l 1,9,-1
 418 908 l 1,10,11
 444 972 444 972 505 1021 c 128,-1,12
 566 1070 566 1070 649 1070 c 256,13,14
 706 1070 706 1070 743 1056 c 256,15,16
 778 1043 778 1043 770 1008 c 2,17,-1
 742 889 l 2,18,19
 733 849 733 849 688 865 c 256,20,21
 662 874 662 874 638 874 c 256,22,23
 542 874 542 874 479 759 c 128,-1,24
 416 644 416 644 416 424 c 2,25,-1
 416 60 l 2,26,27
 416 0 416 0 356 0 c 2,28,-1
 196 0 l 2,0,1
EndSplineSet
EndChar

StartChar: F
Encoding: 70 70 130
Width: 1176
Flags: W
HStem: 0 21G<195 417> 590 248<452 1011.78> 1186 248<452 1093.78>
VStem: 160 292<3.09448 590 838 1186>
LayerCount: 2
Fore
SplineSet
230 0 m 2,0,1
 160 0 160 0 160 75 c 2,2,-1
 160 1359 l 2,3,4
 160 1434 160 1434 230 1434 c 2,5,-1
 1021 1434 l 2,6,7
 1096 1434 1096 1434 1096 1369 c 2,8,-1
 1096 1251 l 2,9,10
 1096 1186 1096 1186 1021 1186 c 2,11,-1
 452 1186 l 9,12,-1
 452 838 l 1,13,-1
 939 838 l 2,14,15
 1014 838 1014 838 1014 773 c 2,16,-1
 1014 655 l 2,17,18
 1014 590 1014 590 939 590 c 2,19,-1
 452 590 l 1,20,-1
 452 75 l 2,21,22
 452 0 452 0 382 0 c 2,23,-1
 230 0 l 2,0,1
EndSplineSet
EndChar

StartChar: w
Encoding: 119 119 133
Width: 1604
Flags: W
HStem: 0 21G<348 584.5 1019.5 1256> 1030 20G<47.5 268 687 917 1336 1556.5>
DStem2: 488 316.5 629 67 0.235415 0.971895<-77.9527 552.884> 953 999 811.5 742 0.232295 -0.972645<149.413 779.671>
LayerCount: 2
Back
SplineSet
45 1001 m 2,0,1
 32 1050 32 1050 72 1050 c 2,2,-1
 177 1050 l 2,3,4
 213 1050 213 1050 222 1011 c 2,5,-1
 369 351 l 2,6,7
 376 322 376 322 390.5 260 c 128,-1,8
 405 198 405 198 411 169 c 1,9,-1
 415 169 l 1,10,11
 420 197 420 197 432.5 253 c 152,-1,12
 445 309 445 309 456 351 c 2,13,-1
 632 1011 l 2,14,15
 642 1050 642 1050 677 1050 c 2,16,-1
 767 1050 l 2,17,18
 802 1050 802 1050 812 1011 c 2,19,-1
 988 351 l 2,20,21
 999 309 999 309 1011.5 253 c 152,-1,22
 1024 197 1024 197 1029 169 c 1,23,-1
 1033 169 l 1,24,25
 1039 198 1039 198 1053.5 260 c 128,-1,26
 1068 322 1068 322 1075 351 c 2,27,-1
 1222 1011 l 2,28,29
 1231 1050 1231 1050 1267 1050 c 2,30,-1
 1372 1050 l 2,31,32
 1412 1050 1412 1050 1399 1001 c 2,33,-1
 1151 61 l 2,34,35
 1135 0 1135 0 1097 0 c 2,36,-1
 977 0 l 2,37,38
 939 -0 939 -0 923 61 c 2,39,-1
 753 722 l 2,40,41
 735 792 735 792 730.5 820 c 128,-1,42
 726 848 726 848 723 873 c 1,43,-1
 721 873 l 1,44,45
 718 848 718 848 713.5 820 c 128,-1,46
 709 792 709 792 691 722 c 2,47,-1
 521 61 l 2,48,49
 505 0 505 0 467 0 c 2,50,-1
 347 0 l 2,51,52
 309 -0 309 -0 293 61 c 2,53,-1
 45 1001 l 2,0,1
EndSplineSet
Fore
SplineSet
42 972 m 2,0,1
 20 1050 20 1050 75 1050 c 2,2,-1
 244 1050 l 2,3,4
 292 1050 292 1050 304 999 c 2,5,-1
 439 413 l 2,6,7
 451 362 451 362 460 315 c 128,-1,8
 469 268 469 268 471 238 c 1,9,-1
 477 238 l 1,10,11
 479 268 479 268 488 316.5 c 128,-1,12
 497 365 497 365 509 413 c 2,13,-1
 651 999 l 2,14,15
 663 1050 663 1050 711 1050 c 2,16,-1
 893 1050 l 2,17,18
 941 1050 941 1050 953 999 c 2,19,-1
 1095 413 l 2,20,21
 1107 365 1107 365 1116 316.5 c 128,-1,22
 1125 268 1125 268 1127 238 c 1,23,-1
 1133 238 l 1,24,25
 1135 268 1135 268 1144 315 c 128,-1,26
 1153 362 1153 362 1165 413 c 2,27,-1
 1300 999 l 2,28,29
 1312 1050 1312 1050 1360 1050 c 2,30,-1
 1529 1050 l 2,31,32
 1584 1050 1584 1050 1562 972 c 2,33,-1
 1302 67 l 2,34,35
 1283 0 1283 0 1229 0 c 2,36,-1
 1048 0 l 2,37,38
 991 0 991 0 975 67 c 2,39,-1
 830 660 l 2,40,41
 817 711 817 711 811.5 742 c 128,-1,42
 806 773 806 773 804 811 c 1,43,-1
 800 811 l 1,44,45
 798 773 798 773 792.5 742 c 128,-1,46
 787 711 787 711 774 660 c 2,47,-1
 629 67 l 2,48,49
 613 0 613 0 556 0 c 2,50,-1
 375 0 l 2,51,52
 321 0 321 0 302 67 c 2,53,-1
 42 972 l 2,0,1
EndSplineSet
EndChar

StartChar: L
Encoding: 76 76 134
Width: 1162
Flags: W
HStem: 0 248<452 1107.78> 1414 20G<195 422>
VStem: 160 292<248 1430.91>
LayerCount: 2
Fore
SplineSet
230 0 m 2,0,1
 160 0 160 0 160 75 c 2,2,-1
 160 1359 l 2,3,4
 160 1434 160 1434 230 1434 c 2,5,-1
 392 1434 l 2,6,7
 452 1434 452 1434 452 1359 c 2,8,-1
 452 248 l 17,9,-1
 1035 248 l 2,10,11
 1110 248 1110 248 1110 183 c 2,12,-1
 1110 65 l 2,13,14
 1110 0 1110 0 1035 0 c 2,15,-1
 230 0 l 2,0,1
EndSplineSet
EndChar

StartChar: D
Encoding: 68 68 135
Width: 1450
Flags: W
HStem: 0 248<452 856.49> 1188 246<452 860.096>
VStem: 160 292<248 1188> 1052 312<445.797 991.764>
LayerCount: 2
Fore
SplineSet
230 0 m 2,0,1
 160 0 160 0 160 75 c 2,2,-1
 160 1359 l 2,3,4
 160 1434 160 1434 230 1434 c 2,5,-1
 579 1434 l 2,6,7
 1039 1434 1039 1434 1201.5 1248 c 128,-1,8
 1364 1062 1364 1062 1364 719 c 256,9,10
 1364 376 1364 376 1201.5 188 c 128,-1,11
 1039 0 1039 0 579 0 c 10,12,-1
 230 0 l 2,0,1
452 248 m 1,13,-1
 560 248 l 2,14,15
 870 248 870 248 961 363.5 c 128,-1,16
 1052 479 1052 479 1052 719 c 256,17,18
 1052 959 1052 959 961 1073.5 c 128,-1,19
 870 1188 870 1188 560 1188 c 2,20,-1
 452 1188 l 1,21,-1
 452 248 l 1,13,-1
EndSplineSet
EndChar

StartChar: exclam
Encoding: 33 33 136
Width: 668
Flags: W
HStem: 0 284<191.845 476.155> 1414 20G<218 450>
VStem: 188 292<3.09448 280.906 966.232 1431.78> 211 246<422.285 949.062>
LayerCount: 2
Fore
SplineSet
184 1359 m 2,0,1
 182 1434 182 1434 254 1434 c 2,2,-1
 414 1434 l 2,3,4
 486 1434 486 1434 484 1359 c 2,5,-1
 457 485 l 2,6,7
 455 420 455 420 392 420 c 2,8,-1
 276 420 l 2,9,10
 213 420 213 420 211 485 c 2,11,-1
 184 1359 l 2,0,1
258 0 m 2,12,13
 188 0 188 0 188 75 c 2,14,-1
 188 209 l 2,15,16
 188 284 188 284 258 284 c 2,17,-1
 410 284 l 2,18,19
 480 284 480 284 480 209 c 2,20,-1
 480 75 l 2,21,22
 480 0 480 0 410 0 c 2,23,-1
 258 0 l 2,12,13
EndSplineSet
EndChar

StartChar: one
Encoding: 49 49 137
Width: 907
Flags: W
HStem: 0 21G<469 689> 1420 20G<479.5 689>
VStem: 439 280<1.18652 1091>
LayerCount: 2
Back
SplineSet
161 1151 m 2,0,1
 147.65 1182.87 147.65 1182.87 185 1197 c 256,2,3
 262 1226 262 1226 331 1290 c 128,-1,4
 400 1354 400 1354 440 1404 c 256,5,6
 469 1440 469 1440 496 1440 c 2,7,-1
 581 1440 l 6,8,9
 627 1440 627 1440 627 1395 c 6,10,-1
 627 45 l 6,11,12
 627 0 627 0 582 0 c 6,13,-1
 496 0 l 6,14,15
 451 0 451 0 451 45 c 6,16,-1
 451 1121 l 2,17,18
 451 1161 451 1161 455 1201 c 1,19,-1
 451 1201 l 1,20,21
 420 1162 420 1162 360 1121 c 128,-1,22
 300 1080 300 1080 250 1061 c 256,23,24
 205.849 1043.94 205.849 1043.94 192 1077 c 258,25,-1
 161 1151 l 2,0,1
EndSplineSet
Fore
SplineSet
155 1138 m 2,0,1
 129 1187 129 1187 190 1214 c 256,2,3
 248 1240 248 1240 311 1287 c 128,-1,4
 374 1334 374 1334 414 1384 c 256,5,6
 459 1440 459 1440 500 1440 c 2,7,-1
 659 1440 l 2,8,9
 719 1440 719 1440 719 1380 c 2,10,-1
 719 60 l 2,11,12
 719 0 719 0 659 0 c 2,13,-1
 499 0 l 6,14,15
 439 0 439 0 439 60 c 2,16,-1
 439 1011 l 2,17,18
 439 1051 439 1051 443 1091 c 1,19,-1
 439 1091 l 1,20,21
 408 1052 408 1052 371 1024 c 128,-1,22
 334 996 334 996 296 980 c 256,23,24
 249 960 249 960 225 1006 c 258,25,-1
 155 1138 l 2,0,1
EndSplineSet
EndChar

StartChar: one.tab
Encoding: 65536 -1 138
Width: 1200
Flags: W
HStem: 0 248<187.234 460 740 1012.77> 1420 20G<500.5 710>
VStem: 460 280<248 1091>
LayerCount: 2
Fore
SplineSet
176 1138 m 258,0,1
 150.012 1187.01 150.012 1187.01 211 1214 c 256,2,3
 269 1240 269 1240 332 1287 c 128,-1,4
 395 1334 395 1334 435 1384 c 0,5,6
 480 1440 480 1440 521 1440 c 2,7,-1
 680 1440 l 2,8,9
 740 1440 740 1440 740 1380 c 2,10,-1
 740 248 l 5,11,-1
 938 248 l 6,12,13
 1013 248 1013 248 1013 183 c 6,14,-1
 1013 65 l 6,15,16
 1013 0 1013 0 939 0 c 6,17,-1
 261 0 l 6,18,19
 187 0 187 0 187 65 c 6,20,-1
 187 183 l 6,21,22
 187 248 187 248 262 248 c 6,23,-1
 460 248 l 5,24,-1
 460 1011 l 2,25,26
 460 1051 460 1051 464 1091 c 1,27,-1
 460 1091 l 1,28,29
 429 1052 429 1052 392 1024 c 128,-1,30
 355 996 355 996 317 980 c 256,31,32
 270.321 960.137 270.321 960.137 246 1006 c 258,33,-1
 176 1138 l 258,0,1
EndSplineSet
EndChar

StartChar: U
Encoding: 85 85 139
Width: 1422
Flags: W
HStem: -34 236<562.054 859.946> 1414 20G<195 417 1005 1227>
VStem: 160 292<322.828 1431.73> 970 292<322.828 1431.73>
LayerCount: 2
Fore
SplineSet
160 597 m 2,0,-1
 160 1379 l 2,1,2
 160 1434 160 1434 230 1434 c 2,3,-1
 382 1434 l 2,4,5
 452 1434 452 1434 452 1379 c 2,6,-1
 452 607 l 2,7,8
 452 337 452 337 531.5 269.5 c 128,-1,9
 611 202 611 202 711 202 c 256,10,11
 811 202 811 202 890.5 269.5 c 128,-1,12
 970 337 970 337 970 607 c 2,13,-1
 970 1379 l 2,14,15
 970 1434 970 1434 1040 1434 c 2,16,-1
 1192 1434 l 2,17,18
 1262 1434 1262 1434 1262 1379 c 2,19,-1
 1262 597 l 2,20,21
 1262 247 1262 247 1114 106.5 c 128,-1,22
 966 -34 966 -34 711 -34 c 256,23,24
 456 -34 456 -34 308 106.5 c 128,-1,25
 160 247 160 247 160 597 c 2,0,-1
EndSplineSet
EndChar

StartChar: N
Encoding: 78 78 140
Width: 1472
Flags: W
HStem: 0 21G<195 417 1061 1277> 1414 20G<195 421 1055 1277>
VStem: 160 292<3.09448 904> 1020 292<545 1430.91>
DStem2: 508 1364 454 904 0.529084 -0.848569<361.771 964.811>
LayerCount: 2
Back
SplineSet
974 616 m 6,4,-1
 454 1450 l 1037,5,-1
974 70 m 2,4,-1
 454 904 l 1033,5,-1
220 0 m 2,0,1
 170 0 170 0 170 55 c 2,2,-1
 170 1379 l 2,3,4
 170 1434 170 1434 220 1434 c 2,5,-1
 348 1434 l 2,6,7
 418 1434 418 1434 448 1384 c 2,8,-1
 1074 335 l 9,9,-1
 1078 335 l 17,10,11
 1076 375 1076 375 1076 415 c 2,12,-1
 1076 1379 l 2,13,14
 1076 1434 1076 1434 1126 1434 c 2,15,-1
 1218 1434 l 2,16,17
 1268 1434 1268 1434 1268 1379 c 2,18,-1
 1268 55 l 2,19,20
 1268 0 1268 0 1218 0 c 2,21,-1
 1130 0 l 2,22,23
 1060 -0 1060 -0 1030 50 c 2,24,-1
 364 1163 l 9,25,-1
 360 1163 l 25,26,27
 362 1123 362 1123 362 1083 c 2,28,-1
 362 55 l 2,29,30
 362 0 362 0 312 0 c 2,31,-1
 220 0 l 2,0,1
376 1144 m 2,6,-1
 1002 95 l 1033,7,-1
448 1384 m 2,6,-1
 1074 335 l 1033,7,-1
EndSplineSet
Fore
SplineSet
230 0 m 2,0,1
 160 0 160 0 160 75 c 2,2,-1
 160 1359 l 2,3,4
 160 1434 160 1434 230 1434 c 2,5,-1
 378 1434 l 2,6,7
 464 1434 464 1434 508 1364 c 2,8,-1
 1018 545 l 9,9,-1
 1025 545 l 25,10,11
 1020 605 1020 605 1020 665 c 2,12,-1
 1020 1359 l 2,13,14
 1020 1434 1020 1434 1090 1434 c 2,15,-1
 1242 1434 l 2,16,17
 1312 1434 1312 1434 1312 1359 c 2,18,-1
 1312 75 l 2,19,20
 1312 0 1312 0 1242 0 c 2,21,-1
 1104 0 l 2,22,23
 1018 0 1018 0 974 70 c 2,24,-1
 454 904 l 9,25,-1
 447 904 l 17,26,27
 452 844 452 844 452 784 c 2,28,-1
 452 75 l 2,29,30
 452 0 452 0 382 0 c 2,31,-1
 230 0 l 2,0,1
EndSplineSet
EndChar

StartChar: G
Encoding: 71 71 141
Width: 1506
Flags: MW
HStem: -34 236<585.21 1023.83> 476 248<812.216 1102> 1232 236<584.014 965.098>
VStem: 86 312<424.146 1009.85> 1102 292<265.169 476>
LayerCount: 2
Back
SplineSet
86 717 m 256,0,1
 86 1062 86 1062 261 1265 c 128,-1,2
 436 1468 436 1468 766 1468 c 256,3,4
 956 1468 956 1468 1088 1409 c 128,-1,5
 1220 1350 1220 1350 1274 1238 c 256,6,7
 1310 1164 1310 1164 1262 1138 c 258,8,-1
 1142 1074 l 258,9,10
 1079 1040 1079 1040 1038 1112 c 256,11,12
 1012 1158 1012 1158 941.5 1195 c 128,-1,13
 871 1232 871 1232 776 1232 c 256,14,15
 566 1232 566 1232 482 1099.5 c 128,-1,16
 398 967 398 967 398 717 c 256,17,18
 398 467 398 467 482 334.5 c 128,-1,19
 566 202 566 202 776 202 c 256,20,21
 889 202 889 202 966.5 253 c 152,-1,22
 1044 304 1044 304 1074 350 c 256,23,24
 1123 425 1123 425 1178 388 c 258,25,-1
 1298 308 l 258,26,27
 1347 275 1347 275 1308 208 c 256,28,29
 1250 108 1250 108 1109 37 c 152,-1,30
 968 -34 968 -34 766 -34 c 256,31,32
 441 -34 441 -34 263.5 169 c 128,-1,33
 86 372 86 372 86 717 c 256,0,1
92 719 m 256,0,1
 92 1069 92 1069 273 1266.5 c 128,-1,2
 454 1464 454 1464 776 1464 c 256,3,4
 969 1464 969 1464 1091 1397.5 c 128,-1,5
 1213 1331 1213 1331 1270 1241 c 256,6,7
 1305 1186 1305 1186 1269 1160 c 2,8,-1
 1194 1108 l 2,9,10
 1157 1082 1157 1082 1120 1139 c 256,11,12
 1090 1184 1090 1184 1007 1246 c 128,-1,13
 924 1308 924 1308 786 1308 c 256,14,15
 541 1308 541 1308 419 1152.5 c 128,-1,16
 297 997 297 997 297 717 c 256,17,18
 297 437 297 437 416 281.5 c 128,-1,19
 535 126 535 126 796 126 c 256,20,21
 926 126 926 126 1022.5 157.5 c 152,-1,22
 1119 189 1119 189 1158 245 c 9,23,-1
 1158 510 l 1,24,-1
 861 510 l 2,25,26
 806 510 806 510 806 555 c 2,27,-1
 806 629 l 2,28,29
 806 674 806 674 861 674 c 2,30,-1
 1295 674 l 2,31,32
 1350 674 1350 674 1350 629 c 2,33,-1
 1350 157 l 17,34,35
 1228 68 1228 68 1106 19 c 152,-1,36
 984 -30 984 -30 786 -30 c 256,37,38
 456 -30 456 -30 274 169.5 c 128,-1,39
 92 369 92 369 92 719 c 256,0,1
EndSplineSet
Fore
SplineSet
86 717 m 256,0,1
 86 1062 86 1062 266 1265 c 128,-1,2
 446 1468 446 1468 776 1468 c 256,3,4
 975 1468 975 1468 1088.5 1417 c 128,-1,5
 1202 1366 1202 1366 1288 1259 c 256,6,7
 1340 1194 1340 1194 1285 1158 c 258,8,-1
 1171 1084 l 258,9,10
 1121 1051 1121 1051 1064 1113 c 256,11,12
 1017 1164 1017 1164 945 1198 c 128,-1,13
 873 1232 873 1232 786 1232 c 256,14,15
 576 1232 576 1232 487 1099.5 c 128,-1,16
 398 967 398 967 398 717 c 256,17,18
 398 467 398 467 487 334.5 c 128,-1,19
 576 202 576 202 786 202 c 256,20,21
 888 202 888 202 962 222.5 c 152,-1,22
 1036 243 1036 243 1102 297 c 9,23,-1
 1102 476 l 1,24,-1
 885 476 l 2,25,26
 810 476 810 476 810 541 c 2,27,-1
 810 659 l 2,28,29
 810 724 810 724 885 724 c 2,30,-1
 1319 724 l 2,31,32
 1394 724 1394 724 1394 659 c 2,33,-1
 1394 151 l 17,34,35
 1254 48 1254 48 1111.5 7 c 152,-1,36
 969 -34 969 -34 776 -34 c 256,37,38
 451 -34 451 -34 268.5 169 c 128,-1,39
 86 372 86 372 86 717 c 256,0,1
EndSplineSet
EndChar

StartChar: J
Encoding: 74 74 142
Width: 947
Flags: W
HStem: -34 236<168.399 439.114> 1414 20G<530 752>
VStem: 495 292<263.019 1430.91>
LayerCount: 2
Fore
SplineSet
77 19 m 256,0,1
 24 50 24 50 37 94 c 2,2,-1
 79 231 l 2,3,4
 97 290 97 290 173 243 c 256,5,6
 238 202 238 202 318 202 c 256,7,8
 428 202 428 202 461.5 278 c 128,-1,9
 495 354 495 354 495 531 c 2,10,-1
 495 1359 l 2,11,12
 495 1434 495 1434 565 1434 c 2,13,-1
 717 1434 l 2,14,15
 787 1434 787 1434 787 1359 c 2,16,-1
 787 551 l 2,17,18
 787 183 787 183 663.5 74.5 c 128,-1,19
 540 -34 540 -34 321 -34 c 256,20,21
 168 -34 168 -34 77 19 c 256,0,1
EndSplineSet
EndChar

StartChar: K
Encoding: 75 75 143
Width: 1361
Flags: W
HStem: 0 21G<195 417 1052 1311.5> 1414 20G<195 417 1013 1291.5>
VStem: 160 292<3.09448 447 841 1430.91>
DStem2: 454 841 816 850 0.672632 0.739977<250.153 840.263> 816 850 620 636 0.537518 -0.843252<75.1024 857.589>
LayerCount: 2
Back
SplineSet
511 810 m 1,19,-1
 998 46 l 1026,20,21
816 850 m 1,19,-1
 1303 86 l 1026,20,21
190.25 159.25 m 1,12,-1
 1283.75 1360.75 l 1026,13,14
454 841 m 1,12,-1
 940 1375 l 1026,13,14
220 0 m 2,0,1
 170 0 170 0 170 55 c 2,2,-1
 170 1379 l 2,3,4
 170 1434 170 1434 220 1434 c 2,5,-1
 312 1434 l 2,6,7
 362 1434 362 1434 362 1379 c 2,8,-1
 362 791 l 2,9,10
 362 751 362 751 360 711 c 1,11,-1
 364 711 l 1,12,-1
 1032 1395 l 2,13,14
 1070 1434 1070 1434 1102 1434 c 2,15,-1
 1223 1434 l 2,16,17
 1306 1434 1306 1434 1241 1368 c 2,18,-1
 733 850 l 1,19,-1
 1268 66 l 2,20,21
 1312 0 1312 0 1250 0 c 2,22,-1
 1128 0 l 2,23,24
 1084 0 1084 0 1058 39 c 2,25,-1
 601 714 l 1,26,-1
 362 471 l 1,27,-1
 362 55 l 2,28,29
 362 0 362 0 312 0 c 2,30,-1
 220 0 l 2,0,1
EndSplineSet
Fore
SplineSet
230 0 m 2,0,1
 160 0 160 0 160 75 c 2,2,-1
 160 1359 l 2,3,4
 160 1434 160 1434 230 1434 c 2,5,-1
 382 1434 l 2,6,7
 452 1434 452 1434 452 1359 c 2,8,-1
 452 961 l 2,9,10
 452 901 452 901 447 841 c 1,11,-1
 454 841 l 1,12,-1
 940 1375 l 2,13,14
 994 1434 994 1434 1032 1434 c 2,15,-1
 1233 1434 l 2,16,17
 1350 1434 1350 1434 1271 1348 c 2,18,-1
 816 850 l 1,19,-1
 1303 86 l 2,20,21
 1358 0 1358 0 1265 0 c 2,22,-1
 1078 0 l 2,23,24
 1026 -0 1026 -0 988 59 c 2,25,-1
 620 636 l 1,26,-1
 452 447 l 1,27,-1
 452 75 l 2,28,29
 452 0 452 0 382 0 c 2,30,-1
 230 0 l 2,0,1
EndSplineSet
EndChar

StartChar: Q
Encoding: 81 81 144
Width: 1544
Flags: W
HStem: -407 205<967.344 1283.9> 1232 236<581.193 962.807>
VStem: 86 312<424.146 1009.85> 1146 312<424.146 1009.85>
LayerCount: 2
Back
SplineSet
86 717 m 256,0,1
 86 1062 86 1062 264 1265 c 128,-1,2
 442 1468 442 1468 772 1468 c 256,3,4
 1102 1468 1102 1468 1280 1265 c 128,-1,5
 1458 1062 1458 1062 1458 717 c 256,6,7
 1458 372 1458 372 1280 169 c 128,-1,8
 1102 -34 1102 -34 772 -34 c 256,9,10
 442 -34 442 -34 264 169 c 128,-1,11
 86 372 86 372 86 717 c 256,0,1
398 717 m 256,12,13
 398 467 398 467 487.5 334.5 c 128,-1,14
 577 202 577 202 772 202 c 256,15,16
 967 202 967 202 1056.5 334.5 c 128,-1,17
 1146 467 1146 467 1146 717 c 256,18,19
 1146 967 1146 967 1056.5 1099.5 c 128,-1,20
 967 1232 967 1232 772 1232 c 256,21,22
 577 1232 577 1232 487.5 1099.5 c 128,-1,23
 398 967 398 967 398 717 c 256,12,13
918 -17 m 1,24,25
 926 -112 926 -112 977 -157 c 128,-1,26
 1028 -202 1028 -202 1116 -202 c 0,27,28
 1167.4 -202 1167.4 -202 1222 -188 c 256,29,30
 1271.62 -175.275 1271.62 -175.275 1280 -210 c 2,31,-1
 1308 -326 l 2,32,33
 1317.37 -364.836 1317.37 -364.836 1272 -376 c 0,34,35
 1154 -407 1154 -407 1084 -407 c 0,36,37
 816 -407 816 -407 726 -293.5 c 128,-1,38
 636 -180 636 -180 626 -19 c 1,39,40
 918 -17 l 1,24,25
86 717 m 260,0,1
 86 1062 86 1062 264 1265 c 132,-1,2
 442 1468 442 1468 772 1468 c 260,3,4
 1102 1468 1102 1468 1280 1265 c 132,-1,5
 1458 1062 1458 1062 1458 717 c 260,6,7
 1458 372 1458 372 1280 169 c 132,-1,8
 1102 -34 1102 -34 772 -34 c 260,9,10
 442 -34 442 -34 264 169 c 132,-1,11
 86 372 86 372 86 717 c 260,0,1
398 717 m 260,12,13
 398 467 398 467 487.5 334.5 c 132,-1,14
 577 202 577 202 772 202 c 260,15,16
 967 202 967 202 1056.5 334.5 c 132,-1,17
 1146 467 1146 467 1146 717 c 260,18,19
 1146 967 1146 967 1056.5 1099.5 c 132,-1,20
 967 1232 967 1232 772 1232 c 260,21,22
 577 1232 577 1232 487.5 1099.5 c 132,-1,23
 398 967 398 967 398 717 c 260,12,13
867 -24 m 1,24,25
 877 -121 877 -121 939 -179 c 128,-1,26
 1001 -237 1001 -237 1116 -237 c 0,27,28
 1178 -237 1178 -237 1217 -227 c 256,29,30
 1256 -217 1256 -217 1261 -238 c 2,31,-1
 1281 -326 l 2,32,33
 1286 -350 1286 -350 1256 -357 c 0,34,35
 1167 -377 1167 -377 1084 -377 c 0,36,37
 869 -377 869 -377 776.5 -269.5 c 128,-1,38
 684 -162 684 -162 675 -26 c 1025,39,40
92 719 m 260,0,1
 92 1069 92 1069 264.5 1266.5 c 132,-1,2
 437 1464 437 1464 762 1464 c 260,3,4
 1087 1464 1087 1464 1259.5 1265.5 c 132,-1,5
 1432 1067 1432 1067 1432 717 c 260,6,7
 1432 367 1432 367 1259.5 168.5 c 132,-1,8
 1087 -30 1087 -30 762 -30 c 260,9,10
 437 -30 437 -30 264.5 169.5 c 132,-1,11
 92 369 92 369 92 719 c 260,0,1
297 719 m 260,12,13
 297 439 297 439 412 282.5 c 132,-1,14
 527 126 527 126 762 126 c 260,15,16
 997 126 997 126 1112 282.5 c 132,-1,17
 1227 439 1227 439 1227 719 c 260,18,19
 1227 999 1227 999 1112 1153.5 c 132,-1,20
 997 1308 997 1308 762 1308 c 260,21,22
 527 1308 527 1308 412 1153.5 c 132,-1,23
 297 999 297 999 297 719 c 260,12,13
EndSplineSet
Fore
SplineSet
86 717 m 256,0,1
 86 1062 86 1062 264 1265 c 128,-1,2
 442 1468 442 1468 772 1468 c 256,3,4
 1102 1468 1102 1468 1280 1265 c 128,-1,5
 1458 1062 1458 1062 1458 717 c 256,6,7
 1458 372 1458 372 1280 169 c 0,8,9
 1144 14 1144 14 919 -23 c 1,10,11
 928 -113 928 -113 966.5 -157.5 c 128,-1,12
 1005 -202 1005 -202 1116 -202 c 256,13,14
 1167 -202 1167 -202 1222 -188 c 256,15,16
 1272 -175 1272 -175 1280 -210 c 258,17,-1
 1308 -326 l 258,18,19
 1317 -365 1317 -365 1272 -376 c 256,20,21
 1154 -407 1154 -407 1084 -407 c 256,22,23
 816 -407 816 -407 726.5 -294 c 128,-1,24
 637 -181 637 -181 626 -23 c 1,25,26
 400 13 400 13 264 169 c 0,27,28
 86 372 86 372 86 717 c 256,0,1
398 717 m 256,29,30
 398 467 398 467 487.5 334.5 c 128,-1,31
 577 202 577 202 772 202 c 256,32,33
 967 202 967 202 1056.5 334.5 c 128,-1,34
 1146 467 1146 467 1146 717 c 256,35,36
 1146 967 1146 967 1056.5 1099.5 c 128,-1,37
 967 1232 967 1232 772 1232 c 256,38,39
 577 1232 577 1232 487.5 1099.5 c 128,-1,40
 398 967 398 967 398 717 c 256,29,30
EndSplineSet
EndChar

StartChar: R
Encoding: 82 82 145
Width: 1428
Flags: W
HStem: 0 21G<195 417 1084.5 1332.5> 579 248<452 667.485> 1190 244<452 938.742>
VStem: 160 292<3.09448 579 827 1190> 1000 286<903.447 1134.35>
DStem2: 1324 86 820 396 0.535457 -0.844562<-661.949 -35.0615>
LayerCount: 2
Back
SplineSet
220 0 m 2,0,1
 170 0 170 0 170 55 c 6,2,-1
 170 1379 l 2,3,4
 170 1434 170 1434 220 1434 c 2,5,-1
 703 1434 l 2,6,7
 992 1434 992 1434 1121.5 1326 c 128,-1,8
 1251 1218 1251 1218 1251 1041 c 256,9,10
 1251 885 1251 885 1146.5 779 c 128,-1,11
 1042 673 1042 673 849 657 c 1,12,-1
 849 655 l 1,13,14
 951 579 951 579 984 539.5 c 128,-1,15
 1017 500 1017 500 1058 433 c 2,16,-1
 1284 66 l 6,17,18
 1325 0 1325 0 1266 0 c 2,19,-1
 1152 0 l 2,20,21
 1105 0 1105 0 1082 39 c 6,22,-1
 874 396 l 2,23,24
 829 473 829 473 745 547 c 128,-1,25
 661 621 661 621 536 621 c 2,26,-1
 362 621 l 1,27,-1
 362 55 l 6,28,29
 362 0 362 0 312 0 c 2,30,-1
 220 0 l 2,0,1
362 785 m 1,31,-1
 641 785 l 2,32,33
 836 785 836 785 941 836.5 c 128,-1,34
 1046 888 1046 888 1046 1053 c 256,35,36
 1046 1179 1046 1179 950 1224.5 c 128,-1,37
 854 1270 854 1270 689 1270 c 2,38,-1
 362 1270 l 1,39,-1
 362 785 l 1,31,-1
EndSplineSet
Fore
SplineSet
230 0 m 2,0,1
 160 0 160 0 160 75 c 2,2,-1
 160 1359 l 2,3,4
 160 1434 160 1434 230 1434 c 2,5,-1
 693 1434 l 2,6,7
 1002 1434 1002 1434 1144 1338.5 c 128,-1,8
 1286 1243 1286 1243 1286 1028 c 256,9,10
 1286 868 1286 868 1171 773 c 128,-1,11
 1056 678 1056 678 879 647 c 1,12,-1
 879 645 l 1,13,14
 975 609 975 609 1024 545 c 128,-1,15
 1073 481 1073 481 1104 433 c 2,16,-1
 1324 86 l 2,17,18
 1379 0 1379 0 1286 0 c 2,19,-1
 1112 0 l 2,20,21
 1057 -0 1057 -0 1022 59 c 2,22,-1
 820 396 l 2,23,24
 787 450 787 450 699.5 514.5 c 128,-1,25
 612 579 612 579 526 579 c 2,26,-1
 452 579 l 1,27,-1
 452 75 l 2,28,29
 452 0 452 0 382 0 c 2,30,-1
 230 0 l 2,0,1
452 827 m 1,31,-1
 631 827 l 2,32,33
 831 827 831 827 915.5 872.5 c 128,-1,34
 1000 918 1000 918 1000 1017 c 256,35,36
 1000 1125 1000 1125 918.5 1157.5 c 128,-1,37
 837 1190 837 1190 679 1190 c 2,38,-1
 452 1190 l 1,39,-1
 452 827 l 1,31,-1
EndSplineSet
EndChar

StartChar: Y
Encoding: 89 89 146
Width: 1368
Flags: W
HStem: 0 21G<573 795> 1414 20G<49 299 1069 1319>
VStem: 538 292<2.26929 525>
DStem2: 578 994 51 1348 0.509258 -0.860614<-536.779 262.567> 790 994 830 525 0.509258 0.860614<-262.567 536.779>
LayerCount: 2
Back
SplineSet
835 525 m 1,29,-1
 348 1348 l 1042,0,1
54 1368 m 18,0,1
 11 1434 11 1434 81 1434 c 2,2,-1
 193 1434 l 2,3,4
 237 1434 237 1434 265 1385 c 10,5,-1
 519 948 l 2,6,7
 561 876 561 876 591 822.5 c 128,-1,8
 621 769 621 769 649 709 c 1,9,-1
 653 709 l 1,10,11
 681 769 681 769 711 822.5 c 128,-1,12
 741 876 741 876 783 948 c 2,13,-1
 1037 1385 l 18,14,15
 1065 1434 1065 1434 1109 1434 c 2,16,-1
 1221 1434 l 2,17,18
 1291 1434 1291 1434 1248 1368 c 10,19,-1
 747 590 l 1,20,-1
 747 55 l 2,21,22
 747 0 747 0 697 0 c 2,23,-1
 605 0 l 2,24,25
 555 0 555 0 555 55 c 2,26,-1
 555 590 l 1,27,-1
 54 1368 l 18,0,1
EndSplineSet
Fore
SplineSet
51 1348 m 18,0,1
 0 1434 0 1434 98 1434 c 2,2,-1
 273 1434 l 2,3,4
 325 1434 325 1434 365 1365 c 10,5,-1
 578 994 l 2,6,7
 587 979 587 979 631 900.5 c 128,-1,8
 675 822 675 822 682 748 c 1,9,-1
 686 748 l 1,10,11
 693 822 693 822 737 900.5 c 128,-1,12
 781 979 781 979 790 994 c 2,13,-1
 1003 1365 l 18,14,15
 1043 1434 1043 1434 1095 1434 c 2,16,-1
 1270 1434 l 2,17,18
 1368 1434 1368 1434 1317 1348 c 10,19,-1
 830 525 l 1,20,-1
 830 55 l 2,21,22
 830 0 830 0 760 0 c 2,23,-1
 608 0 l 2,24,25
 538 0 538 0 538 55 c 2,26,-1
 538 525 l 1,27,-1
 51 1348 l 18,0,1
EndSplineSet
EndChar

StartChar: W
Encoding: 87 87 147
Width: 2022
Flags: W
HStem: 0 21G<445 683 1339 1577> 1414 20G<57 299.5 887.5 1134.5 1722.5 1965>
DStem2: 529 582 45 1354 0.261102 -0.965311<-892.937 219.443> 612 588 979 934 0.275327 0.961351<-224.904 599.113> 1187 1360 1043 934 0.275327 -0.961351<204.447 1028.46> 1493 582 1637 97 0.261102 0.965311<-219.443 892.937>
LayerCount: 2
Back
SplineSet
48 1374 m 2,0,1
 32 1434 32 1434 74 1434 c 2,2,-1
 196 1434 l 2,3,4
 228 1434 228 1434 239 1388 c 2,5,-1
 462 427 l 2,6,7
 476 369 476 369 493.5 301 c 128,-1,8
 511 233 511 233 524 173 c 1,9,-1
 529 173 l 1,10,11
 539 232 539 232 552.5 290 c 152,-1,12
 566 348 566 348 583 426 c 2,13,-1
 811 1380 l 2,14,15
 824 1434 824 1434 875 1434 c 2,16,-1
 1013 1434 l 2,17,18
 1064 1434 1064 1434 1077 1380 c 2,19,-1
 1305 426 l 2,20,21
 1322 348 1322 348 1335.5 290 c 152,-1,22
 1349 232 1349 232 1359 173 c 1,23,-1
 1364 173 l 1,24,25
 1377 233 1377 233 1394.5 301 c 128,-1,26
 1412 369 1412 369 1426 427 c 2,27,-1
 1649 1388 l 2,28,29
 1660 1434 1660 1434 1692 1434 c 2,30,-1
 1814 1434 l 2,31,32
 1856 1434 1856 1434 1840 1374 c 2,33,-1
 1496 77 l 2,34,35
 1476 0 1476 0 1422 0 c 2,36,-1
 1297 0 l 2,37,38
 1247 -0 1247 -0 1226 84 c 2,39,-1
 985 1043 l 2,40,41
 967 1116 967 1116 959 1162.5 c 128,-1,42
 951 1209 951 1209 945 1259 c 1,43,-1
 943 1259 l 1,44,45
 937 1209 937 1209 929 1162.5 c 128,-1,46
 921 1116 921 1116 903 1043 c 2,47,-1
 662 84 l 2,48,49
 641 0 641 0 591 0 c 2,50,-1
 466 0 l 2,51,52
 412 -0 412 -0 392 77 c 2,53,-1
 48 1374 l 2,0,1
EndSplineSet
Fore
SplineSet
45 1354 m 2,0,1
 23 1434 23 1434 91 1434 c 2,2,-1
 276 1434 l 2,3,4
 323 1434 323 1434 339 1368 c 2,5,-1
 529 582 l 2,6,7
 550 496 550 496 556.5 464.5 c 128,-1,8
 563 433 563 433 568 363 c 1,9,-1
 573 363 l 1,10,11
 578 433 578 433 583 469 c 152,-1,12
 588 505 588 505 612 588 c 2,13,-1
 835 1360 l 2,14,15
 856 1434 856 1434 919 1434 c 2,16,-1
 1103 1434 l 2,17,18
 1166 1434 1166 1434 1187 1360 c 2,19,-1
 1410 588 l 2,20,21
 1434 505 1434 505 1439 469 c 152,-1,22
 1444 433 1444 433 1449 363 c 1,23,-1
 1454 363 l 1,24,25
 1459 433 1459 433 1465.5 464.5 c 128,-1,26
 1472 496 1472 496 1493 582 c 2,27,-1
 1683 1368 l 2,28,29
 1699 1434 1699 1434 1746 1434 c 2,30,-1
 1931 1434 l 2,31,32
 1999 1434 1999 1434 1977 1354 c 2,33,-1
 1637 97 l 2,34,35
 1611 0 1611 0 1543 0 c 2,36,-1
 1368 0 l 2,37,38
 1310 0 1310 0 1283 96 c 2,39,-1
 1043 934 l 2,40,41
 1023 1002 1023 1002 1020 1022.5 c 128,-1,42
 1017 1043 1017 1043 1012 1099 c 1,43,-1
 1010 1099 l 1,44,45
 1005 1043 1005 1043 1002 1022.5 c 128,-1,46
 999 1002 999 1002 979 934 c 2,47,-1
 739 96 l 2,48,49
 712 0 712 0 654 0 c 2,50,-1
 479 0 l 2,51,52
 411 0 411 0 385 97 c 2,53,-1
 45 1354 l 2,0,1
EndSplineSet
EndChar

StartChar: three
Encoding: 51 51 148
Width: 1200
Flags: W
HStem: -34 224<344.734 719.79> 658 218<407.778 676.539> 1232 224<362.189 717.352>
VStem: 765 292<957.653 1183.67> 807 300<279.128 557.09>
LayerCount: 2
Back
SplineSet
109 148 m 256,0,1
 69 194 69 194 93 223 c 2,2,-1
 145 286 l 2,3,4
 179 327 179 327 226 268 c 256,5,6
 278 203 278 203 354.5 161.5 c 128,-1,7
 431 120 431 120 515 120 c 256,8,9
 680 120 680 120 749 202 c 128,-1,10
 818 284 818 284 818 421 c 256,11,12
 818 566 818 566 726 631 c 128,-1,13
 634 696 634 696 520 696 c 2,14,-1
 432 696 l 2,15,16
 387 696 387 696 387 729 c 2,17,-1
 387 803 l 2,18,19
 387 838 387 838 432 838 c 2,20,-1
 503 838 l 2,21,22
 613 838 613 838 691.5 910 c 128,-1,23
 770 982 770 982 770 1106 c 256,24,25
 770 1192 770 1192 707 1247 c 128,-1,26
 644 1302 644 1302 530 1302 c 256,27,28
 423 1302 423 1302 355 1253 c 128,-1,29
 287 1204 287 1204 259 1168 c 256,30,31
 222 1120 222 1120 187 1153 c 2,32,-1
 128 1210 l 2,33,34
 102 1235 102 1235 151 1293 c 256,35,36
 203 1354 203 1354 300.5 1403 c 128,-1,37
 398 1452 398 1452 533 1452 c 256,38,39
 740 1452 740 1452 849 1352 c 128,-1,40
 958 1252 958 1252 958 1093 c 256,41,42
 958 967 958 967 880.5 882.5 c 128,-1,43
 803 798 803 798 711 778 c 1,44,-1
 711 774 l 1,45,46
 818 759 818 759 916 658 c 128,-1,47
 1014 557 1014 557 1014 417 c 256,48,49
 1014 209 1014 209 893.5 89.5 c 128,-1,50
 773 -30 773 -30 511 -30 c 256,51,52
 359 -30 359 -30 260 29.5 c 128,-1,53
 161 89 161 89 109 148 c 256,0,1
EndSplineSet
Fore
SplineSet
100 102 m 256,0,1
 60.7234 135.234 60.7234 135.234 94 196 c 2,2,-1
 140 280 l 2,3,4
 173.292 340.795 173.292 340.795 247 289 c 256,5,6
 309 245 309 245 387 217.5 c 128,-1,7
 465 190 465 190 561 190 c 256,8,9
 693 190 693 190 750 261.5 c 128,-1,10
 807 333 807 333 807 422 c 256,11,12
 807 513 807 513 739.5 585.5 c 128,-1,13
 672 658 672 658 549 658 c 2,14,-1
 472 658 l 2,15,16
 407 658 407 658 407 711 c 2,17,-1
 407 821 l 2,18,19
 407 876 407 876 472 876 c 2,20,-1
 532 876 l 2,21,22
 624 876 624 876 694.5 933 c 128,-1,23
 765 990 765 990 765 1076 c 256,24,25
 765 1143 765 1143 718.5 1187.5 c 128,-1,26
 672 1232 672 1232 567 1232 c 256,27,28
 468 1232 468 1232 396 1203 c 128,-1,29
 324 1174 324 1174 282 1133 c 256,30,31
 222.401 1074.39 222.401 1074.39 179 1138 c 2,32,-1
 121 1223 l 2,33,34
 88.1503 1271.14 88.1503 1271.14 141 1321 c 256,35,36
 213 1390 213 1390 327 1423 c 128,-1,37
 441 1456 441 1456 550 1456 c 256,38,39
 807 1456 807 1456 932 1353.5 c 128,-1,40
 1057 1251 1057 1251 1057 1103 c 256,41,42
 1057 993 1057 993 971 902.5 c 128,-1,43
 885 812 885 812 789 778 c 1,44,-1
 789 774 l 1,45,46
 903 746 903 746 1005 651.5 c 128,-1,47
 1107 557 1107 557 1107 417 c 256,48,49
 1107 198 1107 198 969 82 c 128,-1,50
 831 -34 831 -34 548 -34 c 256,51,52
 429 -34 429 -34 301.5 2.5 c 128,-1,53
 174 39 174 39 100 102 c 256,0,1
EndSplineSet
EndChar

StartChar: two
Encoding: 50 50 149
Width: 1200
Flags: W
HStem: 0 248<468 1107.78> 1232 224<423.817 726.902>
VStem: 111 213<1009.28 1121.32> 794 300<868.521 1164.52>
DStem2: 435 531 468 250 0.692057 0.721843<-180 555.373>
LayerCount: 2
Fore
SplineSet
163 0 m 2,0,1
 88 0 88 0 88 65 c 2,2,-1
 88 113 l 2,3,4
 88 165 88 165 136 216 c 2,5,-1
 435 531 l 2,6,7
 570 674 570 674 682 785.5 c 128,-1,8
 794 897 794 897 794 1011 c 256,9,10
 794 1125 794 1125 737.5 1178.5 c 128,-1,11
 681 1232 681 1232 594 1232 c 256,12,13
 456 1232 456 1232 402 1168 c 128,-1,14
 348 1104 348 1104 324 1031 c 256,15,16
 301 960 301 960 240 980 c 2,17,-1
 139 1014 l 258,18,19
 90 1031 90 1031 111 1108 c 256,20,21
 150 1251 150 1251 270 1353.5 c 128,-1,22
 390 1456 390 1456 626 1456 c 256,23,24
 872 1456 872 1456 983 1329.5 c 128,-1,25
 1094 1203 1094 1203 1094 1055 c 256,26,27
 1094 861 1094 861 932 714.5 c 128,-1,28
 770 568 770 568 638 429 c 2,29,-1
 468 250 l 9,30,-1
 468 244 l 17,31,32
 528 248 528 248 568 248 c 2,33,-1
 1035 248 l 2,34,35
 1110 248 1110 248 1110 183 c 2,36,-1
 1110 65 l 2,37,38
 1110 0 1110 0 1035 0 c 2,39,-1
 163 0 l 2,0,1
EndSplineSet
EndChar

StartChar: minus
Encoding: 8722 8722 150
Width: 1280
Flags: W
HStem: 632 186<75.2344 1204.77>
LayerCount: 2
Fore
SplineSet
135 632 m 2,0,1
 75 632 75 632 75 682 c 2,2,-1
 75 768 l 2,3,4
 75 818 75 818 135 818 c 2,5,-1
 1145 818 l 2,6,7
 1205 818 1205 818 1205 768 c 2,8,-1
 1205 682 l 2,9,10
 1205 632 1205 632 1145 632 c 2,11,-1
 135 632 l 2,0,1
EndSplineSet
EndChar

StartChar: five
Encoding: 53 53 151
Width: 1200
Flags: W
HStem: -34 224<330.986 687.752> 702 224<467.826 723.009> 1174 248<421 989.08>
VStem: 141 280<849 1174> 796 300<290.751 619.706>
LayerCount: 2
Back
SplineSet
114 163 m 256,0,1
 76 213 76 213 105 239 c 258,2,-1
 167 294 l 258,3,4
 201 324 201 324 246 269 c 256,5,6
 273 236 273 236 341 178 c 128,-1,7
 409 120 409 120 518 120 c 256,8,9
 661 120 661 120 733.5 208 c 128,-1,10
 806 296 806 296 806 441 c 256,11,12
 806 578 806 578 744 657 c 128,-1,13
 682 736 682 736 558 736 c 256,14,15
 481 736 481 736 430 721 c 128,-1,16
 379 706 379 706 324 658 c 256,17,18
 286 625 286 625 244 625 c 2,19,-1
 197 625 l 2,20,21
 152 625 152 625 152 670 c 2,22,-1
 152 1377 l 2,23,24
 152 1422 152 1422 197 1422 c 2,25,-1
 887 1422 l 2,26,27
 932 1422 932 1422 932 1377 c 2,28,-1
 932 1303 l 2,29,30
 932 1258 932 1258 887 1258 c 2,31,-1
 338 1258 l 1,32,-1
 338 863 l 2,33,34
 338 833 338 833 336 803 c 1,35,-1
 340 803 l 1,36,37
 393 849 393 849 462.5 867.5 c 128,-1,38
 532 886 532 886 606 886 c 256,39,40
 790 886 790 886 896 762 c 128,-1,41
 1002 638 1002 638 1002 437 c 256,42,43
 1002 218 1002 218 872.5 94 c 128,-1,44
 743 -30 743 -30 520 -30 c 256,45,46
 357 -30 357 -30 257.5 37.5 c 128,-1,47
 158 105 158 105 114 163 c 256,0,1
EndSplineSet
Fore
SplineSet
101 101 m 256,0,1
 68 145 68 145 92 177 c 258,2,-1
 162 273 l 258,3,4
 204 331 204 331 264 276 c 256,5,6
 300 243 300 243 375 216.5 c 128,-1,7
 450 190 450 190 525 190 c 256,8,9
 639 190 639 190 717.5 254 c 128,-1,10
 796 318 796 318 796 441 c 256,11,12
 796 558 796 558 746 630 c 128,-1,13
 696 702 696 702 625 702 c 256,14,15
 564 702 564 702 513 692.5 c 128,-1,16
 462 683 462 683 407 635 c 256,17,18
 369 602 369 602 315 602 c 2,19,-1
 206 602 l 2,20,21
 141 602 141 602 141 667 c 2,22,-1
 141 1357 l 2,23,24
 141 1422 141 1422 206 1422 c 2,25,-1
 926 1422 l 2,26,27
 991 1422 991 1422 991 1357 c 2,28,-1
 991 1239 l 2,29,30
 991 1174 991 1174 926 1174 c 2,31,-1
 421 1174 l 1,32,-1
 421 929 l 2,33,34
 421 889 421 889 417 849 c 1,35,-1
 423 849 l 1,36,37
 476 895 476 895 541 910.5 c 128,-1,38
 606 926 606 926 680 926 c 256,39,40
 855 926 855 926 975.5 806.5 c 128,-1,41
 1096 687 1096 687 1096 437 c 256,42,43
 1096 207 1096 207 942.5 86.5 c 128,-1,44
 789 -34 789 -34 578 -34 c 256,45,46
 402 -34 402 -34 273.5 4.5 c 128,-1,47
 145 43 145 43 101 101 c 256,0,1
EndSplineSet
EndChar

StartChar: quotesingle
Encoding: 39 39 152
Width: 560
Flags: MW
HStem: 824 645<168.334 391.666>
VStem: 142 276<1093.39 1468.75>
LayerCount: 2
Back
SplineSet
253 816 m 2,20,-1
 219 815 l 2,21,22
 203 815 203 815 193.5 818 c 128,-1,23
 184 821 184 821 179.5 828.5 c 128,-1,24
 175 836 175 836 174 843 c 128,-1,25
 173 850 173 850 173 862 c 2,26,-1
 173 875 l 1,27,-1
 150 1420 l 2,28,29
 150 1453 150 1453 159 1461 c 0,30,31
 169 1469 169 1469 192 1469 c 2,32,-1
 287 1469 l 2,33,34
 311 1469 311 1469 320 1460.5 c 128,-1,35
 329 1452 329 1452 329 1430 c 2,36,-1
 328 1414 l 1,37,-1
 306 867 l 2,38,39
 306 834 306 834 295.5 825 c 128,-1,40
 285 816 285 816 253 816 c 2,20,-1
EndSplineSet
Fore
SplineSet
142 1404 m 2,0,1
 139 1469 139 1469 193 1469 c 2,2,-1
 367 1469 l 2,3,4
 421 1469 421 1469 418 1404 c 2,5,-1
 394 884 l 2,6,7
 391 824 391 824 344 824 c 2,8,-1
 216 824 l 2,9,10
 169 824 169 824 166 884 c 2,11,-1
 142 1404 l 2,0,1
EndSplineSet
EndChar

StartChar: underscore
Encoding: 95 95 154
Width: 1200
Flags: W
HStem: -425 200<-24.7656 1224.77>
LayerCount: 2
Back
SplineSet
21 -390 m 2,0,1
 -24 -390 -24 -390 -24 -355 c 2,2,-1
 -24 -295 l 2,3,4
 -24 -260 -24 -260 21 -260 c 2,5,-1
 1079 -260 l 2,6,7
 1124 -260 1124 -260 1124 -295 c 2,8,-1
 1124 -355 l 2,9,10
 1124 -390 1124 -390 1079 -390 c 2,11,-1
 21 -390 l 2,0,1
EndSplineSet
Fore
SplineSet
35 -425 m 2,0,1
 -25 -425 -25 -425 -25 -375 c 2,2,-1
 -25 -275 l 2,3,4
 -25 -225 -25 -225 35 -225 c 2,5,-1
 1165 -225 l 2,6,7
 1225 -225 1225 -225 1225 -275 c 2,8,-1
 1225 -375 l 2,9,10
 1225 -425 1225 -425 1165 -425 c 2,11,-1
 35 -425 l 2,0,1
EndSplineSet
EndChar

StartChar: parenleft
Encoding: 40 40 155
Width: 740
Flags: W
VStem: 115 300<158.097 929.903>
LayerCount: 2
Back
SplineSet
124 544 m 256,0,1
 124 852 124 852 228 1084 c 128,-1,2
 332 1316 332 1316 491 1493 c 256,3,4
 529 1536 529 1536 559 1513 c 258,5,-1
 594 1486 l 258,6,7
 625 1462 625 1462 592 1427 c 256,8,9
 502 1331 502 1331 411 1103.5 c 128,-1,10
 320 876 320 876 320 544 c 256,11,12
 320 212 320 212 411 -15.5 c 128,-1,13
 502 -243 502 -243 592 -339 c 256,14,15
 625 -374 625 -374 594 -398 c 258,16,-1
 559 -425 l 258,17,18
 529 -448 529 -448 491 -405 c 256,19,20
 332 -228 332 -228 228 4 c 128,-1,21
 124 236 124 236 124 544 c 256,0,1
EndSplineSet
Fore
SplineSet
115 544 m 256,0,1
 115 914 115 914 243.5 1153 c 128,-1,2
 372 1392 372 1392 499 1514 c 256,3,4
 551 1564 551 1564 583 1538 c 258,5,-1
 667 1471 l 258,6,7
 701 1444 701 1444 667 1399 c 256,8,9
 588 1296 588 1296 501.5 1107.5 c 128,-1,10
 415 919 415 919 415 544 c 256,11,12
 415 169 415 169 501.5 -19.5 c 128,-1,13
 588 -208 588 -208 667 -311 c 256,14,15
 701 -356 701 -356 667 -383 c 258,16,-1
 583 -450 l 258,17,18
 551 -476 551 -476 499 -426 c 256,19,20
 372 -304 372 -304 243.5 -65 c 128,-1,21
 115 174 115 174 115 544 c 256,0,1
EndSplineSet
EndChar

StartChar: parenright
Encoding: 41 41 156
Width: 740
Flags: W
VStem: 325 300<158.097 929.903>
LayerCount: 2
Fore
SplineSet
73 -383 m 262,0,1
 39 -356 39 -356 73 -311 c 256,2,3
 152 -208 152 -208 238.5 -19.5 c 128,-1,4
 325 169 325 169 325 544 c 256,5,6
 325 919 325 919 238.5 1107.5 c 128,-1,7
 152 1296 152 1296 73 1399 c 256,8,9
 39 1444 39 1444 73 1471 c 258,10,-1
 157 1538 l 258,11,12
 189 1564 189 1564 241 1514 c 256,13,14
 368 1392 368 1392 496.5 1153 c 128,-1,15
 625 914 625 914 625 544 c 256,16,17
 625 174 625 174 496.5 -65 c 128,-1,18
 368 -304 368 -304 241 -426 c 256,19,20
 189 -476 189 -476 157 -450 c 258,21,-1
 73 -383 l 262,0,1
EndSplineSet
EndChar

StartChar: uni2116
Encoding: 8470 8470 157
Width: 2082
Flags: W
HStem: 1 200<1403.23 1954.77> 324 123<1571.4 1786.6> 899 124<1571.4 1786.6> 1414 20G<195 401.5 975 1197>
VStem: 160 292<3.09448 894> 940 292<545 1430.91> 1370 164<482.357 863.736> 1824 164<482.357 863.736>
DStem2: 486 1364 454 894 0.487441 -0.873156<394.785 935.438>
LayerCount: 2
Fore
SplineSet
230 0 m 2,0,1
 160 0 160 0 160 75 c 2,2,-1
 160 1359 l 2,3,4
 160 1434 160 1434 230 1434 c 2,5,-1
 356 1434 l 2,6,7
 447 1434 447 1434 486 1364 c 2,8,-1
 938 545 l 9,9,-1
 945 545 l 25,10,11
 940 605 940 605 940 665 c 2,12,-1
 940 1359 l 2,13,14
 940 1434 940 1434 1010 1434 c 2,15,-1
 1162 1434 l 2,16,17
 1232 1434 1232 1434 1232 1359 c 2,18,-1
 1232 75 l 2,19,20
 1232 0 1232 0 1162 0 c 2,21,-1
 1044 0 l 2,22,23
 953 0 953 0 914 70 c 2,24,-1
 454 894 l 9,25,-1
 447 894 l 17,26,27
 452 834 452 834 452 774 c 2,28,-1
 452 75 l 2,29,30
 452 0 452 0 382 0 c 2,31,-1
 230 0 l 2,0,1
1370 673 m 256,32,33
 1370 863 1370 863 1452 943 c 128,-1,34
 1534 1023 1534 1023 1679 1023 c 256,35,36
 1824 1023 1824 1023 1906 943 c 128,-1,37
 1988 863 1988 863 1988 673 c 256,38,39
 1988 483 1988 483 1906 403.5 c 128,-1,40
 1824 324 1824 324 1679 324 c 256,41,42
 1534 324 1534 324 1452 403.5 c 128,-1,43
 1370 483 1370 483 1370 673 c 256,32,33
1534 673 m 256,44,45
 1534 558 1534 558 1564 502.5 c 128,-1,46
 1594 447 1594 447 1679 447 c 256,47,48
 1764 447 1764 447 1794 502.5 c 128,-1,49
 1824 558 1824 558 1824 673 c 256,50,51
 1824 788 1824 788 1794 843.5 c 128,-1,52
 1764 899 1764 899 1679 899 c 256,53,54
 1594 899 1594 899 1564 843.5 c 128,-1,55
 1534 788 1534 788 1534 673 c 256,44,45
1463 1 m 2,56,57
 1403 1 1403 1 1403 51 c 2,58,-1
 1403 151 l 2,59,60
 1403 201 1403 201 1463 201 c 2,61,-1
 1895 201 l 2,62,63
 1955 201 1955 201 1955 151 c 2,64,-1
 1955 51 l 2,65,66
 1955 1 1955 1 1895 1 c 2,67,-1
 1463 1 l 2,56,57
EndSplineSet
EndChar

StartChar: eight
Encoding: 56 56 158
Width: 1200
Flags: W
HStem: -34 224<449.525 750.475> 644 242<466.76 733.24> 1232 224<470.569 729.431>
VStem: 86 300<253.027 557.047> 127 292<933.282 1181.32> 781 292<933.282 1181.32> 814 300<253.027 557.047>
LayerCount: 2
Back
SplineSet
137 410 m 256,0,1
 137 550 137 550 224 648.5 c 128,-1,2
 311 747 311 747 396 768 c 1,3,-1
 396 771 l 1,4,5
 304 800 304 800 238 879 c 128,-1,6
 172 958 172 958 172 1088 c 256,7,8
 172 1253 172 1253 291 1352.5 c 128,-1,9
 410 1452 410 1452 600 1452 c 256,10,11
 790 1452 790 1452 909 1352.5 c 128,-1,12
 1028 1253 1028 1253 1028 1088 c 256,13,14
 1028 958 1028 958 958 878.5 c 128,-1,15
 888 799 888 799 796 770 c 1,16,-1
 796 768 l 1,17,18
 881 747 881 747 972 648.5 c 128,-1,19
 1063 550 1063 550 1063 410 c 256,20,21
 1063 210 1063 210 951.5 90 c 128,-1,22
 840 -30 840 -30 600 -30 c 256,23,24
 360 -30 360 -30 248.5 90 c 128,-1,25
 137 210 137 210 137 410 c 256,0,1
332 406 m 256,26,27
 332 266 332 266 401 193 c 128,-1,28
 470 120 470 120 600 120 c 256,29,30
 730 120 730 120 798.5 193 c 128,-1,31
 867 266 867 266 867 406 c 256,32,33
 867 516 867 516 796 600 c 128,-1,34
 725 684 725 684 600 684 c 256,35,36
 475 684 475 684 403.5 600 c 128,-1,37
 332 516 332 516 332 406 c 256,26,27
360 1088 m 256,38,39
 360 988 360 988 417.5 917 c 128,-1,40
 475 846 475 846 600 846 c 256,41,42
 725 846 725 846 782.5 917 c 128,-1,43
 840 988 840 988 840 1088 c 256,44,45
 840 1168 840 1168 785 1235 c 128,-1,46
 730 1302 730 1302 600 1302 c 256,47,48
 470 1302 470 1302 415 1235 c 128,-1,49
 360 1168 360 1168 360 1088 c 256,38,39
EndSplineSet
Fore
SplineSet
86 383 m 256,0,1
 86 555 86 555 191.5 650.5 c 128,-1,2
 297 746 297 746 373 767 c 1,3,-1
 373 772 l 1,4,5
 288 799 288 799 207.5 878.5 c 128,-1,6
 127 958 127 958 127 1088 c 256,7,8
 127 1244 127 1244 253.5 1350 c 128,-1,9
 380 1456 380 1456 600 1456 c 256,10,11
 820 1456 820 1456 946.5 1350 c 128,-1,12
 1073 1244 1073 1244 1073 1088 c 256,13,14
 1073 958 1073 958 992.5 878.5 c 128,-1,15
 912 799 912 799 827 772 c 1,16,-1
 827 767 l 1,17,18
 903 746 903 746 1008.5 650.5 c 128,-1,19
 1114 555 1114 555 1114 383 c 256,20,21
 1114 198 1114 198 993.5 82 c 128,-1,22
 873 -34 873 -34 600 -34 c 256,23,24
 327 -34 327 -34 206.5 82 c 128,-1,25
 86 198 86 198 86 383 c 256,0,1
386 413 m 256,26,27
 386 300 386 300 436 245 c 128,-1,28
 486 190 486 190 600 190 c 256,29,30
 714 190 714 190 764 245 c 128,-1,31
 814 300 814 300 814 413 c 256,32,33
 814 499 814 499 759.5 571.5 c 128,-1,34
 705 644 705 644 600 644 c 256,35,36
 495 644 495 644 440.5 571.5 c 128,-1,37
 386 499 386 499 386 413 c 256,26,27
419 1058 m 256,38,39
 419 978 419 978 464.5 932 c 128,-1,40
 510 886 510 886 600 886 c 256,41,42
 690 886 690 886 735.5 932 c 128,-1,43
 781 978 781 978 781 1058 c 256,44,45
 781 1138 781 1138 733.5 1185 c 128,-1,46
 686 1232 686 1232 600 1232 c 256,47,48
 514 1232 514 1232 466.5 1185 c 128,-1,49
 419 1138 419 1138 419 1058 c 256,38,39
EndSplineSet
EndChar

StartChar: guilsinglleft
Encoding: 8249 8249 159
Width: 706
Flags: W
DStem2: 121 576 326 537 0.623707 0.781658<97.3752 538.996> 326 537 121 498 0.623707 -0.781658<0 441.621>
LayerCount: 2
Back
SplineSet
121 517 m 2,0,1
 102 540 102 540 121 563 c 2,2,-1
 453 953 l 2,3,4
 475 979 475 979 496 961 c 2,5,-1
 544 918 l 2,6,7
 563 901 563 901 541 874 c 2,8,-1
 259 540 l 1,9,-1
 541 206 l 2,10,11
 563 179 563 179 544 162 c 2,12,-1
 496 119 l 2,13,14
 475 101 475 101 453 127 c 2,15,-1
 121 517 l 2,0,1
EndSplineSet
Fore
SplineSet
121 498 m 2,0,1
 90 537 90 537 121 576 c 2,2,-1
 429 962 l 2,3,4
 457 997 457 997 489 972 c 2,5,-1
 577 902 l 2,6,7
 604 880 604 880 573 842 c 2,8,-1
 326 537 l 1,9,-1
 573 232 l 2,10,11
 604 194 604 194 577 172 c 2,12,-1
 489 102 l 2,13,14
 457 77 457 77 429 112 c 2,15,-1
 121 498 l 2,0,1
EndSplineSet
EndChar

StartChar: guilsinglright
Encoding: 8250 8250 161
Width: 706
Flags: W
DStem2: 380 543 585 582 0.623707 -0.781658<-441.621 0> 585 504 380 543 0.623707 0.781658<-538.996 -97.3752>
LayerCount: 2
Fore
SplineSet
129 178 m 6,0,1
 102 200 102 200 133 238 c 2,2,-1
 380 543 l 1,3,-1
 133 848 l 2,4,5
 102 886 102 886 129 908 c 2,6,-1
 217 978 l 2,7,8
 249 1003 249 1003 277 968 c 2,9,-1
 585 582 l 2,10,11
 616 543 616 543 585 504 c 2,12,-1
 277 118 l 2,13,14
 249 83 249 83 217 108 c 2,15,-1
 129 178 l 6,0,1
EndSplineSet
EndChar

StartChar: six
Encoding: 54 54 163
Width: 1200
Flags: W
HStem: -34 224<485.716 750.2> 702 224<503.085 748.455> 1232 224<516.483 833.857>
VStem: 88 328<321.068 865.793> 88 279<799 1060.59> 814 300<254.001 634.422>
LayerCount: 2
Back
SplineSet
92 671 m 256,0,1
 92 1111 92 1111 245 1281.5 c 128,-1,2
 398 1452 398 1452 617 1452 c 256,3,4
 742 1452 742 1452 817 1420 c 128,-1,5
 892 1388 892 1388 946 1338 c 256,6,7
 987 1300 987 1300 965 1273 c 2,8,-1
 913 1210 l 2,9,10
 886 1177 886 1177 840 1216 c 256,11,12
 803 1248 803 1248 753.5 1271 c 128,-1,13
 704 1294 704 1294 608 1294 c 256,14,15
 473 1294 473 1294 373 1160 c 128,-1,16
 273 1026 273 1026 273 743 c 1,17,-1
 275 743 l 1,18,19
 320 808 320 808 404.5 853.5 c 128,-1,20
 489 899 489 899 618 899 c 256,21,22
 778 899 778 899 899 789.5 c 128,-1,23
 1020 680 1020 680 1020 460 c 256,24,25
 1020 242 1020 242 904.5 106 c 128,-1,26
 789 -30 789 -30 563 -30 c 260,27,28
 327 -30 327 -30 209.5 157.5 c 128,-1,29
 92 345 92 345 92 671 c 256,0,1
307 447 m 256,30,31
 307 323 307 323 375.5 221.5 c 128,-1,32
 444 120 444 120 565 120 c 256,33,34
 690 120 690 120 757 214 c 128,-1,35
 824 308 824 308 824 454 c 256,36,37
 824 599 824 599 756 672.5 c 128,-1,38
 688 746 688 746 586 746 c 256,39,40
 454 746 454 746 380.5 665 c 128,-1,41
 307 584 307 584 307 447 c 256,30,31
EndSplineSet
Fore
SplineSet
88 671 m 256,0,1
 88 1122 88 1122 249.5 1289 c 128,-1,2
 411 1456 411 1456 657 1456 c 256,3,4
 753 1456 753 1456 848 1428.5 c 128,-1,5
 943 1401 943 1401 994 1356 c 256,6,7
 1042 1313 1042 1313 1015 1272 c 2,8,-1
 949 1173 l 2,9,10
 917 1124 917 1124 856 1173 c 256,11,12
 826 1197 826 1197 768.5 1214.5 c 128,-1,13
 711 1232 711 1232 648 1232 c 256,14,15
 543 1232 543 1232 455 1133.5 c 128,-1,16
 367 1035 367 1035 367 799 c 1,17,-1
 371 799 l 1,18,19
 416 867 416 867 496 896.5 c 128,-1,20
 576 926 576 926 691 926 c 256,21,22
 900 926 900 926 1007 788.5 c 128,-1,23
 1114 651 1114 651 1114 448 c 256,24,25
 1114 228 1114 228 989 97 c 128,-1,26
 864 -34 864 -34 607 -34 c 256,27,28
 333 -34 333 -34 210.5 149.5 c 128,-1,29
 88 333 88 333 88 671 c 256,0,1
416 443 m 256,30,31
 416 321 416 321 466 255.5 c 128,-1,32
 516 190 516 190 612 190 c 256,33,34
 714 190 714 190 764 245 c 128,-1,35
 814 300 814 300 814 450 c 256,36,37
 814 582 814 582 764 642 c 128,-1,38
 714 702 714 702 624 702 c 256,39,40
 525 702 525 702 470.5 621 c 128,-1,41
 416 540 416 540 416 443 c 256,30,31
EndSplineSet
EndChar

StartChar: nine
Encoding: 57 57 164
Width: 1200
Flags: W
HStem: -34 224<366.143 683.517> 496 224<451.545 696.915> 1232 224<449.8 714.284>
VStem: 86 300<787.578 1168> 784 328<556.207 1100.93> 833 279<361.413 623>
LayerCount: 2
Fore
SplineSet
86 974 m 256,0,1
 86 1194 86 1194 211 1325 c 128,-1,2
 336 1456 336 1456 593 1456 c 256,3,4
 867 1456 867 1456 989.5 1272.5 c 128,-1,5
 1112 1089 1112 1089 1112 751 c 256,6,7
 1112 300 1112 300 950.5 133 c 128,-1,8
 789 -34 789 -34 543 -34 c 256,9,10
 447 -34 447 -34 352 -6.5 c 128,-1,11
 257 21 257 21 206 66 c 256,12,13
 158 109 158 109 185 150 c 2,14,-1
 251 249 l 2,15,16
 283 298 283 298 344 249 c 256,17,18
 374 225 374 225 431.5 207.5 c 128,-1,19
 489 190 489 190 552 190 c 256,20,21
 657 190 657 190 745 288.5 c 128,-1,22
 833 387 833 387 833 623 c 1,23,-1
 829 623 l 1,24,25
 784 555 784 555 704 525.5 c 128,-1,26
 624 496 624 496 509 496 c 256,27,28
 300 496 300 496 193 633.5 c 128,-1,29
 86 771 86 771 86 974 c 256,0,1
386 972 m 260,30,31
 386 840 386 840 436 780 c 128,-1,32
 486 720 486 720 576 720 c 256,33,34
 675 720 675 720 729.5 801 c 128,-1,35
 784 882 784 882 784 979 c 256,36,37
 784 1101 784 1101 734 1166.5 c 128,-1,38
 684 1232 684 1232 588 1232 c 256,39,40
 486 1232 486 1232 436 1177 c 128,-1,41
 386 1122 386 1122 386 972 c 260,30,31
EndSplineSet
EndChar

StartChar: emdash
Encoding: 8212 8212 165
Width: 2048
Flags: W
HStem: 453 200<35.2344 2012.77>
LayerCount: 2
Fore
SplineSet
95 453 m 2,0,1
 35 453 35 453 35 503 c 2,2,-1
 35 603 l 2,3,4
 35 653 35 653 95 653 c 2,5,-1
 1953 653 l 2,6,7
 2013 653 2013 653 2013 603 c 2,8,-1
 2013 503 l 2,9,10
 2013 453 2013 453 1953 453 c 2,11,-1
 95 453 l 2,0,1
EndSplineSet
EndChar

StartChar: slash
Encoding: 47 47 166
Width: 856
Flags: W
DStem2: 673 1426 847 1359 0.358328 0.933596<-1912.9 59.6469>
LayerCount: 2
Back
SplineSet
24 -391 m 2,0,1
 -10 -377 -10 -377 7 -335 c 2,2,-1
 722 1436 l 2,3,4
 739 1478 739 1478 773 1464 c 2,5,-1
 818 1446 l 2,6,7
 850 1433 850 1433 833 1391 c 2,8,-1
 118 -380 l 2,9,10
 101 -422 101 -422 69 -409 c 2,11,-1
 24 -391 l 2,0,1
EndSplineSet
Fore
SplineSet
34 -378 m 2,0,1
 -13 -360 -13 -360 9 -304 c 2,2,-1
 673 1426 l 2,3,4
 695 1482 695 1482 741 1464 c 2,5,-1
 822 1433 l 2,6,7
 869 1415 869 1415 847 1359 c 2,8,-1
 183 -371 l 2,9,10
 161 -427 161 -427 115 -409 c 2,11,-1
 34 -378 l 2,0,1
EndSplineSet
EndChar

StartChar: bar
Encoding: 124 124 167
Width: 630
Flags: W
HStem: 1476 20G<240 390>
VStem: 215 200<-439.766 1495.77>
LayerCount: 2
Fore
SplineSet
265 -440 m 2,0,1
 215 -440 215 -440 215 -380 c 2,2,-1
 215 1436 l 2,3,4
 215 1496 215 1496 265 1496 c 2,5,-1
 365 1496 l 2,6,7
 415 1496 415 1496 415 1436 c 2,8,-1
 415 -380 l 2,9,10
 415 -440 415 -440 365 -440 c 2,11,-1
 265 -440 l 2,0,1
EndSplineSet
EndChar

StartChar: backslash
Encoding: 92 92 168
Width: 856
Flags: W
DStem2: 183 1426 9 1359 0.358328 -0.933596<-59.6469 1912.9>
LayerCount: 2
Fore
SplineSet
9 1359 m 6,0,1
 -13 1415 -13 1415 34 1433 c 2,2,-1
 115 1464 l 2,3,4
 161 1482 161 1482 183 1426 c 2,5,-1
 847 -304 l 2,6,7
 869 -360 869 -360 822 -378 c 2,8,-1
 741 -409 l 2,9,10
 695 -427 695 -427 673 -371 c 2,11,-1
 9 1359 l 6,0,1
EndSplineSet
EndChar

StartChar: plus
Encoding: 43 43 169
Width: 1280
Flags: W
HStem: 632 186<75.2344 547 733 1204.77>
VStem: 547 186<160.234 632 818 1289.77>
LayerCount: 2
Back
SplineSet
125 665 m 2,0,1
 80 665 80 665 80 700 c 2,2,-1
 80 750 l 2,3,4
 80 785 80 785 125 785 c 2,5,-1
 579 785 l 1,6,-1
 579 1239 l 2,7,8
 579 1284 579 1284 614 1284 c 2,9,-1
 664 1284 l 2,10,11
 699 1284 699 1284 699 1239 c 2,12,-1
 699 785 l 1,13,-1
 1155 785 l 2,14,15
 1200 785 1200 785 1200 750 c 2,16,-1
 1200 700 l 2,17,18
 1200 665 1200 665 1155 665 c 2,19,-1
 699 665 l 1,20,-1
 699 209 l 2,21,22
 699 164 699 164 664 164 c 2,23,-1
 614 164 l 2,24,25
 579 164 579 164 579 209 c 2,26,-1
 579 665 l 1,27,-1
 125 665 l 2,0,1
EndSplineSet
Fore
SplineSet
135 632 m 2,0,1
 75 632 75 632 75 682 c 2,2,-1
 75 768 l 2,3,4
 75 818 75 818 135 818 c 2,5,-1
 547 818 l 1,6,-1
 547 1230 l 2,7,8
 547 1290 547 1290 597 1290 c 2,9,-1
 683 1290 l 2,10,11
 733 1290 733 1290 733 1230 c 2,12,-1
 733 818 l 1,13,-1
 1145 818 l 2,14,15
 1205 818 1205 818 1205 768 c 2,16,-1
 1205 682 l 2,17,18
 1205 632 1205 632 1145 632 c 2,19,-1
 733 632 l 1,20,-1
 733 220 l 2,21,22
 733 160 733 160 683 160 c 2,23,-1
 597 160 l 2,24,25
 547 160 547 160 547 220 c 2,26,-1
 547 632 l 1,27,-1
 135 632 l 2,0,1
EndSplineSet
EndChar

StartChar: bracketright
Encoding: 93 93 171
Width: 694
Flags: W
HStem: -408 200<66.2344 254> 1296 200<66.2344 254>
VStem: 254 280<-208 1296>
LayerCount: 2
Fore
SplineSet
126 -408 m 6,0,1
 66 -408 66 -408 66 -358 c 2,2,-1
 66 -258 l 2,3,4
 66 -208 66 -208 126 -208 c 2,5,-1
 254 -208 l 1,6,-1
 254 1296 l 1,7,-1
 126 1296 l 2,8,9
 66 1296 66 1296 66 1346 c 2,10,-1
 66 1446 l 2,11,12
 66 1496 66 1496 126 1496 c 2,13,-1
 474 1496 l 2,14,15
 534 1496 534 1496 534 1436 c 2,16,-1
 534 -348 l 2,17,18
 534 -408 534 -408 474 -408 c 2,19,-1
 126 -408 l 6,0,1
EndSplineSet
EndChar

StartChar: bracketleft
Encoding: 91 91 172
Width: 694
Flags: MW
HStem: -408 200<440 627.766> 1296 200<440 627.766>
VStem: 160 280<-208 1296>
LayerCount: 2
Fore
SplineSet
220 -408 m 2,0,1
 160 -408 160 -408 160 -348 c 2,2,-1
 160 1436 l 2,3,4
 160 1496 160 1496 220 1496 c 2,5,-1
 568 1496 l 2,6,7
 628 1496 628 1496 628 1446 c 2,8,-1
 628 1346 l 2,9,10
 628 1296 628 1296 568 1296 c 2,11,-1
 440 1296 l 1,12,-1
 440 -208 l 1,13,-1
 568 -208 l 2,14,15
 628 -208 628 -208 628 -258 c 2,16,-1
 628 -358 l 2,17,18
 628 -408 628 -408 568 -408 c 2,19,-1
 220 -408 l 2,0,1
EndSplineSet
EndChar

StartChar: question
Encoding: 63 63 173
Width: 1106
Flags: W
HStem: 0 284<392.845 677.155> 1244 224<388.982 667.389>
VStem: 389 292<3.09448 280.906 416.571 625.617> 706 300<967.911 1202.09>
LayerCount: 2
Fore
SplineSet
114 1158 m 258,0,1
 62 1191 62 1191 101 1260 c 256,2,3
 142 1332 142 1332 256 1400 c 128,-1,4
 370 1468 370 1468 544 1468 c 256,5,6
 781 1468 781 1468 893.5 1361 c 128,-1,7
 1006 1254 1006 1254 1006 1068 c 256,8,9
 1006 927 1006 927 840.5 763.5 c 152,-1,10
 675 600 675 600 675 494 c 2,11,-1
 675 478 l 2,12,13
 675 413 675 413 610 413 c 2,14,-1
 460 413 l 2,15,16
 395 413 395 413 395 478 c 2,17,-1
 395 508 l 2,18,19
 395 672 395 672 550.5 834 c 152,-1,20
 706 996 706 996 706 1074 c 256,21,22
 706 1155 706 1155 668.5 1199.5 c 128,-1,23
 631 1244 631 1244 534 1244 c 256,24,25
 448 1244 448 1244 395 1205 c 128,-1,26
 342 1166 342 1166 308 1110 c 256,27,28
 275 1055 275 1055 219 1091 c 2,29,-1
 114 1158 l 258,0,1
459 0 m 2,30,31
 389 0 389 0 389 75 c 2,32,-1
 389 209 l 2,33,34
 389 284 389 284 459 284 c 2,35,-1
 611 284 l 2,36,37
 681 284 681 284 681 209 c 2,38,-1
 681 75 l 2,39,40
 681 0 681 0 611 0 c 2,41,-1
 459 0 l 2,30,31
EndSplineSet
EndChar

StartChar: .notdef
Encoding: 0 0 174
Width: 1260
Flags: W
HStem: 0 180<320 940> 1254 180<320 940>
VStem: 140 180<180 1254> 940 180<180 1254>
LayerCount: 2
Fore
SplineSet
200 0 m 2,0,1
 140 0 140 0 140 60 c 2,2,-1
 140 1374 l 2,3,4
 140 1434 140 1434 192 1434 c 2,5,-1
 1060 1434 l 2,6,7
 1120 1434 1120 1434 1120 1374 c 2,8,-1
 1120 60 l 2,9,10
 1120 0 1120 0 1060 0 c 2,11,-1
 200 0 l 2,0,1
320 180 m 1,12,-1
 940 180 l 1,13,-1
 940 1254 l 1,14,-1
 320 1254 l 1,15,-1
 320 180 l 1,12,-1
EndSplineSet
EndChar

StartChar: braceleft
Encoding: 123 123 175
Width: 829
Flags: W
HStem: -408 200<603.66 772.766> 444 200<85.969 236.818> 1296 200<603.66 772.766>
VStem: 305 280<-191.285 374.234 713.766 1279.28>
CounterMasks: 1 e0
LayerCount: 2
Back
SplineSet
125 479 m 0,0,1
 90 479 90 479 90 524 c 2,2,-1
 90 564 l 2,3,4
 90 609 90 609 125 609 c 0,5,6
 197 609 197 609 273.5 683.5 c 128,-1,7
 350 758 350 758 350 931 c 2,8,-1
 350 1166 l 2,9,10
 350 1335 350 1335 413 1415.5 c 128,-1,11
 476 1496 476 1496 661 1496 c 0,12,13
 706 1496 706 1496 706 1461 c 2,14,-1
 706 1401 l 2,15,16
 706 1366 706 1366 661 1366 c 0,17,18
 563 1366 563 1366 544.5 1325 c 128,-1,19
 526 1284 526 1284 526 1189 c 2,20,-1
 526 903 l 2,21,22
 526 698 526 698 434.5 626 c 128,-1,23
 343 554 343 554 279 545 c 1,24,-1
 279 543 l 17,25,26
 343 534 343 534 434.5 462 c 128,-1,27
 526 390 526 390 526 185 c 2,28,-1
 526 -101 l 2,29,30
 526 -196 526 -196 544.5 -237 c 128,-1,31
 563 -278 563 -278 661 -278 c 0,32,33
 706 -278 706 -278 706 -313 c 2,34,-1
 706 -373 l 2,35,36
 706 -408 706 -408 661 -408 c 0,37,38
 476 -408 476 -408 413 -327.5 c 128,-1,39
 350 -247 350 -247 350 -78 c 2,40,-1
 350 157 l 2,41,42
 350 330 350 330 273.5 404.5 c 128,-1,43
 197 479 197 479 125 479 c 0,0,1
EndSplineSet
Fore
SplineSet
134 444 m 256,0,1
 85 444 85 444 85 503 c 258,2,-1
 85 585 l 258,3,4
 85 644 85 644 134 644 c 256,5,6
 187 644 187 644 246 695.5 c 128,-1,7
 305 747 305 747 305 931 c 2,8,-1
 305 1216 l 2,9,10
 305 1383 305 1383 382 1439.5 c 128,-1,11
 459 1496 459 1496 713 1496 c 0,12,13
 773 1496 773 1496 773 1446 c 2,14,-1
 773 1346 l 2,15,16
 773 1296 773 1296 713 1296 c 0,17,18
 616 1296 616 1296 600.5 1249 c 128,-1,19
 585 1202 585 1202 585 1139 c 2,20,-1
 585 884 l 2,21,22
 585 720 585 720 518 645 c 128,-1,23
 451 570 451 570 344 545 c 1,24,-1
 344 543 l 17,25,26
 451 518 451 518 518 443 c 128,-1,27
 585 368 585 368 585 204 c 2,28,-1
 585 -51 l 2,29,30
 585 -114 585 -114 600.5 -161 c 128,-1,31
 616 -208 616 -208 713 -208 c 0,32,33
 773 -208 773 -208 773 -258 c 2,34,-1
 773 -358 l 2,35,36
 773 -408 773 -408 713 -408 c 0,37,38
 459 -408 459 -408 382 -351.5 c 128,-1,39
 305 -295 305 -295 305 -128 c 2,40,-1
 305 157 l 2,41,42
 305 341 305 341 246 392.5 c 128,-1,43
 187 444 187 444 134 444 c 256,0,1
EndSplineSet
EndChar

StartChar: braceright
Encoding: 125 125 176
Width: 829
Flags: W
HStem: -408 200<56.2344 225.34> 444 200<592.182 743.031> 1296 200<56.2344 225.34>
VStem: 244 280<-191.285 374.234 713.766 1279.28>
CounterMasks: 1 e0
LayerCount: 2
Fore
SplineSet
116 -408 m 0,0,1
 56 -408 56 -408 56 -358 c 2,2,-1
 56 -258 l 2,3,4
 56 -208 56 -208 116 -208 c 0,5,6
 213 -208 213 -208 228.5 -161 c 128,-1,7
 244 -114 244 -114 244 -51 c 2,8,-1
 244 204 l 2,9,10
 244 368 244 368 311 443 c 128,-1,11
 378 518 378 518 485 543 c 1,12,-1
 485 545 l 17,13,14
 378 570 378 570 311 645 c 128,-1,15
 244 720 244 720 244 884 c 2,16,-1
 244 1139 l 2,17,18
 244 1202 244 1202 228.5 1249 c 128,-1,19
 213 1296 213 1296 116 1296 c 0,20,21
 56 1296 56 1296 56 1346 c 2,22,-1
 56 1446 l 2,23,24
 56 1496 56 1496 116 1496 c 0,25,26
 370 1496 370 1496 447 1439.5 c 128,-1,27
 524 1383 524 1383 524 1216 c 2,28,-1
 524 931 l 2,29,30
 524 747 524 747 583 695.5 c 128,-1,31
 642 644 642 644 695 644 c 256,32,33
 744 644 744 644 744 585 c 258,34,-1
 744 503 l 258,35,36
 744 444 744 444 695 444 c 256,37,38
 642 444 642 444 583 392.5 c 128,-1,39
 524 341 524 341 524 157 c 2,40,-1
 524 -128 l 2,41,42
 524 -295 524 -295 447 -351.5 c 128,-1,43
 370 -408 370 -408 116 -408 c 0,0,1
EndSplineSet
EndChar

StartChar: perthousandzero
Encoding: 61698 61698 178
Width: 706
Flags: W
HStem: -60 135<273.295 432.705> 581 135<273.295 432.705>
VStem: 36 202<118.323 537.677> 468 202<118.323 537.677>
LayerCount: 2
Fore
SplineSet
36 328 m 256,0,1
 36 508 36 508 114.5 612 c 128,-1,2
 193 716 193 716 353 716 c 256,3,4
 513 716 513 716 591.5 612 c 128,-1,5
 670 508 670 508 670 328 c 256,6,7
 670 148 670 148 591.5 44 c 128,-1,8
 513 -60 513 -60 353 -60 c 256,9,10
 193 -60 193 -60 114.5 44 c 128,-1,11
 36 148 36 148 36 328 c 256,0,1
238 328 m 256,12,13
 238 178 238 178 268 126.5 c 128,-1,14
 298 75 298 75 353 75 c 256,15,16
 408 75 408 75 438 126.5 c 128,-1,17
 468 178 468 178 468 328 c 256,18,19
 468 478 468 478 438 529.5 c 128,-1,20
 408 581 408 581 353 581 c 256,21,22
 298 581 298 581 268 529.5 c 128,-1,23
 238 478 238 478 238 328 c 256,12,13
EndSplineSet
EndChar

StartChar: uni2215
Encoding: 8725 8725 179
Width: 912
Flags: W
DStem2: 890 1507 1043 1401 0.573613 0.819126<-1839.56 60.5504>
LayerCount: 2
Back
SplineSet
-113 -50 m 2,0,1
 -143 -32 -143 -32 -119 6 c 2,2,-1
 819 1507 l 2,3,4
 843 1545 843 1545 873 1527 c 2,5,-1
 915 1500 l 2,6,7
 945 1482 945 1482 921 1444 c 2,8,-1
 -17 -57 l 2,9,10
 -41 -95 -41 -95 -71 -77 c 2,11,-1
 -113 -50 l 2,0,1
EndSplineSet
Fore
SplineSet
-124 -29 m 2,0,1
 -165 0 -165 0 -131 49 c 2,2,-1
 890 1507 l 2,3,4
 925 1557 925 1557 966 1528 c 2,5,-1
 1036 1479 l 2,6,7
 1077 1450 1077 1450 1043 1401 c 2,8,-1
 22 -57 l 2,9,10
 -13 -107 -13 -107 -54 -78 c 2,11,-1
 -124 -29 l 2,0,1
EndSplineSet
EndChar

StartChar: at
Encoding: 64 64 180
Width: 2074
Flags: W
HStem: -358 182<780.449 1401.91> 100 180<839.262 1044.41 1390.57 1617.64> 863 180<962.105 1165.43> 1318 182<788.255 1364.33>
VStem: 112 188<297.466 836.942> 564 242<317.901 682.039> 1774 188<446.062 929.498>
DStem2: 1196 582 1401 422 0.220036 0.975492<-202.858 119.28 323.563 443.833>
LayerCount: 2
Back
SplineSet
1731 266.5 m 132,-1,8
 1590 111 1590 111 1360 111 c 260,9,10
 1230 111 1230 111 1194 168 c 132,-1,11
 1158 225 1158 225 1158 332 c 5,12,13
 1157 332 1157 332 1156 332 c 4,14,15
 1118 243 1118 243 1026 177 c 132,-1,16
 934 111 934 111 843 111 c 260,17,18
 709 111 709 111 627.5 207 c 132,-1,19
 546 303 546 303 546 467 c 260,20,21
 546 673 546 673 677.5 857.5 c 132,-1,22
 809 1042 809 1042 1006 1042 c 260,23,24
 1197 1042 1197 1042 1241 866 c 5,25,-1
 1245 866 l 5,26,-1
 1268 972 l 6,27,28
 1275 1006 1275 1006 1310 1006 c 6,29,-1
 1420 1006 l 6,30,31
 1455 1006 1455 1006 1447 971 c 6,32,-1
 1316 380 l 6,33,34
 1294 282 1294 282 1320 256.5 c 132,-1,35
 1346 231 1346 231 1391 231 c 260,36,37
 1537 231 1537 231 1643.5 342.5 c 1156,-1,38
717 447 m 260,62,63
 717 324 717 324 761.5 277.5 c 132,-1,64
 806 231 806 231 885 231 c 260,65,66
 986 231 986 231 1073.5 373.5 c 132,-1,67
 1161 516 1161 516 1177 582 c 284,68,69
 1192 646 1192 646 1192 727 c 260,70,71
 1192 796 1192 796 1151 860 c 132,-1,72
 1110 924 1110 924 1030 924 c 260,73,74
 896 924 896 924 806.5 780 c 132,-1,75
 717 636 717 636 717 447 c 260,62,63
261 571 m 128,-1,0
 261 722 261 722 321.5 860 c 128,-1,1
 382 998 382 998 483 1097.5 c 128,-1,2
 584 1197 584 1197 725 1256 c 128,-1,3
 866 1315 866 1315 1020 1315 c 128,-1,4
 1174 1315 1174 1315 1315 1256 c 128,-1,5
 1456 1197 1456 1197 1557 1097.5 c 128,-1,6
 1658 998 1658 998 1718.5 860 c 128,-1,7
 1779 722 1779 722 1779 571 c 128,-1,8
 1779 420 1779 420 1718.5 282 c 128,-1,9
 1658 144 1658 144 1557 44.5 c 128,-1,10
 1456 -55 1456 -55 1315 -114 c 128,-1,11
 1174 -173 1174 -173 1020 -173 c 128,-1,12
 866 -173 866 -173 725 -114 c 128,-1,13
 584 -55 584 -55 483 44.5 c 128,-1,14
 382 144 382 144 321.5 282 c 128,-1,15
 261 420 261 420 261 571 c 128,-1,0
73 571 m 128,-1,15
 73 759 73 759 148 931.5 c 128,-1,16
 223 1104 223 1104 349.5 1228 c 128,-1,17
 476 1352 476 1352 652 1426 c 128,-1,18
 828 1500 828 1500 1020 1500 c 128,-1,19
 1212 1500 1212 1500 1388 1426 c 128,-1,20
 1564 1352 1564 1352 1690.5 1228 c 128,-1,21
 1817 1104 1817 1104 1892 931.5 c 128,-1,22
 1967 759 1967 759 1967 571 c 128,-1,23
 1967 383 1967 383 1892 210.5 c 128,-1,24
 1817 38 1817 38 1690.5 -86 c 128,-1,25
 1564 -210 1564 -210 1388 -284 c 128,-1,26
 1212 -358 1212 -358 1020 -358 c 128,-1,27
 828 -358 828 -358 652 -284 c 128,-1,28
 476 -210 476 -210 349.5 -86 c 128,-1,29
 223 38 223 38 148 210.5 c 128,-1,30
 73 383 73 383 73 571 c 128,-1,15
EndSplineSet
Fore
SplineSet
112 564 m 256,0,1
 112 964 112 964 375.5 1232 c 128,-1,2
 639 1500 639 1500 1063 1500 c 256,3,4
 1451 1500 1451 1500 1706.5 1288 c 128,-1,5
 1962 1076 1962 1076 1962 700 c 256,6,7
 1962 406 1962 406 1818.5 253 c 128,-1,8
 1675 100 1675 100 1439 100 c 256,9,10
 1337 100 1337 100 1275 133.5 c 128,-1,11
 1213 167 1213 167 1189 271 c 9,12,-1
 1187 271 l 17,13,14
 1126 194 1126 194 1058 147 c 128,-1,15
 990 100 990 100 872 100 c 256,16,17
 755 100 755 100 659.5 188 c 128,-1,18
 564 276 564 276 564 487 c 256,19,20
 564 714 564 714 715.5 878.5 c 128,-1,21
 867 1043 867 1043 1075 1043 c 256,22,23
 1215 1043 1215 1043 1266 897 c 1,24,-1
 1270 897 l 1,25,-1
 1284 958 l 2,26,27
 1295 1006 1295 1006 1343 1006 c 2,28,-1
 1482 1006 l 2,29,30
 1533 1006 1533 1006 1521 954 c 2,31,-1
 1401 422 l 2,32,33
 1384 347 1384 347 1392.5 313.5 c 128,-1,34
 1401 280 1401 280 1450 280 c 256,35,36
 1595 280 1595 280 1684.5 378 c 128,-1,37
 1774 476 1774 476 1774 661 c 256,38,39
 1774 972 1774 972 1586.5 1145 c 128,-1,40
 1399 1318 1399 1318 1063 1318 c 256,41,42
 731 1318 731 1318 515.5 1105 c 128,-1,43
 300 892 300 892 300 570 c 256,44,45
 300 244 300 244 513.5 34 c 128,-1,46
 727 -176 727 -176 1061 -176 c 256,47,48
 1211 -176 1211 -176 1324.5 -153 c 128,-1,49
 1438 -130 1438 -130 1582 -50 c 0,50,51
 1627 -25 1627 -25 1641 -47 c 2,52,-1
 1703 -140 l 2,53,54
 1730 -181 1730 -181 1687 -206 c 0,55,56
 1539 -294 1539 -294 1363.5 -326 c 128,-1,57
 1188 -358 1188 -358 1050 -358 c 256,58,59
 647 -358 647 -358 379.5 -95 c 128,-1,60
 112 168 112 168 112 564 c 256,0,1
806 433 m 256,61,62
 806 366 806 366 838 323 c 128,-1,63
 870 280 870 280 924 280 c 256,64,65
 1017 280 1017 280 1099 376.5 c 128,-1,66
 1181 473 1181 473 1196 582 c 256,67,68
 1205 648 1205 648 1205 704 c 256,69,70
 1205 768 1205 768 1169 815.5 c 128,-1,71
 1133 863 1133 863 1079 863 c 256,72,73
 987 863 987 863 896.5 757 c 128,-1,74
 806 651 806 651 806 433 c 256,61,62
EndSplineSet
EndChar

